%TF.GenerationSoftware,KiCad,Pcbnew,9.0.7*%
%TF.CreationDate,2026-06-15T10:45:25+08:00*%
%TF.ProjectId,pcb,7063622e-6b69-4636-9164-5f7063625858,rev?*%
%TF.SameCoordinates,Original*%
%TF.FileFunction,Copper,L1,Top*%
%TF.FilePolarity,Positive*%
%FSLAX46Y46*%
G04 Gerber Fmt 4.6, Leading zero omitted, Abs format (unit mm)*
G04 Created by KiCad (PCBNEW 9.0.7) date 2026-06-15 10:45:26*
%MOMM*%
%LPD*%
G01*
G04 APERTURE LIST*
G04 Aperture macros list*
%AMRoundRect*
0 Rectangle with rounded corners*
0 $1 Rounding radius*
0 $2 $3 $4 $5 $6 $7 $8 $9 X,Y pos of 4 corners*
0 Add a 4 corners polygon primitive as box body*
4,1,4,$2,$3,$4,$5,$6,$7,$8,$9,$2,$3,0*
0 Add four circle primitives for the rounded corners*
1,1,$1+$1,$2,$3*
1,1,$1+$1,$4,$5*
1,1,$1+$1,$6,$7*
1,1,$1+$1,$8,$9*
0 Add four rect primitives between the rounded corners*
20,1,$1+$1,$2,$3,$4,$5,0*
20,1,$1+$1,$4,$5,$6,$7,0*
20,1,$1+$1,$6,$7,$8,$9,0*
20,1,$1+$1,$8,$9,$2,$3,0*%
G04 Aperture macros list end*
%TA.AperFunction,ComponentPad*%
%ADD10RoundRect,0.250000X0.725000X-0.600000X0.725000X0.600000X-0.725000X0.600000X-0.725000X-0.600000X0*%
%TD*%
%TA.AperFunction,ComponentPad*%
%ADD11O,1.950000X1.700000*%
%TD*%
%TA.AperFunction,ComponentPad*%
%ADD12RoundRect,0.760000X1.140000X-1.140000X1.140000X1.140000X-1.140000X1.140000X-1.140000X-1.140000X0*%
%TD*%
%TA.AperFunction,ComponentPad*%
%ADD13C,3.800000*%
%TD*%
%TA.AperFunction,SMDPad,CuDef*%
%ADD14R,2.200000X1.500000*%
%TD*%
%TA.AperFunction,ComponentPad*%
%ADD15RoundRect,0.250001X1.149999X1.149999X-1.149999X1.149999X-1.149999X-1.149999X1.149999X-1.149999X0*%
%TD*%
%TA.AperFunction,ComponentPad*%
%ADD16C,2.800000*%
%TD*%
%TA.AperFunction,ComponentPad*%
%ADD17RoundRect,0.250000X-0.600000X-0.725000X0.600000X-0.725000X0.600000X0.725000X-0.600000X0.725000X0*%
%TD*%
%TA.AperFunction,ComponentPad*%
%ADD18O,1.700000X1.950000*%
%TD*%
%TA.AperFunction,SMDPad,CuDef*%
%ADD19R,2.000000X1.500000*%
%TD*%
%TA.AperFunction,SMDPad,CuDef*%
%ADD20R,2.000000X3.800000*%
%TD*%
%TA.AperFunction,SMDPad,CuDef*%
%ADD21RoundRect,0.200000X-0.200000X-0.275000X0.200000X-0.275000X0.200000X0.275000X-0.200000X0.275000X0*%
%TD*%
%TA.AperFunction,SMDPad,CuDef*%
%ADD22R,2.500000X1.800000*%
%TD*%
%TA.AperFunction,ComponentPad*%
%ADD23R,1.500000X1.500000*%
%TD*%
%TA.AperFunction,ComponentPad*%
%ADD24C,1.500000*%
%TD*%
%TA.AperFunction,SMDPad,CuDef*%
%ADD25RoundRect,0.225000X-0.250000X0.225000X-0.250000X-0.225000X0.250000X-0.225000X0.250000X0.225000X0*%
%TD*%
%TA.AperFunction,ComponentPad*%
%ADD26RoundRect,0.250000X0.600000X0.725000X-0.600000X0.725000X-0.600000X-0.725000X0.600000X-0.725000X0*%
%TD*%
%TA.AperFunction,ComponentPad*%
%ADD27RoundRect,0.250000X-0.750000X0.600000X-0.750000X-0.600000X0.750000X-0.600000X0.750000X0.600000X0*%
%TD*%
%TA.AperFunction,ComponentPad*%
%ADD28O,2.000000X1.700000*%
%TD*%
%TA.AperFunction,SMDPad,CuDef*%
%ADD29RoundRect,0.225000X0.225000X0.250000X-0.225000X0.250000X-0.225000X-0.250000X0.225000X-0.250000X0*%
%TD*%
%TA.AperFunction,SMDPad,CuDef*%
%ADD30R,1.550000X0.600000*%
%TD*%
%TA.AperFunction,ComponentPad*%
%ADD31C,2.600000*%
%TD*%
%TA.AperFunction,SMDPad,CuDef*%
%ADD32R,2.600000X3.100000*%
%TD*%
%TA.AperFunction,SMDPad,CuDef*%
%ADD33R,2.950000X4.500000*%
%TD*%
%TA.AperFunction,SMDPad,CuDef*%
%ADD34RoundRect,0.225000X0.250000X-0.225000X0.250000X0.225000X-0.250000X0.225000X-0.250000X-0.225000X0*%
%TD*%
%TA.AperFunction,ComponentPad*%
%ADD35R,1.600000X1.600000*%
%TD*%
%TA.AperFunction,ComponentPad*%
%ADD36C,1.600000*%
%TD*%
%TA.AperFunction,ComponentPad*%
%ADD37RoundRect,0.250001X1.149999X-1.149999X1.149999X1.149999X-1.149999X1.149999X-1.149999X-1.149999X0*%
%TD*%
%TA.AperFunction,SMDPad,CuDef*%
%ADD38RoundRect,0.200000X0.275000X-0.200000X0.275000X0.200000X-0.275000X0.200000X-0.275000X-0.200000X0*%
%TD*%
%TA.AperFunction,ComponentPad*%
%ADD39C,2.000000*%
%TD*%
%TA.AperFunction,Conductor*%
%ADD40C,0.762000*%
%TD*%
%TA.AperFunction,Conductor*%
%ADD41C,0.508000*%
%TD*%
%TA.AperFunction,Conductor*%
%ADD42C,0.254000*%
%TD*%
%TA.AperFunction,Conductor*%
%ADD43C,1.524000*%
%TD*%
G04 APERTURE END LIST*
D10*
%TO.P,J16,1,Pin_1*%
%TO.N,+5V*%
X129000000Y-163000000D03*
D11*
%TO.P,J16,2,Pin_2*%
%TO.N,/UART_RX*%
X129000000Y-160500000D03*
%TO.P,J16,3,Pin_3*%
%TO.N,/UART_TX*%
X129000000Y-158000000D03*
%TO.P,J16,4,Pin_4*%
%TO.N,GND*%
X129000000Y-155500000D03*
%TD*%
D12*
%TO.P,J1,1,Pin_1*%
%TO.N,GND*%
X74570000Y-132820000D03*
D13*
%TO.P,J1,2,Pin_2*%
%TO.N,+24V*%
X74570000Y-127820000D03*
%TD*%
D14*
%TO.P,L1,1*%
%TO.N,Net-(D2-K)*%
X100000000Y-130800000D03*
%TO.P,L1,2*%
%TO.N,Net-(C10-Pad1)*%
X100000000Y-137200000D03*
%TD*%
D15*
%TO.P,J14,1,Pin_1*%
%TO.N,/O{slash}*%
X154200000Y-151620000D03*
D16*
%TO.P,J14,2,Pin_2*%
%TO.N,/O*%
X149200000Y-151620000D03*
%TO.P,J14,3,Pin_3*%
%TO.N,/G{slash}*%
X144200000Y-151620000D03*
%TO.P,J14,4,Pin_4*%
%TO.N,/Bl*%
X139200000Y-151620000D03*
%TD*%
D17*
%TO.P,J11,1,Pin_1*%
%TO.N,+5V*%
X83250000Y-143475000D03*
D18*
%TO.P,J11,2,Pin_2*%
X85750000Y-143475000D03*
%TO.P,J11,3,Pin_3*%
X88250000Y-143475000D03*
%TO.P,J11,4,Pin_4*%
X90750000Y-143475000D03*
%TD*%
D19*
%TO.P,U6,1,ADJ/GND*%
%TO.N,GND*%
X77719150Y-144300000D03*
%TO.P,U6,2,VOUT*%
%TO.N,+3.3V*%
X77719150Y-142000000D03*
%TO.P,U6,3,VIN*%
%TO.N,+5V*%
X77719150Y-139700000D03*
D20*
%TO.P,U6,4,VOUT_2*%
%TO.N,+3.3V*%
X71419150Y-142000000D03*
%TD*%
D21*
%TO.P,R23,1*%
%TO.N,+5V*%
X96350000Y-143000000D03*
%TO.P,R23,2*%
%TO.N,Net-(C10-Pad1)*%
X98000000Y-143000000D03*
%TD*%
D22*
%TO.P,D2,1,K*%
%TO.N,Net-(D2-K)*%
X100000000Y-127500000D03*
%TO.P,D2,2,A*%
%TO.N,GND*%
X104000000Y-127500000D03*
%TD*%
D23*
%TO.P,J12,1*%
%TO.N,/O{slash}*%
X142030000Y-137650000D03*
D24*
%TO.P,J12,2*%
%TO.N,/O*%
X140760000Y-140190000D03*
%TO.P,J12,3*%
%TO.N,/G{slash}*%
X139490000Y-137650000D03*
%TO.P,J12,4*%
%TO.N,/Bl*%
X138220000Y-140190000D03*
%TO.P,J12,5*%
%TO.N,/Bl{slash}*%
X136950000Y-137650000D03*
%TO.P,J12,6*%
%TO.N,/G*%
X135680000Y-140190000D03*
%TO.P,J12,7*%
%TO.N,/Br{slash}*%
X134410000Y-137650000D03*
%TO.P,J12,8*%
%TO.N,/Br*%
X133140000Y-140190000D03*
%TD*%
D25*
%TO.P,C5,1*%
%TO.N,GND*%
X82370000Y-126870000D03*
%TO.P,C5,2*%
%TO.N,+24V*%
X82370000Y-128420000D03*
%TD*%
D26*
%TO.P,J10,1,Pin_1*%
%TO.N,GND*%
X150060000Y-165850000D03*
D18*
%TO.P,J10,2,Pin_2*%
X147560000Y-165850000D03*
%TO.P,J10,3,Pin_3*%
X145060000Y-165850000D03*
%TO.P,J10,4,Pin_4*%
X142560000Y-165850000D03*
%TD*%
D27*
%TO.P,J9,1,Pin_1*%
%TO.N,/pps*%
X138200714Y-171930000D03*
D28*
%TO.P,J9,2,Pin_2*%
%TO.N,GND*%
X138200714Y-174430000D03*
%TD*%
D27*
%TO.P,J8,1,Pin_1*%
%TO.N,/pps*%
X146461429Y-171930000D03*
D28*
%TO.P,J8,2,Pin_2*%
%TO.N,GND*%
X146461429Y-174430000D03*
%TD*%
D27*
%TO.P,J3,1,Pin_1*%
%TO.N,/pps*%
X122212143Y-174500000D03*
D28*
%TO.P,J3,2,Pin_2*%
%TO.N,GND*%
X122212143Y-177000000D03*
%TD*%
D27*
%TO.P,J5,1,Pin_1*%
%TO.N,/pps*%
X105690714Y-174500000D03*
D28*
%TO.P,J5,2,Pin_2*%
%TO.N,GND*%
X105690714Y-177000000D03*
%TD*%
D27*
%TO.P,J2,1,Pin_1*%
%TO.N,/pps*%
X129940000Y-171930000D03*
D28*
%TO.P,J2,2,Pin_2*%
%TO.N,GND*%
X129940000Y-174430000D03*
%TD*%
D29*
%TO.P,C7,1*%
%TO.N,GND*%
X94540000Y-129870000D03*
%TO.P,C7,2*%
%TO.N,Net-(U5-COMP)*%
X92990000Y-129870000D03*
%TD*%
D30*
%TO.P,U5,1,BOOT*%
%TO.N,Net-(U5-BOOT)*%
X85600000Y-127230000D03*
%TO.P,U5,2,VIN*%
%TO.N,+24V*%
X85600000Y-128500000D03*
%TO.P,U5,3,EN*%
%TO.N,unconnected-(U5-EN-Pad3)*%
X85600000Y-129770000D03*
%TO.P,U5,4,RT/CLK*%
%TO.N,Net-(U5-RT{slash}CLK)*%
X85600000Y-131040000D03*
%TO.P,U5,5,FB*%
%TO.N,/FB*%
X91000000Y-131040000D03*
%TO.P,U5,6,COMP*%
%TO.N,Net-(U5-COMP)*%
X91000000Y-129770000D03*
%TO.P,U5,7,GND*%
%TO.N,GND*%
X91000000Y-128500000D03*
%TO.P,U5,8,SW*%
%TO.N,Net-(D2-K)*%
X91000000Y-127230000D03*
D31*
%TO.P,U5,9,GNDPAD*%
%TO.N,GND*%
X88300000Y-129135000D03*
D32*
X88300000Y-129135000D03*
D33*
X88300000Y-129135000D03*
%TD*%
D34*
%TO.P,C11,1*%
%TO.N,+5V*%
X79980000Y-139840000D03*
%TO.P,C11,2*%
%TO.N,GND*%
X79980000Y-138290000D03*
%TD*%
D35*
%TO.P,C10,1*%
%TO.N,Net-(C10-Pad1)*%
X100500000Y-142500000D03*
D36*
%TO.P,C10,2*%
%TO.N,GND*%
X105500000Y-142500000D03*
%TD*%
D15*
%TO.P,J15,1,Pin_1*%
%TO.N,/pps_in*%
X90370000Y-177220000D03*
D16*
%TO.P,J15,2,Pin_2*%
X85370000Y-177220000D03*
%TO.P,J15,3,Pin_3*%
%TO.N,/gnss_TX*%
X80370000Y-177220000D03*
%TO.P,J15,4,Pin_4*%
X75370000Y-177220000D03*
%TD*%
D27*
%TO.P,J4,1,Pin_1*%
%TO.N,/pps*%
X113951429Y-174500000D03*
D28*
%TO.P,J4,2,Pin_2*%
%TO.N,GND*%
X113951429Y-177000000D03*
%TD*%
D25*
%TO.P,C9,1*%
%TO.N,Net-(C10-Pad1)*%
X94500000Y-136225000D03*
%TO.P,C9,2*%
%TO.N,GND*%
X94500000Y-137775000D03*
%TD*%
D37*
%TO.P,J13,1,Pin_1*%
%TO.N,/Br*%
X122290000Y-141170000D03*
D16*
%TO.P,J13,2,Pin_2*%
%TO.N,/Br{slash}*%
X122290000Y-136170000D03*
%TO.P,J13,3,Pin_3*%
%TO.N,/G*%
X122290000Y-131170000D03*
%TO.P,J13,4,Pin_4*%
%TO.N,/Bl{slash}*%
X122290000Y-126170000D03*
%TD*%
D25*
%TO.P,C6,1*%
%TO.N,GND*%
X79860000Y-126870000D03*
%TO.P,C6,2*%
%TO.N,+24V*%
X79860000Y-128420000D03*
%TD*%
D21*
%TO.P,R18,1*%
%TO.N,GND*%
X89350000Y-134000000D03*
%TO.P,R18,2*%
%TO.N,/FB*%
X91000000Y-134000000D03*
%TD*%
%TO.P,R17,1*%
%TO.N,/FB*%
X91000000Y-136000000D03*
%TO.P,R17,2*%
%TO.N,Net-(C10-Pad1)*%
X92650000Y-136000000D03*
%TD*%
D29*
%TO.P,C8,1*%
%TO.N,Net-(D2-K)*%
X89000000Y-124000000D03*
%TO.P,C8,2*%
%TO.N,Net-(U5-BOOT)*%
X87450000Y-124000000D03*
%TD*%
D38*
%TO.P,R4,1*%
%TO.N,GND*%
X83440000Y-132645000D03*
%TO.P,R4,2*%
%TO.N,Net-(U5-RT{slash}CLK)*%
X83440000Y-130995000D03*
%TD*%
D27*
%TO.P,J6,1,Pin_1*%
%TO.N,/pps*%
X97430000Y-174500000D03*
D28*
%TO.P,J6,2,Pin_2*%
%TO.N,GND*%
X97430000Y-177000000D03*
%TD*%
D27*
%TO.P,J7,1,Pin_1*%
%TO.N,/pps*%
X154722143Y-171930000D03*
D28*
%TO.P,J7,2,Pin_2*%
%TO.N,GND*%
X154722143Y-174430000D03*
%TD*%
D29*
%TO.P,C12,1*%
%TO.N,+3.3V*%
X71500000Y-147000000D03*
%TO.P,C12,2*%
%TO.N,GND*%
X69950000Y-147000000D03*
%TD*%
D39*
%TO.P,U2,1,PB12*%
%TO.N,unconnected-(U2-PB12-Pad1)*%
X71345450Y-167214600D03*
%TO.P,U2,2,PB13*%
%TO.N,unconnected-(U2-PB13-Pad2)*%
X73910850Y-167214600D03*
%TO.P,U2,3,PB14*%
%TO.N,unconnected-(U2-PB14-Pad3)*%
X76450850Y-167214600D03*
%TO.P,U2,4,PB15*%
%TO.N,unconnected-(U2-PB15-Pad4)*%
X78990850Y-167214600D03*
%TO.P,U2,5,PA8*%
%TO.N,/pps_in*%
X81530850Y-167214600D03*
%TO.P,U2,6,PA9*%
%TO.N,/pps*%
X84070850Y-167214600D03*
%TO.P,U2,7,PA10*%
%TO.N,unconnected-(U2-PA10-Pad7)*%
X86610850Y-167214600D03*
%TO.P,U2,8,PA11*%
%TO.N,unconnected-(U2-PA11-Pad8)*%
X89150850Y-167214600D03*
%TO.P,U2,9,PA12*%
%TO.N,unconnected-(U2-PA12-Pad9)*%
X91690850Y-167214600D03*
%TO.P,U2,10,PA15*%
%TO.N,unconnected-(U2-PA15-Pad10)*%
X94230850Y-167214600D03*
%TO.P,U2,11,PB3*%
%TO.N,unconnected-(U2-PB3-Pad11)*%
X96770850Y-167214600D03*
%TO.P,U2,12,PB4*%
%TO.N,unconnected-(U2-PB4-Pad12)*%
X99310850Y-167214600D03*
%TO.P,U2,13,PB5*%
%TO.N,unconnected-(U2-PB5-Pad13)*%
X101850850Y-167214600D03*
%TO.P,U2,14,PB6*%
%TO.N,/UART_TX*%
X104390850Y-167214600D03*
%TO.P,U2,15,PB7*%
%TO.N,/UART_RX*%
X106930850Y-167214600D03*
%TO.P,U2,16,PB8*%
%TO.N,unconnected-(U2-PB8-Pad16)*%
X109470850Y-167214600D03*
%TO.P,U2,17,PB9*%
%TO.N,unconnected-(U2-PB9-Pad17)*%
X112010850Y-167214600D03*
%TO.P,U2,18,5V*%
%TO.N,unconnected-(U2-5V-Pad18)*%
X114550850Y-167214600D03*
%TO.P,U2,19,GND*%
%TO.N,GND*%
X117090850Y-167214600D03*
%TO.P,U2,20,3V3*%
%TO.N,+3.3V*%
X119630850Y-167214600D03*
%TO.P,U2,21,VBAT*%
X119620000Y-152000000D03*
%TO.P,U2,22,PC13*%
%TO.N,unconnected-(U2-PC13-Pad22)*%
X117080000Y-152000000D03*
%TO.P,U2,23,PC14*%
%TO.N,unconnected-(U2-PC14-Pad23)*%
X114540000Y-152000000D03*
%TO.P,U2,24,PC15*%
%TO.N,unconnected-(U2-PC15-Pad24)*%
X112000000Y-152000000D03*
%TO.P,U2,25,PA0*%
%TO.N,unconnected-(U2-PA0-Pad25)*%
X109460000Y-152000000D03*
%TO.P,U2,26,PA1*%
%TO.N,unconnected-(U2-PA1-Pad26)*%
X106920000Y-152000000D03*
%TO.P,U2,27,PA2*%
%TO.N,unconnected-(U2-PA2-Pad27)*%
X104380000Y-152000000D03*
%TO.P,U2,28,PA3*%
%TO.N,unconnected-(U2-PA3-Pad28)*%
X101840000Y-152000000D03*
%TO.P,U2,29,PA4*%
%TO.N,unconnected-(U2-PA4-Pad29)*%
X99300000Y-152000000D03*
%TO.P,U2,30,PA5*%
%TO.N,unconnected-(U2-PA5-Pad30)*%
X96760000Y-152000000D03*
%TO.P,U2,31,PA6*%
%TO.N,unconnected-(U2-PA6-Pad31)*%
X94220000Y-152000000D03*
%TO.P,U2,32,PA7*%
%TO.N,unconnected-(U2-PA7-Pad32)*%
X91680000Y-152000000D03*
%TO.P,U2,33,PB0*%
%TO.N,unconnected-(U2-PB0-Pad33)*%
X89140000Y-152000000D03*
%TO.P,U2,34,PB1*%
%TO.N,unconnected-(U2-PB1-Pad34)*%
X86600000Y-152000000D03*
%TO.P,U2,35,PB10*%
%TO.N,unconnected-(U2-PB10-Pad35)*%
X84060000Y-152000000D03*
%TO.P,U2,36,PB11*%
%TO.N,unconnected-(U2-PB11-Pad36)*%
X81520000Y-152000000D03*
%TO.P,U2,37,NRST*%
%TO.N,unconnected-(U2-NRST-Pad37)*%
X78980000Y-152000000D03*
%TO.P,U2,38,3V3*%
%TO.N,+3.3V*%
X76440000Y-152000000D03*
%TO.P,U2,39,GND*%
%TO.N,GND*%
X73900000Y-152000000D03*
%TO.P,U2,40,GND*%
X71360000Y-152000000D03*
%TD*%
D40*
%TO.N,+24V*%
X85600000Y-128500000D02*
X74000000Y-128500000D01*
D41*
%TO.N,Net-(U5-COMP)*%
X92770000Y-129770000D02*
X91000000Y-129770000D01*
X93000000Y-130000000D02*
X92770000Y-129770000D01*
D42*
%TO.N,Net-(D2-K)*%
X91000000Y-127230000D02*
X90770000Y-127230000D01*
D40*
X91000000Y-127230000D02*
X91020000Y-127250000D01*
X99750000Y-127250000D02*
X100000000Y-127500000D01*
X100000000Y-130800000D02*
X100000000Y-127500000D01*
X91020000Y-127250000D02*
X99750000Y-127250000D01*
D42*
X89000000Y-125460000D02*
X89000000Y-124000000D01*
X90770000Y-127230000D02*
X89000000Y-125460000D01*
%TO.N,Net-(U5-BOOT)*%
X87450000Y-125610000D02*
X85600000Y-127460000D01*
X87450000Y-124000000D02*
X87450000Y-125610000D01*
D40*
%TO.N,Net-(C10-Pad1)*%
X100000000Y-142000000D02*
X100500000Y-142500000D01*
X92650000Y-136000000D02*
X94275000Y-136000000D01*
X100000000Y-137200000D02*
X100000000Y-142000000D01*
X96200000Y-137200000D02*
X95225000Y-136225000D01*
D42*
X94275000Y-136000000D02*
X94500000Y-136225000D01*
D40*
X100000000Y-143000000D02*
X100500000Y-142500000D01*
X98000000Y-143000000D02*
X100000000Y-143000000D01*
X95225000Y-136225000D02*
X94500000Y-136225000D01*
X100000000Y-137200000D02*
X96200000Y-137200000D01*
D41*
%TO.N,+5V*%
X98850000Y-145500000D02*
X96350000Y-143000000D01*
X133000000Y-163000000D02*
X135034400Y-160965600D01*
D40*
X90750000Y-143475000D02*
X83250000Y-143475000D01*
D41*
X135034400Y-151034400D02*
X129500000Y-145500000D01*
X129500000Y-145500000D02*
X98850000Y-145500000D01*
D40*
X77719150Y-139700000D02*
X79475000Y-139700000D01*
D41*
X129000000Y-163000000D02*
X133000000Y-163000000D01*
D40*
X79475000Y-139700000D02*
X83250000Y-143475000D01*
D41*
X135034400Y-160965600D02*
X135034400Y-151034400D01*
D40*
X96350000Y-143000000D02*
X91225000Y-143000000D01*
X91225000Y-143000000D02*
X90750000Y-143475000D01*
%TO.N,+3.3V*%
X71419150Y-145061750D02*
X71419150Y-142000000D01*
D42*
X125215050Y-161630400D02*
X119630850Y-167214600D01*
X114620000Y-147000000D02*
X129500000Y-147000000D01*
D40*
X71419150Y-146979150D02*
X76440000Y-152000000D01*
X71500000Y-145142600D02*
X71419150Y-145061750D01*
D42*
X133000000Y-159500000D02*
X130869600Y-161630400D01*
X130869600Y-161630400D02*
X125215050Y-161630400D01*
D40*
X77719150Y-142000000D02*
X71419150Y-142000000D01*
D42*
X133000000Y-150500000D02*
X133000000Y-159500000D01*
D40*
X71500000Y-147000000D02*
X71500000Y-145142600D01*
X71500000Y-147000000D02*
X114620000Y-147000000D01*
D42*
X114620000Y-147000000D02*
X119620000Y-152000000D01*
X129500000Y-147000000D02*
X133000000Y-150500000D01*
D41*
%TO.N,/pps*%
X125270000Y-170400000D02*
X127290000Y-168380000D01*
X117250000Y-170400000D02*
X122550000Y-170400000D01*
D42*
X138200714Y-171930000D02*
X138200714Y-168539286D01*
X154722143Y-171930000D02*
X154722143Y-168952143D01*
D41*
X122550000Y-170400000D02*
X125270000Y-170400000D01*
D42*
X97430000Y-174500000D02*
X97430000Y-170415000D01*
X122212143Y-174500000D02*
X122212143Y-170477143D01*
X129940000Y-171930000D02*
X129940000Y-168380000D01*
D41*
X130420000Y-168380000D02*
X138360000Y-168380000D01*
D42*
X113951429Y-174500000D02*
X113951429Y-170533571D01*
D41*
X154150000Y-168380000D02*
X154160000Y-168390000D01*
D42*
X105690714Y-174500000D02*
X105690714Y-170535714D01*
X146461429Y-168388571D02*
X146470000Y-168380000D01*
D41*
X117250000Y-170400000D02*
X87256250Y-170400000D01*
X87256250Y-170400000D02*
X84070850Y-167214600D01*
X127290000Y-168380000D02*
X130420000Y-168380000D01*
D42*
X154722143Y-168952143D02*
X154160000Y-168390000D01*
X129940000Y-168380000D02*
X130420000Y-168380000D01*
X146461429Y-171930000D02*
X146461429Y-168388571D01*
X138200714Y-168539286D02*
X138360000Y-168380000D01*
D41*
X138360000Y-168380000D02*
X146470000Y-168380000D01*
X146470000Y-168380000D02*
X154150000Y-168380000D01*
%TO.N,/Bl*%
X139200000Y-151620000D02*
X138070000Y-150490000D01*
X138070000Y-140340000D02*
X138220000Y-140190000D01*
X138070000Y-150490000D02*
X138070000Y-140340000D01*
%TO.N,/Br*%
X133140000Y-140190000D02*
X123270000Y-140190000D01*
X123270000Y-140190000D02*
X122290000Y-141170000D01*
%TO.N,/Br{slash}*%
X123770000Y-137650000D02*
X122290000Y-136170000D01*
X134410000Y-137650000D02*
X123770000Y-137650000D01*
%TO.N,/G*%
X135680000Y-137283189D02*
X131805811Y-133409000D01*
X135680000Y-140190000D02*
X135680000Y-137283189D01*
X124529000Y-133409000D02*
X122290000Y-131170000D01*
X131805811Y-133409000D02*
X124529000Y-133409000D01*
%TO.N,/O{slash}*%
X142030000Y-137650000D02*
X142030000Y-139450000D01*
X142030000Y-139450000D02*
X154200000Y-151620000D01*
%TO.N,/Bl{slash}*%
X136950000Y-137650000D02*
X136950000Y-133397424D01*
X136950000Y-133397424D02*
X129722576Y-126170000D01*
X129722576Y-126170000D02*
X122290000Y-126170000D01*
%TO.N,/G{slash}*%
X139490000Y-146910000D02*
X144200000Y-151620000D01*
X139490000Y-137650000D02*
X139490000Y-146910000D01*
%TO.N,/O*%
X140760000Y-143180000D02*
X149200000Y-151620000D01*
X140760000Y-140190000D02*
X140760000Y-143180000D01*
D43*
%TO.N,/gnss_TX*%
X80370000Y-177220000D02*
X75370000Y-177220000D01*
%TO.N,/pps_in*%
X85370000Y-177220000D02*
X90370000Y-177220000D01*
X81530850Y-173380850D02*
X85370000Y-177220000D01*
X81530850Y-167214600D02*
X81530850Y-173380850D01*
D42*
%TO.N,/UART_RX*%
X113645450Y-160500000D02*
X129000000Y-160500000D01*
X106930850Y-167214600D02*
X113645450Y-160500000D01*
%TO.N,/UART_TX*%
X113605450Y-158000000D02*
X129000000Y-158000000D01*
X104390850Y-167214600D02*
X113605450Y-158000000D01*
D40*
%TO.N,Net-(U5-RT{slash}CLK)*%
X85600000Y-131040000D02*
X83485000Y-131040000D01*
X83485000Y-131040000D02*
X83440000Y-130995000D01*
%TO.N,/FB*%
X91000000Y-131270000D02*
X91000000Y-134000000D01*
X91000000Y-134000000D02*
X91000000Y-136000000D01*
%TD*%
%TA.AperFunction,Conductor*%
%TO.N,GND*%
G36*
X150001125Y-122000534D02*
G01*
X150543260Y-122016916D01*
X150545496Y-122017019D01*
X150672207Y-122024992D01*
X150674250Y-122025149D01*
X151151442Y-122068513D01*
X151153965Y-122068786D01*
X151276498Y-122084266D01*
X151278259Y-122084511D01*
X151756141Y-122157243D01*
X151758831Y-122157704D01*
X151874249Y-122179721D01*
X151875793Y-122180034D01*
X152354822Y-122282863D01*
X152357668Y-122283534D01*
X152462636Y-122310485D01*
X152464096Y-122310876D01*
X152945214Y-122444998D01*
X152948177Y-122445893D01*
X153038839Y-122475351D01*
X153039926Y-122475714D01*
X153524949Y-122643084D01*
X153528018Y-122644222D01*
X153599252Y-122672425D01*
X153600241Y-122672825D01*
X154091809Y-122876439D01*
X154094956Y-122877830D01*
X154139884Y-122898972D01*
X154140639Y-122899334D01*
X154643549Y-123144202D01*
X154646810Y-123145890D01*
X154654640Y-123150195D01*
X154655217Y-123150517D01*
X155171145Y-123441501D01*
X155175012Y-123443839D01*
X155593081Y-123714141D01*
X155678453Y-123769338D01*
X155682191Y-123771918D01*
X156165053Y-124127215D01*
X156168616Y-124130006D01*
X156629168Y-124513827D01*
X156632547Y-124516822D01*
X156779691Y-124655335D01*
X157069059Y-124927728D01*
X157072271Y-124930940D01*
X157483176Y-125367451D01*
X157486174Y-125370834D01*
X157845695Y-125802227D01*
X157869983Y-125831370D01*
X157872784Y-125834946D01*
X158228081Y-126317808D01*
X158230661Y-126321546D01*
X158556154Y-126824977D01*
X158558504Y-126828865D01*
X158849476Y-127344772D01*
X158849874Y-127345485D01*
X158854088Y-127353150D01*
X158855801Y-127356459D01*
X159100620Y-127859267D01*
X159101052Y-127860168D01*
X159113612Y-127886859D01*
X159121658Y-127903958D01*
X159122147Y-127904996D01*
X159123577Y-127908230D01*
X159162618Y-128002484D01*
X159327152Y-128399706D01*
X159327595Y-128400801D01*
X159355761Y-128471939D01*
X159356929Y-128475092D01*
X159524252Y-128959977D01*
X159524684Y-128961269D01*
X159554093Y-129051781D01*
X159555012Y-129054825D01*
X159689118Y-129535888D01*
X159689517Y-129537380D01*
X159716455Y-129642294D01*
X159717143Y-129645213D01*
X159819948Y-130124130D01*
X159820291Y-130125822D01*
X159842286Y-130241124D01*
X159842762Y-130243900D01*
X159915478Y-130721675D01*
X159915741Y-130723564D01*
X159915741Y-130723565D01*
X159931206Y-130845984D01*
X159931490Y-130848604D01*
X159974847Y-131325735D01*
X159975008Y-131327817D01*
X159982973Y-131454394D01*
X159983087Y-131456846D01*
X159999466Y-131998874D01*
X159999500Y-132001145D01*
X159999500Y-177998854D01*
X159999466Y-178001125D01*
X159983087Y-178543152D01*
X159982973Y-178545604D01*
X159975008Y-178672181D01*
X159974847Y-178674263D01*
X159931490Y-179151394D01*
X159931206Y-179154014D01*
X159915741Y-179276433D01*
X159915478Y-179278323D01*
X159842762Y-179756098D01*
X159842286Y-179758874D01*
X159820291Y-179874176D01*
X159819948Y-179875868D01*
X159717143Y-180354785D01*
X159716455Y-180357704D01*
X159689517Y-180462618D01*
X159689118Y-180464110D01*
X159555012Y-180945173D01*
X159554093Y-180948217D01*
X159524684Y-181038729D01*
X159524252Y-181040021D01*
X159356929Y-181524906D01*
X159355761Y-181528059D01*
X159327595Y-181599197D01*
X159327152Y-181600292D01*
X159123580Y-182091761D01*
X159122147Y-182095002D01*
X159101058Y-182139817D01*
X159100626Y-182140718D01*
X158855801Y-182643539D01*
X158854090Y-182646844D01*
X158849876Y-182654510D01*
X158849476Y-182655227D01*
X158558504Y-183171134D01*
X158556154Y-183175022D01*
X158230661Y-183678453D01*
X158228081Y-183682191D01*
X157872784Y-184165053D01*
X157869983Y-184168629D01*
X157486189Y-184629148D01*
X157483176Y-184632548D01*
X157072271Y-185069059D01*
X157069059Y-185072271D01*
X156632548Y-185483176D01*
X156629148Y-185486189D01*
X156168629Y-185869983D01*
X156165053Y-185872784D01*
X155682191Y-186228081D01*
X155678453Y-186230661D01*
X155175022Y-186556154D01*
X155171134Y-186558504D01*
X154655227Y-186849476D01*
X154654510Y-186849876D01*
X154646844Y-186854090D01*
X154643539Y-186855801D01*
X154140718Y-187100626D01*
X154139817Y-187101058D01*
X154095002Y-187122147D01*
X154091761Y-187123580D01*
X153600292Y-187327152D01*
X153599197Y-187327595D01*
X153528059Y-187355761D01*
X153524906Y-187356929D01*
X153040021Y-187524252D01*
X153038729Y-187524684D01*
X152948217Y-187554093D01*
X152945173Y-187555012D01*
X152464110Y-187689118D01*
X152462618Y-187689517D01*
X152357704Y-187716455D01*
X152354785Y-187717143D01*
X151875868Y-187819948D01*
X151874176Y-187820291D01*
X151758874Y-187842286D01*
X151756098Y-187842762D01*
X151278323Y-187915478D01*
X151276433Y-187915741D01*
X151154014Y-187931206D01*
X151151394Y-187931490D01*
X150674263Y-187974847D01*
X150672181Y-187975008D01*
X150545604Y-187982973D01*
X150543152Y-187983087D01*
X150001125Y-187999466D01*
X149998854Y-187999500D01*
X70501146Y-187999500D01*
X70498875Y-187999466D01*
X69956846Y-187983087D01*
X69954394Y-187982973D01*
X69827817Y-187975008D01*
X69825735Y-187974847D01*
X69348604Y-187931490D01*
X69345984Y-187931206D01*
X69223565Y-187915741D01*
X69221675Y-187915478D01*
X68743900Y-187842762D01*
X68741124Y-187842286D01*
X68625822Y-187820291D01*
X68624130Y-187819948D01*
X68145213Y-187717143D01*
X68142294Y-187716455D01*
X68037380Y-187689517D01*
X68035888Y-187689118D01*
X67554825Y-187555012D01*
X67551781Y-187554093D01*
X67461269Y-187524684D01*
X67459977Y-187524252D01*
X66975092Y-187356929D01*
X66971939Y-187355761D01*
X66900801Y-187327595D01*
X66899706Y-187327152D01*
X66408237Y-187123580D01*
X66404996Y-187122147D01*
X66360181Y-187101058D01*
X66359280Y-187100626D01*
X65856459Y-186855801D01*
X65853154Y-186854090D01*
X65845463Y-186849862D01*
X65844772Y-186849476D01*
X65328865Y-186558504D01*
X65324977Y-186556154D01*
X64821546Y-186230661D01*
X64817808Y-186228081D01*
X64334946Y-185872784D01*
X64331378Y-185869989D01*
X63870834Y-185486174D01*
X63867451Y-185483176D01*
X63430940Y-185072271D01*
X63427728Y-185069059D01*
X63016823Y-184632548D01*
X63013827Y-184629168D01*
X62630006Y-184168616D01*
X62627215Y-184165053D01*
X62271918Y-183682191D01*
X62269338Y-183678453D01*
X62222091Y-183605377D01*
X61943839Y-183175012D01*
X61941495Y-183171134D01*
X61699786Y-182742574D01*
X61650517Y-182655217D01*
X61650195Y-182654640D01*
X61645890Y-182646810D01*
X61644197Y-182643539D01*
X61456696Y-182258450D01*
X64585500Y-182258450D01*
X64585500Y-182501550D01*
X64617231Y-182742571D01*
X64663442Y-182915034D01*
X64680151Y-182977390D01*
X64680151Y-182977391D01*
X64773181Y-183201985D01*
X64894732Y-183412518D01*
X64909865Y-183432239D01*
X65042722Y-183605380D01*
X65042727Y-183605385D01*
X65042734Y-183605393D01*
X65214606Y-183777265D01*
X65214614Y-183777272D01*
X65214620Y-183777278D01*
X65407484Y-183925269D01*
X65618016Y-184046819D01*
X65842612Y-184139850D01*
X66077429Y-184202769D01*
X66318450Y-184234500D01*
X66318453Y-184234500D01*
X66561547Y-184234500D01*
X66561550Y-184234500D01*
X66802571Y-184202769D01*
X67037388Y-184139850D01*
X67261984Y-184046819D01*
X67472516Y-183925269D01*
X67665380Y-183777278D01*
X67837278Y-183605380D01*
X67985269Y-183412516D01*
X68106819Y-183201984D01*
X68199850Y-182977388D01*
X68262769Y-182742571D01*
X68294500Y-182501550D01*
X68294500Y-182258450D01*
X151855500Y-182258450D01*
X151855500Y-182501550D01*
X151887231Y-182742571D01*
X151933442Y-182915034D01*
X151950151Y-182977390D01*
X151950151Y-182977391D01*
X152043181Y-183201985D01*
X152164732Y-183412518D01*
X152179865Y-183432239D01*
X152312722Y-183605380D01*
X152312727Y-183605385D01*
X152312734Y-183605393D01*
X152484606Y-183777265D01*
X152484614Y-183777272D01*
X152484620Y-183777278D01*
X152677484Y-183925269D01*
X152888016Y-184046819D01*
X153112612Y-184139850D01*
X153347429Y-184202769D01*
X153588450Y-184234500D01*
X153588453Y-184234500D01*
X153831547Y-184234500D01*
X153831550Y-184234500D01*
X154072571Y-184202769D01*
X154307388Y-184139850D01*
X154531984Y-184046819D01*
X154742516Y-183925269D01*
X154935380Y-183777278D01*
X155107278Y-183605380D01*
X155255269Y-183412516D01*
X155376819Y-183201984D01*
X155469850Y-182977388D01*
X155532769Y-182742571D01*
X155564500Y-182501550D01*
X155564500Y-182258450D01*
X155532769Y-182017429D01*
X155469850Y-181782612D01*
X155376819Y-181558016D01*
X155359523Y-181528059D01*
X155255267Y-181347481D01*
X155190963Y-181263680D01*
X155107278Y-181154620D01*
X155107272Y-181154614D01*
X155107265Y-181154606D01*
X154935393Y-180982734D01*
X154935385Y-180982727D01*
X154935380Y-180982722D01*
X154865763Y-180929302D01*
X154742518Y-180834732D01*
X154531985Y-180713181D01*
X154307391Y-180620151D01*
X154307389Y-180620150D01*
X154307388Y-180620150D01*
X154072571Y-180557231D01*
X153831550Y-180525500D01*
X153588450Y-180525500D01*
X153347429Y-180557231D01*
X153347425Y-180557232D01*
X153347424Y-180557232D01*
X153198557Y-180597121D01*
X153112612Y-180620150D01*
X153112610Y-180620150D01*
X153112609Y-180620151D01*
X153112608Y-180620151D01*
X152888014Y-180713181D01*
X152677481Y-180834732D01*
X152484622Y-180982720D01*
X152484606Y-180982734D01*
X152312734Y-181154606D01*
X152312720Y-181154622D01*
X152164732Y-181347481D01*
X152043181Y-181558014D01*
X151950151Y-181782608D01*
X151950151Y-181782609D01*
X151950150Y-181782612D01*
X151887231Y-182017429D01*
X151855500Y-182258450D01*
X68294500Y-182258450D01*
X68262769Y-182017429D01*
X68199850Y-181782612D01*
X68106819Y-181558016D01*
X68089523Y-181528059D01*
X67985267Y-181347481D01*
X67920963Y-181263680D01*
X67837278Y-181154620D01*
X67837272Y-181154614D01*
X67837265Y-181154606D01*
X67665393Y-180982734D01*
X67665385Y-180982727D01*
X67665380Y-180982722D01*
X67595763Y-180929302D01*
X67472518Y-180834732D01*
X67261985Y-180713181D01*
X67037391Y-180620151D01*
X67037389Y-180620150D01*
X67037388Y-180620150D01*
X66802571Y-180557231D01*
X66561550Y-180525500D01*
X66318450Y-180525500D01*
X66077429Y-180557231D01*
X66077425Y-180557232D01*
X66077424Y-180557232D01*
X65928557Y-180597121D01*
X65842612Y-180620150D01*
X65842610Y-180620150D01*
X65842609Y-180620151D01*
X65842608Y-180620151D01*
X65618014Y-180713181D01*
X65407481Y-180834732D01*
X65214622Y-180982720D01*
X65214606Y-180982734D01*
X65042734Y-181154606D01*
X65042720Y-181154622D01*
X64894732Y-181347481D01*
X64773181Y-181558014D01*
X64680151Y-181782608D01*
X64680151Y-181782609D01*
X64680150Y-181782612D01*
X64617231Y-182017429D01*
X64585500Y-182258450D01*
X61456696Y-182258450D01*
X61399334Y-182140639D01*
X61398972Y-182139884D01*
X61377830Y-182094956D01*
X61376439Y-182091809D01*
X61172826Y-181600242D01*
X61172403Y-181599197D01*
X61144222Y-181528018D01*
X61143084Y-181524949D01*
X60975714Y-181039926D01*
X60975351Y-181038839D01*
X60945893Y-180948177D01*
X60944998Y-180945214D01*
X60810876Y-180464096D01*
X60810481Y-180462618D01*
X60783534Y-180357668D01*
X60782863Y-180354822D01*
X60680034Y-179875793D01*
X60679721Y-179874249D01*
X60657704Y-179758831D01*
X60657243Y-179756141D01*
X60584511Y-179278259D01*
X60584266Y-179276498D01*
X60568786Y-179153965D01*
X60568513Y-179151442D01*
X60525149Y-178674250D01*
X60524990Y-178672181D01*
X60524169Y-178659129D01*
X60517019Y-178545496D01*
X60516916Y-178543260D01*
X60500534Y-178001125D01*
X60500500Y-177998854D01*
X60500500Y-177097781D01*
X73817100Y-177097781D01*
X73817100Y-177342218D01*
X73855335Y-177583630D01*
X73855338Y-177583642D01*
X73930870Y-177816106D01*
X74041843Y-178033901D01*
X74185510Y-178231642D01*
X74185522Y-178231656D01*
X74358343Y-178404477D01*
X74358357Y-178404489D01*
X74556098Y-178548156D01*
X74556100Y-178548157D01*
X74556103Y-178548159D01*
X74773893Y-178659129D01*
X75006362Y-178734663D01*
X75247784Y-178772900D01*
X75247788Y-178772900D01*
X75492212Y-178772900D01*
X75492216Y-178772900D01*
X75733638Y-178734663D01*
X75966107Y-178659129D01*
X76183897Y-178548159D01*
X76381647Y-178404486D01*
X76554486Y-178231647D01*
X76579628Y-178197042D01*
X76602255Y-178165899D01*
X76644900Y-178137134D01*
X76663093Y-178134900D01*
X79076907Y-178134900D01*
X79125245Y-178152493D01*
X79137745Y-178165899D01*
X79185507Y-178231639D01*
X79185518Y-178231652D01*
X79358343Y-178404477D01*
X79358357Y-178404489D01*
X79556098Y-178548156D01*
X79556100Y-178548157D01*
X79556103Y-178548159D01*
X79773893Y-178659129D01*
X80006362Y-178734663D01*
X80247784Y-178772900D01*
X80247788Y-178772900D01*
X80492212Y-178772900D01*
X80492216Y-178772900D01*
X80733638Y-178734663D01*
X80966107Y-178659129D01*
X81183897Y-178548159D01*
X81381647Y-178404486D01*
X81554486Y-178231647D01*
X81698159Y-178033897D01*
X81809129Y-177816107D01*
X81884663Y-177583638D01*
X81922900Y-177342216D01*
X81922900Y-177097784D01*
X81884663Y-176856362D01*
X81809129Y-176623893D01*
X81698159Y-176406103D01*
X81698157Y-176406100D01*
X81698156Y-176406098D01*
X81554489Y-176208357D01*
X81554477Y-176208343D01*
X81381656Y-176035522D01*
X81381642Y-176035510D01*
X81183901Y-175891843D01*
X80966106Y-175780870D01*
X80733642Y-175705338D01*
X80733630Y-175705335D01*
X80492218Y-175667100D01*
X80492216Y-175667100D01*
X80247784Y-175667100D01*
X80247781Y-175667100D01*
X80006369Y-175705335D01*
X80006357Y-175705338D01*
X79773893Y-175780870D01*
X79556098Y-175891843D01*
X79358357Y-176035510D01*
X79358343Y-176035522D01*
X79185518Y-176208347D01*
X79185507Y-176208360D01*
X79137745Y-176274101D01*
X79095100Y-176302866D01*
X79076907Y-176305100D01*
X76663093Y-176305100D01*
X76614755Y-176287507D01*
X76602255Y-176274101D01*
X76554492Y-176208360D01*
X76554481Y-176208347D01*
X76381656Y-176035522D01*
X76381642Y-176035510D01*
X76183901Y-175891843D01*
X75966106Y-175780870D01*
X75733642Y-175705338D01*
X75733630Y-175705335D01*
X75492218Y-175667100D01*
X75492216Y-175667100D01*
X75247784Y-175667100D01*
X75247781Y-175667100D01*
X75006369Y-175705335D01*
X75006357Y-175705338D01*
X74773893Y-175780870D01*
X74556098Y-175891843D01*
X74358357Y-176035510D01*
X74358343Y-176035522D01*
X74185522Y-176208343D01*
X74185510Y-176208357D01*
X74041843Y-176406098D01*
X73930870Y-176623893D01*
X73855338Y-176856357D01*
X73855335Y-176856369D01*
X73817100Y-177097781D01*
X60500500Y-177097781D01*
X60500500Y-167123862D01*
X70192550Y-167123862D01*
X70192550Y-167305337D01*
X70220936Y-167484563D01*
X70220938Y-167484571D01*
X70277016Y-167657160D01*
X70359401Y-167818851D01*
X70448303Y-167941213D01*
X70466068Y-167965665D01*
X70466075Y-167965673D01*
X70594376Y-168093974D01*
X70594384Y-168093981D01*
X70594386Y-168093983D01*
X70741199Y-168200649D01*
X70902890Y-168283034D01*
X71075479Y-168339112D01*
X71254715Y-168367500D01*
X71254719Y-168367500D01*
X71436181Y-168367500D01*
X71436185Y-168367500D01*
X71615421Y-168339112D01*
X71788010Y-168283034D01*
X71949701Y-168200649D01*
X72096514Y-168093983D01*
X72224833Y-167965664D01*
X72331499Y-167818851D01*
X72413884Y-167657160D01*
X72469962Y-167484571D01*
X72498350Y-167305335D01*
X72498350Y-167123865D01*
X72498350Y-167123862D01*
X72757950Y-167123862D01*
X72757950Y-167305337D01*
X72786336Y-167484563D01*
X72786338Y-167484571D01*
X72842416Y-167657160D01*
X72924801Y-167818851D01*
X73013703Y-167941213D01*
X73031468Y-167965665D01*
X73031475Y-167965673D01*
X73159776Y-168093974D01*
X73159784Y-168093981D01*
X73159786Y-168093983D01*
X73306599Y-168200649D01*
X73468290Y-168283034D01*
X73640879Y-168339112D01*
X73820115Y-168367500D01*
X73820119Y-168367500D01*
X74001581Y-168367500D01*
X74001585Y-168367500D01*
X74180821Y-168339112D01*
X74353410Y-168283034D01*
X74515101Y-168200649D01*
X74661914Y-168093983D01*
X74790233Y-167965664D01*
X74896899Y-167818851D01*
X74979284Y-167657160D01*
X75035362Y-167484571D01*
X75063750Y-167305335D01*
X75063750Y-167123865D01*
X75063750Y-167123862D01*
X75297950Y-167123862D01*
X75297950Y-167305337D01*
X75326336Y-167484563D01*
X75326338Y-167484571D01*
X75382416Y-167657160D01*
X75464801Y-167818851D01*
X75553703Y-167941213D01*
X75571468Y-167965665D01*
X75571475Y-167965673D01*
X75699776Y-168093974D01*
X75699784Y-168093981D01*
X75699786Y-168093983D01*
X75846599Y-168200649D01*
X76008290Y-168283034D01*
X76180879Y-168339112D01*
X76360115Y-168367500D01*
X76360119Y-168367500D01*
X76541581Y-168367500D01*
X76541585Y-168367500D01*
X76720821Y-168339112D01*
X76893410Y-168283034D01*
X77055101Y-168200649D01*
X77201914Y-168093983D01*
X77330233Y-167965664D01*
X77436899Y-167818851D01*
X77519284Y-167657160D01*
X77575362Y-167484571D01*
X77603750Y-167305335D01*
X77603750Y-167123865D01*
X77603750Y-167123862D01*
X77837950Y-167123862D01*
X77837950Y-167305337D01*
X77866336Y-167484563D01*
X77866338Y-167484571D01*
X77922416Y-167657160D01*
X78004801Y-167818851D01*
X78093703Y-167941213D01*
X78111468Y-167965665D01*
X78111475Y-167965673D01*
X78239776Y-168093974D01*
X78239784Y-168093981D01*
X78239786Y-168093983D01*
X78386599Y-168200649D01*
X78548290Y-168283034D01*
X78720879Y-168339112D01*
X78900115Y-168367500D01*
X78900119Y-168367500D01*
X79081581Y-168367500D01*
X79081585Y-168367500D01*
X79260821Y-168339112D01*
X79433410Y-168283034D01*
X79595101Y-168200649D01*
X79741914Y-168093983D01*
X79870233Y-167965664D01*
X79976899Y-167818851D01*
X80059284Y-167657160D01*
X80115362Y-167484571D01*
X80143750Y-167305335D01*
X80143750Y-167123865D01*
X80143750Y-167123862D01*
X80377950Y-167123862D01*
X80377950Y-167305337D01*
X80406336Y-167484563D01*
X80406338Y-167484571D01*
X80462416Y-167657160D01*
X80462418Y-167657163D01*
X80544802Y-167818852D01*
X80601588Y-167897011D01*
X80615950Y-167941213D01*
X80615950Y-173470960D01*
X80651109Y-173647719D01*
X80651110Y-173647720D01*
X80691510Y-173745253D01*
X80720076Y-173814218D01*
X80786709Y-173913941D01*
X80820051Y-173963841D01*
X80820203Y-173964068D01*
X80820205Y-173964070D01*
X83808713Y-176952577D01*
X83830453Y-176999197D01*
X83829813Y-177017514D01*
X83817100Y-177097779D01*
X83817100Y-177342218D01*
X83855335Y-177583630D01*
X83855338Y-177583642D01*
X83930870Y-177816106D01*
X84041843Y-178033901D01*
X84185510Y-178231642D01*
X84185522Y-178231656D01*
X84358343Y-178404477D01*
X84358357Y-178404489D01*
X84556098Y-178548156D01*
X84556100Y-178548157D01*
X84556103Y-178548159D01*
X84773893Y-178659129D01*
X85006362Y-178734663D01*
X85247784Y-178772900D01*
X85247788Y-178772900D01*
X85492212Y-178772900D01*
X85492216Y-178772900D01*
X85733638Y-178734663D01*
X85966107Y-178659129D01*
X86183897Y-178548159D01*
X86381647Y-178404486D01*
X86554486Y-178231647D01*
X86579628Y-178197042D01*
X86602255Y-178165899D01*
X86644900Y-178137134D01*
X86663093Y-178134900D01*
X88741901Y-178134900D01*
X88790239Y-178152493D01*
X88815959Y-178197042D01*
X88817101Y-178210100D01*
X88817101Y-178401712D01*
X88832041Y-178496049D01*
X88832042Y-178496051D01*
X88832042Y-178496052D01*
X88832043Y-178496054D01*
X88889984Y-178609770D01*
X88980230Y-178700016D01*
X89093944Y-178757956D01*
X89093946Y-178757957D01*
X89188293Y-178772900D01*
X91551706Y-178772899D01*
X91569917Y-178770014D01*
X91646049Y-178757958D01*
X91646049Y-178757957D01*
X91646054Y-178757957D01*
X91759770Y-178700016D01*
X91850016Y-178609770D01*
X91907957Y-178496054D01*
X91922900Y-178401707D01*
X91922899Y-176038294D01*
X91907957Y-175943946D01*
X91850016Y-175830230D01*
X91759770Y-175739984D01*
X91646054Y-175682043D01*
X91646056Y-175682043D01*
X91598880Y-175674571D01*
X91551707Y-175667100D01*
X91551705Y-175667100D01*
X89188299Y-175667100D01*
X89188287Y-175667101D01*
X89093950Y-175682041D01*
X89093948Y-175682042D01*
X88980229Y-175739984D01*
X88889984Y-175830229D01*
X88832043Y-175943944D01*
X88817100Y-176038290D01*
X88817100Y-176229900D01*
X88799507Y-176278238D01*
X88754958Y-176303958D01*
X88741900Y-176305100D01*
X86663093Y-176305100D01*
X86614755Y-176287507D01*
X86602255Y-176274101D01*
X86554492Y-176208360D01*
X86554481Y-176208347D01*
X86381656Y-176035522D01*
X86381642Y-176035510D01*
X86183901Y-175891843D01*
X85966106Y-175780870D01*
X85733642Y-175705338D01*
X85733630Y-175705335D01*
X85492218Y-175667100D01*
X85492216Y-175667100D01*
X85247784Y-175667100D01*
X85247779Y-175667100D01*
X85167514Y-175679813D01*
X85117020Y-175669998D01*
X85102577Y-175658713D01*
X82467776Y-173023912D01*
X82446036Y-172977292D01*
X82445750Y-172970738D01*
X82445750Y-167941213D01*
X82460112Y-167897011D01*
X82516899Y-167818851D01*
X82599284Y-167657160D01*
X82655362Y-167484571D01*
X82683750Y-167305335D01*
X82683750Y-167123865D01*
X82683750Y-167123862D01*
X82917950Y-167123862D01*
X82917950Y-167305337D01*
X82946336Y-167484563D01*
X82946338Y-167484571D01*
X83002416Y-167657160D01*
X83084801Y-167818851D01*
X83173703Y-167941213D01*
X83191468Y-167965665D01*
X83191475Y-167965673D01*
X83319776Y-168093974D01*
X83319784Y-168093981D01*
X83319786Y-168093983D01*
X83466599Y-168200649D01*
X83628290Y-168283034D01*
X83800879Y-168339112D01*
X83980115Y-168367500D01*
X83980119Y-168367500D01*
X84161581Y-168367500D01*
X84161585Y-168367500D01*
X84340821Y-168339112D01*
X84478483Y-168294382D01*
X84507646Y-168284907D01*
X84559054Y-168286702D01*
X84584058Y-168303252D01*
X87006402Y-170725597D01*
X87006405Y-170725599D01*
X87006407Y-170725601D01*
X87099192Y-170779170D01*
X87202680Y-170806900D01*
X87202681Y-170806900D01*
X97074900Y-170806900D01*
X97123238Y-170824493D01*
X97148958Y-170869042D01*
X97150100Y-170882100D01*
X97150100Y-173421900D01*
X97132507Y-173470238D01*
X97087958Y-173495958D01*
X97074900Y-173497100D01*
X96648289Y-173497100D01*
X96553943Y-173512043D01*
X96440228Y-173569984D01*
X96349984Y-173660228D01*
X96292043Y-173773943D01*
X96277100Y-173868289D01*
X96277100Y-175131710D01*
X96292043Y-175226056D01*
X96349984Y-175339771D01*
X96440229Y-175430016D01*
X96553943Y-175487956D01*
X96553945Y-175487957D01*
X96648292Y-175502900D01*
X96648296Y-175502900D01*
X98211704Y-175502900D01*
X98211708Y-175502900D01*
X98306055Y-175487957D01*
X98419771Y-175430016D01*
X98510016Y-175339771D01*
X98567957Y-175226055D01*
X98582900Y-175131708D01*
X98582900Y-173868292D01*
X98567957Y-173773945D01*
X98510016Y-173660229D01*
X98419771Y-173569984D01*
X98306055Y-173512043D01*
X98306057Y-173512043D01*
X98211710Y-173497100D01*
X98211708Y-173497100D01*
X97785100Y-173497100D01*
X97736762Y-173479507D01*
X97711042Y-173434958D01*
X97709900Y-173421900D01*
X97709900Y-170882100D01*
X97727493Y-170833762D01*
X97772042Y-170808042D01*
X97785100Y-170806900D01*
X105335614Y-170806900D01*
X105383952Y-170824493D01*
X105409672Y-170869042D01*
X105410814Y-170882100D01*
X105410814Y-173421900D01*
X105393221Y-173470238D01*
X105348672Y-173495958D01*
X105335614Y-173497100D01*
X104909003Y-173497100D01*
X104814657Y-173512043D01*
X104700942Y-173569984D01*
X104610698Y-173660228D01*
X104552757Y-173773943D01*
X104537814Y-173868289D01*
X104537814Y-175131710D01*
X104552757Y-175226056D01*
X104610698Y-175339771D01*
X104700943Y-175430016D01*
X104814657Y-175487956D01*
X104814659Y-175487957D01*
X104909006Y-175502900D01*
X104909010Y-175502900D01*
X106472418Y-175502900D01*
X106472422Y-175502900D01*
X106566769Y-175487957D01*
X106680485Y-175430016D01*
X106770730Y-175339771D01*
X106828671Y-175226055D01*
X106843614Y-175131708D01*
X106843614Y-173868292D01*
X106828671Y-173773945D01*
X106770730Y-173660229D01*
X106680485Y-173569984D01*
X106566769Y-173512043D01*
X106566771Y-173512043D01*
X106472424Y-173497100D01*
X106472422Y-173497100D01*
X106045814Y-173497100D01*
X105997476Y-173479507D01*
X105971756Y-173434958D01*
X105970614Y-173421900D01*
X105970614Y-170882100D01*
X105988207Y-170833762D01*
X106032756Y-170808042D01*
X106045814Y-170806900D01*
X113596329Y-170806900D01*
X113644667Y-170824493D01*
X113670387Y-170869042D01*
X113671529Y-170882100D01*
X113671529Y-173421900D01*
X113653936Y-173470238D01*
X113609387Y-173495958D01*
X113596329Y-173497100D01*
X113169718Y-173497100D01*
X113075372Y-173512043D01*
X112961657Y-173569984D01*
X112871413Y-173660228D01*
X112813472Y-173773943D01*
X112798529Y-173868289D01*
X112798529Y-175131710D01*
X112813472Y-175226056D01*
X112871413Y-175339771D01*
X112961658Y-175430016D01*
X113075372Y-175487956D01*
X113075374Y-175487957D01*
X113169721Y-175502900D01*
X113169725Y-175502900D01*
X114733133Y-175502900D01*
X114733137Y-175502900D01*
X114827484Y-175487957D01*
X114941200Y-175430016D01*
X115031445Y-175339771D01*
X115089386Y-175226055D01*
X115104329Y-175131708D01*
X115104329Y-173868292D01*
X115089386Y-173773945D01*
X115031445Y-173660229D01*
X114941200Y-173569984D01*
X114827484Y-173512043D01*
X114827486Y-173512043D01*
X114733139Y-173497100D01*
X114733137Y-173497100D01*
X114306529Y-173497100D01*
X114258191Y-173479507D01*
X114232471Y-173434958D01*
X114231329Y-173421900D01*
X114231329Y-170882100D01*
X114248922Y-170833762D01*
X114293471Y-170808042D01*
X114306529Y-170806900D01*
X117196431Y-170806900D01*
X121857043Y-170806900D01*
X121905381Y-170824493D01*
X121931101Y-170869042D01*
X121932243Y-170882100D01*
X121932243Y-173421900D01*
X121914650Y-173470238D01*
X121870101Y-173495958D01*
X121857043Y-173497100D01*
X121430432Y-173497100D01*
X121336086Y-173512043D01*
X121222371Y-173569984D01*
X121132127Y-173660228D01*
X121074186Y-173773943D01*
X121059243Y-173868289D01*
X121059243Y-175131710D01*
X121074186Y-175226056D01*
X121132127Y-175339771D01*
X121222372Y-175430016D01*
X121336086Y-175487956D01*
X121336088Y-175487957D01*
X121430435Y-175502900D01*
X121430439Y-175502900D01*
X122993847Y-175502900D01*
X122993851Y-175502900D01*
X123088198Y-175487957D01*
X123201914Y-175430016D01*
X123292159Y-175339771D01*
X123350100Y-175226055D01*
X123365043Y-175131708D01*
X123365043Y-173868292D01*
X123350100Y-173773945D01*
X123292159Y-173660229D01*
X123201914Y-173569984D01*
X123088198Y-173512043D01*
X123088200Y-173512043D01*
X122993853Y-173497100D01*
X122993851Y-173497100D01*
X122567243Y-173497100D01*
X122518905Y-173479507D01*
X122493185Y-173434958D01*
X122492043Y-173421900D01*
X122492043Y-170882100D01*
X122509636Y-170833762D01*
X122554185Y-170808042D01*
X122567243Y-170806900D01*
X125323568Y-170806900D01*
X125323570Y-170806900D01*
X125427058Y-170779170D01*
X125519843Y-170725601D01*
X127436517Y-168808925D01*
X127483137Y-168787186D01*
X127489691Y-168786900D01*
X129584900Y-168786900D01*
X129633238Y-168804493D01*
X129658958Y-168849042D01*
X129660100Y-168862100D01*
X129660100Y-170851900D01*
X129642507Y-170900238D01*
X129597958Y-170925958D01*
X129584900Y-170927100D01*
X129158289Y-170927100D01*
X129063943Y-170942043D01*
X128950228Y-170999984D01*
X128859984Y-171090228D01*
X128802043Y-171203943D01*
X128787100Y-171298289D01*
X128787100Y-172561710D01*
X128802043Y-172656056D01*
X128859984Y-172769771D01*
X128950229Y-172860016D01*
X129063943Y-172917956D01*
X129063945Y-172917957D01*
X129158292Y-172932900D01*
X129158296Y-172932900D01*
X130721704Y-172932900D01*
X130721708Y-172932900D01*
X130816055Y-172917957D01*
X130929771Y-172860016D01*
X131020016Y-172769771D01*
X131077957Y-172656055D01*
X131092900Y-172561708D01*
X131092900Y-171298292D01*
X131077957Y-171203945D01*
X131020016Y-171090229D01*
X130929771Y-170999984D01*
X130816055Y-170942043D01*
X130816057Y-170942043D01*
X130721710Y-170927100D01*
X130721708Y-170927100D01*
X130295100Y-170927100D01*
X130246762Y-170909507D01*
X130221042Y-170864958D01*
X130219900Y-170851900D01*
X130219900Y-168862100D01*
X130237493Y-168813762D01*
X130282042Y-168788042D01*
X130295100Y-168786900D01*
X130366431Y-168786900D01*
X137845614Y-168786900D01*
X137893952Y-168804493D01*
X137919672Y-168849042D01*
X137920814Y-168862100D01*
X137920814Y-170851900D01*
X137903221Y-170900238D01*
X137858672Y-170925958D01*
X137845614Y-170927100D01*
X137419003Y-170927100D01*
X137324657Y-170942043D01*
X137210942Y-170999984D01*
X137120698Y-171090228D01*
X137062757Y-171203943D01*
X137047814Y-171298289D01*
X137047814Y-172561710D01*
X137062757Y-172656056D01*
X137120698Y-172769771D01*
X137210943Y-172860016D01*
X137324657Y-172917956D01*
X137324659Y-172917957D01*
X137419006Y-172932900D01*
X137419010Y-172932900D01*
X138982418Y-172932900D01*
X138982422Y-172932900D01*
X139076769Y-172917957D01*
X139190485Y-172860016D01*
X139280730Y-172769771D01*
X139338671Y-172656055D01*
X139353614Y-172561708D01*
X139353614Y-171298292D01*
X139338671Y-171203945D01*
X139280730Y-171090229D01*
X139190485Y-170999984D01*
X139076769Y-170942043D01*
X139076771Y-170942043D01*
X138982424Y-170927100D01*
X138982422Y-170927100D01*
X138555814Y-170927100D01*
X138507476Y-170909507D01*
X138481756Y-170864958D01*
X138480614Y-170851900D01*
X138480614Y-168862100D01*
X138498207Y-168813762D01*
X138542756Y-168788042D01*
X138555814Y-168786900D01*
X146106329Y-168786900D01*
X146154667Y-168804493D01*
X146180387Y-168849042D01*
X146181529Y-168862100D01*
X146181529Y-170851900D01*
X146163936Y-170900238D01*
X146119387Y-170925958D01*
X146106329Y-170927100D01*
X145679718Y-170927100D01*
X145585372Y-170942043D01*
X145471657Y-170999984D01*
X145381413Y-171090228D01*
X145323472Y-171203943D01*
X145308529Y-171298289D01*
X145308529Y-172561710D01*
X145323472Y-172656056D01*
X145381413Y-172769771D01*
X145471658Y-172860016D01*
X145585372Y-172917956D01*
X145585374Y-172917957D01*
X145679721Y-172932900D01*
X145679725Y-172932900D01*
X147243133Y-172932900D01*
X147243137Y-172932900D01*
X147337484Y-172917957D01*
X147451200Y-172860016D01*
X147541445Y-172769771D01*
X147599386Y-172656055D01*
X147614329Y-172561708D01*
X147614329Y-171298292D01*
X147599386Y-171203945D01*
X147541445Y-171090229D01*
X147451200Y-170999984D01*
X147337484Y-170942043D01*
X147337486Y-170942043D01*
X147243139Y-170927100D01*
X147243137Y-170927100D01*
X146816529Y-170927100D01*
X146768191Y-170909507D01*
X146742471Y-170864958D01*
X146741329Y-170851900D01*
X146741329Y-168862100D01*
X146758922Y-168813762D01*
X146803471Y-168788042D01*
X146816529Y-168786900D01*
X154059209Y-168786900D01*
X154068456Y-168787471D01*
X154073636Y-168788112D01*
X154106430Y-168796900D01*
X154144553Y-168796900D01*
X154149161Y-168797471D01*
X154168176Y-168807186D01*
X154188252Y-168814493D01*
X154193088Y-168818926D01*
X154420217Y-169046055D01*
X154441957Y-169092675D01*
X154442243Y-169099229D01*
X154442243Y-170851900D01*
X154424650Y-170900238D01*
X154380101Y-170925958D01*
X154367043Y-170927100D01*
X153940432Y-170927100D01*
X153846086Y-170942043D01*
X153732371Y-170999984D01*
X153642127Y-171090228D01*
X153584186Y-171203943D01*
X153569243Y-171298289D01*
X153569243Y-172561710D01*
X153584186Y-172656056D01*
X153642127Y-172769771D01*
X153732372Y-172860016D01*
X153846086Y-172917956D01*
X153846088Y-172917957D01*
X153940435Y-172932900D01*
X153940439Y-172932900D01*
X155503847Y-172932900D01*
X155503851Y-172932900D01*
X155598198Y-172917957D01*
X155711914Y-172860016D01*
X155802159Y-172769771D01*
X155860100Y-172656055D01*
X155875043Y-172561708D01*
X155875043Y-171298292D01*
X155860100Y-171203945D01*
X155802159Y-171090229D01*
X155711914Y-170999984D01*
X155598198Y-170942043D01*
X155598200Y-170942043D01*
X155503853Y-170927100D01*
X155503851Y-170927100D01*
X155077243Y-170927100D01*
X155028905Y-170909507D01*
X155003185Y-170864958D01*
X155002043Y-170851900D01*
X155002043Y-168915292D01*
X154985531Y-168853670D01*
X154985531Y-168853669D01*
X154982968Y-168844106D01*
X154982968Y-168844105D01*
X154950600Y-168788042D01*
X154946119Y-168780280D01*
X154588926Y-168423087D01*
X154567186Y-168376467D01*
X154566900Y-168369913D01*
X154566900Y-168336431D01*
X154566900Y-168336430D01*
X154539170Y-168232942D01*
X154485601Y-168140157D01*
X154485599Y-168140155D01*
X154485597Y-168140152D01*
X154399847Y-168054402D01*
X154399841Y-168054398D01*
X154307059Y-168000830D01*
X154272562Y-167991586D01*
X154203570Y-167973100D01*
X154203569Y-167973100D01*
X146523569Y-167973100D01*
X138413569Y-167973100D01*
X130473569Y-167973100D01*
X127236431Y-167973100D01*
X127184687Y-167986965D01*
X127132941Y-168000830D01*
X127040159Y-168054398D01*
X127040157Y-168054400D01*
X125123482Y-169971074D01*
X125076862Y-169992814D01*
X125070308Y-169993100D01*
X87455942Y-169993100D01*
X87407604Y-169975507D01*
X87402768Y-169971074D01*
X85159502Y-167727808D01*
X85137762Y-167681188D01*
X85141157Y-167651396D01*
X85150632Y-167622233D01*
X85195362Y-167484571D01*
X85223750Y-167305335D01*
X85223750Y-167123865D01*
X85223750Y-167123862D01*
X85457950Y-167123862D01*
X85457950Y-167305337D01*
X85486336Y-167484563D01*
X85486338Y-167484571D01*
X85542416Y-167657160D01*
X85624801Y-167818851D01*
X85713703Y-167941213D01*
X85731468Y-167965665D01*
X85731475Y-167965673D01*
X85859776Y-168093974D01*
X85859784Y-168093981D01*
X85859786Y-168093983D01*
X86006599Y-168200649D01*
X86168290Y-168283034D01*
X86340879Y-168339112D01*
X86520115Y-168367500D01*
X86520119Y-168367500D01*
X86701581Y-168367500D01*
X86701585Y-168367500D01*
X86880821Y-168339112D01*
X87053410Y-168283034D01*
X87215101Y-168200649D01*
X87361914Y-168093983D01*
X87490233Y-167965664D01*
X87596899Y-167818851D01*
X87679284Y-167657160D01*
X87735362Y-167484571D01*
X87763750Y-167305335D01*
X87763750Y-167123865D01*
X87763750Y-167123862D01*
X87997950Y-167123862D01*
X87997950Y-167305337D01*
X88026336Y-167484563D01*
X88026338Y-167484571D01*
X88082416Y-167657160D01*
X88164801Y-167818851D01*
X88253703Y-167941213D01*
X88271468Y-167965665D01*
X88271475Y-167965673D01*
X88399776Y-168093974D01*
X88399784Y-168093981D01*
X88399786Y-168093983D01*
X88546599Y-168200649D01*
X88708290Y-168283034D01*
X88880879Y-168339112D01*
X89060115Y-168367500D01*
X89060119Y-168367500D01*
X89241581Y-168367500D01*
X89241585Y-168367500D01*
X89420821Y-168339112D01*
X89593410Y-168283034D01*
X89755101Y-168200649D01*
X89901914Y-168093983D01*
X90030233Y-167965664D01*
X90136899Y-167818851D01*
X90219284Y-167657160D01*
X90275362Y-167484571D01*
X90303750Y-167305335D01*
X90303750Y-167123865D01*
X90303750Y-167123862D01*
X90537950Y-167123862D01*
X90537950Y-167305337D01*
X90566336Y-167484563D01*
X90566338Y-167484571D01*
X90622416Y-167657160D01*
X90704801Y-167818851D01*
X90793703Y-167941213D01*
X90811468Y-167965665D01*
X90811475Y-167965673D01*
X90939776Y-168093974D01*
X90939784Y-168093981D01*
X90939786Y-168093983D01*
X91086599Y-168200649D01*
X91248290Y-168283034D01*
X91420879Y-168339112D01*
X91600115Y-168367500D01*
X91600119Y-168367500D01*
X91781581Y-168367500D01*
X91781585Y-168367500D01*
X91960821Y-168339112D01*
X92133410Y-168283034D01*
X92295101Y-168200649D01*
X92441914Y-168093983D01*
X92570233Y-167965664D01*
X92676899Y-167818851D01*
X92759284Y-167657160D01*
X92815362Y-167484571D01*
X92843750Y-167305335D01*
X92843750Y-167123865D01*
X92843750Y-167123862D01*
X93077950Y-167123862D01*
X93077950Y-167305337D01*
X93106336Y-167484563D01*
X93106338Y-167484571D01*
X93162416Y-167657160D01*
X93244801Y-167818851D01*
X93333703Y-167941213D01*
X93351468Y-167965665D01*
X93351475Y-167965673D01*
X93479776Y-168093974D01*
X93479784Y-168093981D01*
X93479786Y-168093983D01*
X93626599Y-168200649D01*
X93788290Y-168283034D01*
X93960879Y-168339112D01*
X94140115Y-168367500D01*
X94140119Y-168367500D01*
X94321581Y-168367500D01*
X94321585Y-168367500D01*
X94500821Y-168339112D01*
X94673410Y-168283034D01*
X94835101Y-168200649D01*
X94981914Y-168093983D01*
X95110233Y-167965664D01*
X95216899Y-167818851D01*
X95299284Y-167657160D01*
X95355362Y-167484571D01*
X95383750Y-167305335D01*
X95383750Y-167123865D01*
X95383750Y-167123862D01*
X95617950Y-167123862D01*
X95617950Y-167305337D01*
X95646336Y-167484563D01*
X95646338Y-167484571D01*
X95702416Y-167657160D01*
X95784801Y-167818851D01*
X95873703Y-167941213D01*
X95891468Y-167965665D01*
X95891475Y-167965673D01*
X96019776Y-168093974D01*
X96019784Y-168093981D01*
X96019786Y-168093983D01*
X96166599Y-168200649D01*
X96328290Y-168283034D01*
X96500879Y-168339112D01*
X96680115Y-168367500D01*
X96680119Y-168367500D01*
X96861581Y-168367500D01*
X96861585Y-168367500D01*
X97040821Y-168339112D01*
X97213410Y-168283034D01*
X97375101Y-168200649D01*
X97521914Y-168093983D01*
X97650233Y-167965664D01*
X97756899Y-167818851D01*
X97839284Y-167657160D01*
X97895362Y-167484571D01*
X97923750Y-167305335D01*
X97923750Y-167123865D01*
X97923750Y-167123862D01*
X98157950Y-167123862D01*
X98157950Y-167305337D01*
X98186336Y-167484563D01*
X98186338Y-167484571D01*
X98242416Y-167657160D01*
X98324801Y-167818851D01*
X98413703Y-167941213D01*
X98431468Y-167965665D01*
X98431475Y-167965673D01*
X98559776Y-168093974D01*
X98559784Y-168093981D01*
X98559786Y-168093983D01*
X98706599Y-168200649D01*
X98868290Y-168283034D01*
X99040879Y-168339112D01*
X99220115Y-168367500D01*
X99220119Y-168367500D01*
X99401581Y-168367500D01*
X99401585Y-168367500D01*
X99580821Y-168339112D01*
X99753410Y-168283034D01*
X99915101Y-168200649D01*
X100061914Y-168093983D01*
X100190233Y-167965664D01*
X100296899Y-167818851D01*
X100379284Y-167657160D01*
X100435362Y-167484571D01*
X100463750Y-167305335D01*
X100463750Y-167123865D01*
X100463750Y-167123862D01*
X100697950Y-167123862D01*
X100697950Y-167305337D01*
X100726336Y-167484563D01*
X100726338Y-167484571D01*
X100782416Y-167657160D01*
X100864801Y-167818851D01*
X100953703Y-167941213D01*
X100971468Y-167965665D01*
X100971475Y-167965673D01*
X101099776Y-168093974D01*
X101099784Y-168093981D01*
X101099786Y-168093983D01*
X101246599Y-168200649D01*
X101408290Y-168283034D01*
X101580879Y-168339112D01*
X101760115Y-168367500D01*
X101760119Y-168367500D01*
X101941581Y-168367500D01*
X101941585Y-168367500D01*
X102120821Y-168339112D01*
X102293410Y-168283034D01*
X102455101Y-168200649D01*
X102601914Y-168093983D01*
X102730233Y-167965664D01*
X102836899Y-167818851D01*
X102919284Y-167657160D01*
X102975362Y-167484571D01*
X103003750Y-167305335D01*
X103003750Y-167123865D01*
X103003750Y-167123862D01*
X103237950Y-167123862D01*
X103237950Y-167305337D01*
X103266336Y-167484563D01*
X103266338Y-167484571D01*
X103322416Y-167657160D01*
X103404801Y-167818851D01*
X103493703Y-167941213D01*
X103511468Y-167965665D01*
X103511475Y-167965673D01*
X103639776Y-168093974D01*
X103639784Y-168093981D01*
X103639786Y-168093983D01*
X103786599Y-168200649D01*
X103948290Y-168283034D01*
X104120879Y-168339112D01*
X104300115Y-168367500D01*
X104300119Y-168367500D01*
X104481581Y-168367500D01*
X104481585Y-168367500D01*
X104660821Y-168339112D01*
X104833410Y-168283034D01*
X104995101Y-168200649D01*
X105141914Y-168093983D01*
X105270233Y-167965664D01*
X105376899Y-167818851D01*
X105459284Y-167657160D01*
X105515362Y-167484571D01*
X105543750Y-167305335D01*
X105543750Y-167123865D01*
X105515362Y-166944629D01*
X105459284Y-166772040D01*
X105406440Y-166668328D01*
X105400172Y-166617273D01*
X105420269Y-166581018D01*
X113699363Y-158301926D01*
X113745983Y-158280186D01*
X113752537Y-158279900D01*
X127855160Y-158279900D01*
X127903498Y-158297493D01*
X127924635Y-158326321D01*
X127986241Y-158475051D01*
X128095996Y-158639312D01*
X128095997Y-158639313D01*
X128096000Y-158639317D01*
X128235682Y-158778999D01*
X128235685Y-158779001D01*
X128235688Y-158779004D01*
X128399949Y-158888759D01*
X128582461Y-158964357D01*
X128582462Y-158964358D01*
X128582463Y-158964358D01*
X128582465Y-158964359D01*
X128712218Y-158990168D01*
X128776222Y-159002900D01*
X128776223Y-159002900D01*
X129223778Y-159002900D01*
X129271889Y-158993329D01*
X129417535Y-158964359D01*
X129600051Y-158888759D01*
X129764312Y-158779004D01*
X129904004Y-158639312D01*
X130013759Y-158475051D01*
X130089359Y-158292535D01*
X130127900Y-158098777D01*
X130127900Y-157901223D01*
X130089359Y-157707465D01*
X130013759Y-157524949D01*
X129904004Y-157360688D01*
X129904001Y-157360685D01*
X129903999Y-157360682D01*
X129764317Y-157221000D01*
X129764313Y-157220997D01*
X129764312Y-157220996D01*
X129600051Y-157111241D01*
X129600049Y-157111240D01*
X129417538Y-157035642D01*
X129417537Y-157035641D01*
X129223778Y-156997100D01*
X129223777Y-156997100D01*
X128776223Y-156997100D01*
X128776222Y-156997100D01*
X128582462Y-157035641D01*
X128582461Y-157035642D01*
X128399950Y-157111240D01*
X128235682Y-157221000D01*
X128096000Y-157360682D01*
X127986240Y-157524950D01*
X127924636Y-157673678D01*
X127889884Y-157711603D01*
X127855160Y-157720100D01*
X113642300Y-157720100D01*
X113568600Y-157720100D01*
X113525887Y-157731545D01*
X113497410Y-157739175D01*
X113433588Y-157776023D01*
X113433582Y-157776027D01*
X105024432Y-166185177D01*
X104977812Y-166206917D01*
X104937119Y-166199007D01*
X104833418Y-166146170D01*
X104833417Y-166146169D01*
X104833410Y-166146166D01*
X104833403Y-166146163D01*
X104833399Y-166146162D01*
X104660825Y-166090089D01*
X104660813Y-166090086D01*
X104481587Y-166061700D01*
X104481585Y-166061700D01*
X104300115Y-166061700D01*
X104300112Y-166061700D01*
X104120886Y-166090086D01*
X104120874Y-166090089D01*
X103948300Y-166146162D01*
X103948292Y-166146165D01*
X103948290Y-166146166D01*
X103948286Y-166146167D01*
X103948286Y-166146168D01*
X103786597Y-166228552D01*
X103639784Y-166335218D01*
X103639776Y-166335225D01*
X103511475Y-166463526D01*
X103511468Y-166463534D01*
X103404802Y-166610347D01*
X103322418Y-166772036D01*
X103322412Y-166772050D01*
X103266339Y-166944624D01*
X103266336Y-166944636D01*
X103237950Y-167123862D01*
X103003750Y-167123862D01*
X102975362Y-166944629D01*
X102919284Y-166772040D01*
X102836899Y-166610349D01*
X102730233Y-166463536D01*
X102730231Y-166463534D01*
X102730224Y-166463526D01*
X102601923Y-166335225D01*
X102601915Y-166335218D01*
X102455102Y-166228552D01*
X102455103Y-166228552D01*
X102455101Y-166228551D01*
X102293410Y-166146166D01*
X102293403Y-166146163D01*
X102293399Y-166146162D01*
X102120825Y-166090089D01*
X102120813Y-166090086D01*
X101941587Y-166061700D01*
X101941585Y-166061700D01*
X101760115Y-166061700D01*
X101760112Y-166061700D01*
X101580886Y-166090086D01*
X101580874Y-166090089D01*
X101408300Y-166146162D01*
X101408292Y-166146165D01*
X101408290Y-166146166D01*
X101408286Y-166146167D01*
X101408286Y-166146168D01*
X101246597Y-166228552D01*
X101099784Y-166335218D01*
X101099776Y-166335225D01*
X100971475Y-166463526D01*
X100971468Y-166463534D01*
X100864802Y-166610347D01*
X100782418Y-166772036D01*
X100782412Y-166772050D01*
X100726339Y-166944624D01*
X100726336Y-166944636D01*
X100697950Y-167123862D01*
X100463750Y-167123862D01*
X100435362Y-166944629D01*
X100379284Y-166772040D01*
X100296899Y-166610349D01*
X100190233Y-166463536D01*
X100190231Y-166463534D01*
X100190224Y-166463526D01*
X100061923Y-166335225D01*
X100061915Y-166335218D01*
X99915102Y-166228552D01*
X99915103Y-166228552D01*
X99915101Y-166228551D01*
X99753410Y-166146166D01*
X99753403Y-166146163D01*
X99753399Y-166146162D01*
X99580825Y-166090089D01*
X99580813Y-166090086D01*
X99401587Y-166061700D01*
X99401585Y-166061700D01*
X99220115Y-166061700D01*
X99220112Y-166061700D01*
X99040886Y-166090086D01*
X99040874Y-166090089D01*
X98868300Y-166146162D01*
X98868292Y-166146165D01*
X98868290Y-166146166D01*
X98868286Y-166146167D01*
X98868286Y-166146168D01*
X98706597Y-166228552D01*
X98559784Y-166335218D01*
X98559776Y-166335225D01*
X98431475Y-166463526D01*
X98431468Y-166463534D01*
X98324802Y-166610347D01*
X98242418Y-166772036D01*
X98242412Y-166772050D01*
X98186339Y-166944624D01*
X98186336Y-166944636D01*
X98157950Y-167123862D01*
X97923750Y-167123862D01*
X97895362Y-166944629D01*
X97839284Y-166772040D01*
X97756899Y-166610349D01*
X97650233Y-166463536D01*
X97650231Y-166463534D01*
X97650224Y-166463526D01*
X97521923Y-166335225D01*
X97521915Y-166335218D01*
X97375102Y-166228552D01*
X97375103Y-166228552D01*
X97375101Y-166228551D01*
X97213410Y-166146166D01*
X97213403Y-166146163D01*
X97213399Y-166146162D01*
X97040825Y-166090089D01*
X97040813Y-166090086D01*
X96861587Y-166061700D01*
X96861585Y-166061700D01*
X96680115Y-166061700D01*
X96680112Y-166061700D01*
X96500886Y-166090086D01*
X96500874Y-166090089D01*
X96328300Y-166146162D01*
X96328292Y-166146165D01*
X96328290Y-166146166D01*
X96328286Y-166146167D01*
X96328286Y-166146168D01*
X96166597Y-166228552D01*
X96019784Y-166335218D01*
X96019776Y-166335225D01*
X95891475Y-166463526D01*
X95891468Y-166463534D01*
X95784802Y-166610347D01*
X95702418Y-166772036D01*
X95702412Y-166772050D01*
X95646339Y-166944624D01*
X95646336Y-166944636D01*
X95617950Y-167123862D01*
X95383750Y-167123862D01*
X95355362Y-166944629D01*
X95299284Y-166772040D01*
X95216899Y-166610349D01*
X95110233Y-166463536D01*
X95110231Y-166463534D01*
X95110224Y-166463526D01*
X94981923Y-166335225D01*
X94981915Y-166335218D01*
X94835102Y-166228552D01*
X94835103Y-166228552D01*
X94835101Y-166228551D01*
X94673410Y-166146166D01*
X94673403Y-166146163D01*
X94673399Y-166146162D01*
X94500825Y-166090089D01*
X94500813Y-166090086D01*
X94321587Y-166061700D01*
X94321585Y-166061700D01*
X94140115Y-166061700D01*
X94140112Y-166061700D01*
X93960886Y-166090086D01*
X93960874Y-166090089D01*
X93788300Y-166146162D01*
X93788292Y-166146165D01*
X93788290Y-166146166D01*
X93788286Y-166146167D01*
X93788286Y-166146168D01*
X93626597Y-166228552D01*
X93479784Y-166335218D01*
X93479776Y-166335225D01*
X93351475Y-166463526D01*
X93351468Y-166463534D01*
X93244802Y-166610347D01*
X93162418Y-166772036D01*
X93162412Y-166772050D01*
X93106339Y-166944624D01*
X93106336Y-166944636D01*
X93077950Y-167123862D01*
X92843750Y-167123862D01*
X92815362Y-166944629D01*
X92759284Y-166772040D01*
X92676899Y-166610349D01*
X92570233Y-166463536D01*
X92570231Y-166463534D01*
X92570224Y-166463526D01*
X92441923Y-166335225D01*
X92441915Y-166335218D01*
X92295102Y-166228552D01*
X92295103Y-166228552D01*
X92295101Y-166228551D01*
X92133410Y-166146166D01*
X92133403Y-166146163D01*
X92133399Y-166146162D01*
X91960825Y-166090089D01*
X91960813Y-166090086D01*
X91781587Y-166061700D01*
X91781585Y-166061700D01*
X91600115Y-166061700D01*
X91600112Y-166061700D01*
X91420886Y-166090086D01*
X91420874Y-166090089D01*
X91248300Y-166146162D01*
X91248292Y-166146165D01*
X91248290Y-166146166D01*
X91248286Y-166146167D01*
X91248286Y-166146168D01*
X91086597Y-166228552D01*
X90939784Y-166335218D01*
X90939776Y-166335225D01*
X90811475Y-166463526D01*
X90811468Y-166463534D01*
X90704802Y-166610347D01*
X90622418Y-166772036D01*
X90622412Y-166772050D01*
X90566339Y-166944624D01*
X90566336Y-166944636D01*
X90537950Y-167123862D01*
X90303750Y-167123862D01*
X90275362Y-166944629D01*
X90219284Y-166772040D01*
X90136899Y-166610349D01*
X90030233Y-166463536D01*
X90030231Y-166463534D01*
X90030224Y-166463526D01*
X89901923Y-166335225D01*
X89901915Y-166335218D01*
X89755102Y-166228552D01*
X89755103Y-166228552D01*
X89755101Y-166228551D01*
X89593410Y-166146166D01*
X89593403Y-166146163D01*
X89593399Y-166146162D01*
X89420825Y-166090089D01*
X89420813Y-166090086D01*
X89241587Y-166061700D01*
X89241585Y-166061700D01*
X89060115Y-166061700D01*
X89060112Y-166061700D01*
X88880886Y-166090086D01*
X88880874Y-166090089D01*
X88708300Y-166146162D01*
X88708292Y-166146165D01*
X88708290Y-166146166D01*
X88708286Y-166146167D01*
X88708286Y-166146168D01*
X88546597Y-166228552D01*
X88399784Y-166335218D01*
X88399776Y-166335225D01*
X88271475Y-166463526D01*
X88271468Y-166463534D01*
X88164802Y-166610347D01*
X88082418Y-166772036D01*
X88082412Y-166772050D01*
X88026339Y-166944624D01*
X88026336Y-166944636D01*
X87997950Y-167123862D01*
X87763750Y-167123862D01*
X87735362Y-166944629D01*
X87679284Y-166772040D01*
X87596899Y-166610349D01*
X87490233Y-166463536D01*
X87490231Y-166463534D01*
X87490224Y-166463526D01*
X87361923Y-166335225D01*
X87361915Y-166335218D01*
X87215102Y-166228552D01*
X87215103Y-166228552D01*
X87215101Y-166228551D01*
X87053410Y-166146166D01*
X87053403Y-166146163D01*
X87053399Y-166146162D01*
X86880825Y-166090089D01*
X86880813Y-166090086D01*
X86701587Y-166061700D01*
X86701585Y-166061700D01*
X86520115Y-166061700D01*
X86520112Y-166061700D01*
X86340886Y-166090086D01*
X86340874Y-166090089D01*
X86168300Y-166146162D01*
X86168292Y-166146165D01*
X86168290Y-166146166D01*
X86168286Y-166146167D01*
X86168286Y-166146168D01*
X86006597Y-166228552D01*
X85859784Y-166335218D01*
X85859776Y-166335225D01*
X85731475Y-166463526D01*
X85731468Y-166463534D01*
X85624802Y-166610347D01*
X85542418Y-166772036D01*
X85542412Y-166772050D01*
X85486339Y-166944624D01*
X85486336Y-166944636D01*
X85457950Y-167123862D01*
X85223750Y-167123862D01*
X85195362Y-166944629D01*
X85139284Y-166772040D01*
X85056899Y-166610349D01*
X84950233Y-166463536D01*
X84950231Y-166463534D01*
X84950224Y-166463526D01*
X84821923Y-166335225D01*
X84821915Y-166335218D01*
X84675102Y-166228552D01*
X84675103Y-166228552D01*
X84675101Y-166228551D01*
X84513410Y-166146166D01*
X84513403Y-166146163D01*
X84513399Y-166146162D01*
X84340825Y-166090089D01*
X84340813Y-166090086D01*
X84161587Y-166061700D01*
X84161585Y-166061700D01*
X83980115Y-166061700D01*
X83980112Y-166061700D01*
X83800886Y-166090086D01*
X83800874Y-166090089D01*
X83628300Y-166146162D01*
X83628292Y-166146165D01*
X83628290Y-166146166D01*
X83628286Y-166146167D01*
X83628286Y-166146168D01*
X83466597Y-166228552D01*
X83319784Y-166335218D01*
X83319776Y-166335225D01*
X83191475Y-166463526D01*
X83191468Y-166463534D01*
X83084802Y-166610347D01*
X83002418Y-166772036D01*
X83002412Y-166772050D01*
X82946339Y-166944624D01*
X82946336Y-166944636D01*
X82917950Y-167123862D01*
X82683750Y-167123862D01*
X82655362Y-166944629D01*
X82599284Y-166772040D01*
X82516899Y-166610349D01*
X82410233Y-166463536D01*
X82410231Y-166463534D01*
X82410224Y-166463526D01*
X82281923Y-166335225D01*
X82281915Y-166335218D01*
X82135102Y-166228552D01*
X82135103Y-166228552D01*
X82135101Y-166228551D01*
X81973410Y-166146166D01*
X81973403Y-166146163D01*
X81973399Y-166146162D01*
X81800825Y-166090089D01*
X81800813Y-166090086D01*
X81621587Y-166061700D01*
X81621585Y-166061700D01*
X81440115Y-166061700D01*
X81440112Y-166061700D01*
X81260886Y-166090086D01*
X81260874Y-166090089D01*
X81088300Y-166146162D01*
X81088292Y-166146165D01*
X81088290Y-166146166D01*
X81088286Y-166146167D01*
X81088286Y-166146168D01*
X80926597Y-166228552D01*
X80779784Y-166335218D01*
X80779776Y-166335225D01*
X80651475Y-166463526D01*
X80651468Y-166463534D01*
X80544802Y-166610347D01*
X80462418Y-166772036D01*
X80462412Y-166772050D01*
X80406339Y-166944624D01*
X80406336Y-166944636D01*
X80377950Y-167123862D01*
X80143750Y-167123862D01*
X80115362Y-166944629D01*
X80059284Y-166772040D01*
X79976899Y-166610349D01*
X79870233Y-166463536D01*
X79870231Y-166463534D01*
X79870224Y-166463526D01*
X79741923Y-166335225D01*
X79741915Y-166335218D01*
X79595102Y-166228552D01*
X79595103Y-166228552D01*
X79595101Y-166228551D01*
X79433410Y-166146166D01*
X79433403Y-166146163D01*
X79433399Y-166146162D01*
X79260825Y-166090089D01*
X79260813Y-166090086D01*
X79081587Y-166061700D01*
X79081585Y-166061700D01*
X78900115Y-166061700D01*
X78900112Y-166061700D01*
X78720886Y-166090086D01*
X78720874Y-166090089D01*
X78548300Y-166146162D01*
X78548292Y-166146165D01*
X78548290Y-166146166D01*
X78548286Y-166146167D01*
X78548286Y-166146168D01*
X78386597Y-166228552D01*
X78239784Y-166335218D01*
X78239776Y-166335225D01*
X78111475Y-166463526D01*
X78111468Y-166463534D01*
X78004802Y-166610347D01*
X77922418Y-166772036D01*
X77922412Y-166772050D01*
X77866339Y-166944624D01*
X77866336Y-166944636D01*
X77837950Y-167123862D01*
X77603750Y-167123862D01*
X77575362Y-166944629D01*
X77519284Y-166772040D01*
X77436899Y-166610349D01*
X77330233Y-166463536D01*
X77330231Y-166463534D01*
X77330224Y-166463526D01*
X77201923Y-166335225D01*
X77201915Y-166335218D01*
X77055102Y-166228552D01*
X77055103Y-166228552D01*
X77055101Y-166228551D01*
X76893410Y-166146166D01*
X76893403Y-166146163D01*
X76893399Y-166146162D01*
X76720825Y-166090089D01*
X76720813Y-166090086D01*
X76541587Y-166061700D01*
X76541585Y-166061700D01*
X76360115Y-166061700D01*
X76360112Y-166061700D01*
X76180886Y-166090086D01*
X76180874Y-166090089D01*
X76008300Y-166146162D01*
X76008292Y-166146165D01*
X76008290Y-166146166D01*
X76008286Y-166146167D01*
X76008286Y-166146168D01*
X75846597Y-166228552D01*
X75699784Y-166335218D01*
X75699776Y-166335225D01*
X75571475Y-166463526D01*
X75571468Y-166463534D01*
X75464802Y-166610347D01*
X75382418Y-166772036D01*
X75382412Y-166772050D01*
X75326339Y-166944624D01*
X75326336Y-166944636D01*
X75297950Y-167123862D01*
X75063750Y-167123862D01*
X75035362Y-166944629D01*
X74979284Y-166772040D01*
X74896899Y-166610349D01*
X74790233Y-166463536D01*
X74790231Y-166463534D01*
X74790224Y-166463526D01*
X74661923Y-166335225D01*
X74661915Y-166335218D01*
X74515102Y-166228552D01*
X74515103Y-166228552D01*
X74515101Y-166228551D01*
X74353410Y-166146166D01*
X74353403Y-166146163D01*
X74353399Y-166146162D01*
X74180825Y-166090089D01*
X74180813Y-166090086D01*
X74001587Y-166061700D01*
X74001585Y-166061700D01*
X73820115Y-166061700D01*
X73820112Y-166061700D01*
X73640886Y-166090086D01*
X73640874Y-166090089D01*
X73468300Y-166146162D01*
X73468292Y-166146165D01*
X73468290Y-166146166D01*
X73468286Y-166146167D01*
X73468286Y-166146168D01*
X73306597Y-166228552D01*
X73159784Y-166335218D01*
X73159776Y-166335225D01*
X73031475Y-166463526D01*
X73031468Y-166463534D01*
X72924802Y-166610347D01*
X72842418Y-166772036D01*
X72842412Y-166772050D01*
X72786339Y-166944624D01*
X72786336Y-166944636D01*
X72757950Y-167123862D01*
X72498350Y-167123862D01*
X72469962Y-166944629D01*
X72413884Y-166772040D01*
X72331499Y-166610349D01*
X72224833Y-166463536D01*
X72224831Y-166463534D01*
X72224824Y-166463526D01*
X72096523Y-166335225D01*
X72096515Y-166335218D01*
X71949702Y-166228552D01*
X71949703Y-166228552D01*
X71949701Y-166228551D01*
X71788010Y-166146166D01*
X71788003Y-166146163D01*
X71787999Y-166146162D01*
X71615425Y-166090089D01*
X71615413Y-166090086D01*
X71436187Y-166061700D01*
X71436185Y-166061700D01*
X71254715Y-166061700D01*
X71254712Y-166061700D01*
X71075486Y-166090086D01*
X71075474Y-166090089D01*
X70902900Y-166146162D01*
X70902892Y-166146165D01*
X70902890Y-166146166D01*
X70902886Y-166146167D01*
X70902886Y-166146168D01*
X70741197Y-166228552D01*
X70594384Y-166335218D01*
X70594376Y-166335225D01*
X70466075Y-166463526D01*
X70466068Y-166463534D01*
X70359402Y-166610347D01*
X70277018Y-166772036D01*
X70277012Y-166772050D01*
X70220939Y-166944624D01*
X70220936Y-166944636D01*
X70192550Y-167123862D01*
X60500500Y-167123862D01*
X60500500Y-140084942D01*
X70266250Y-140084942D01*
X70266250Y-143915055D01*
X70266251Y-143915057D01*
X70275122Y-143959659D01*
X70308914Y-144010232D01*
X70308915Y-144010232D01*
X70308916Y-144010234D01*
X70359492Y-144044028D01*
X70404093Y-144052900D01*
X70810050Y-144052899D01*
X70858387Y-144070492D01*
X70884108Y-144115040D01*
X70885250Y-144128099D01*
X70885250Y-144991461D01*
X70885250Y-145132039D01*
X70921634Y-145267827D01*
X70921634Y-145267829D01*
X70956025Y-145327394D01*
X70966100Y-145364994D01*
X70966100Y-146504033D01*
X70958459Y-146537061D01*
X70907802Y-146640681D01*
X70907801Y-146640681D01*
X70897100Y-146714126D01*
X70897100Y-146854734D01*
X70894538Y-146874195D01*
X70885250Y-146908861D01*
X70885250Y-147049439D01*
X70889971Y-147067058D01*
X70894538Y-147084103D01*
X70897100Y-147103565D01*
X70897100Y-147285858D01*
X70897101Y-147285863D01*
X70907801Y-147359317D01*
X70907802Y-147359319D01*
X70963195Y-147472627D01*
X71052372Y-147561804D01*
X71052373Y-147561804D01*
X71052375Y-147561806D01*
X71165681Y-147617198D01*
X71239137Y-147627900D01*
X71281702Y-147627899D01*
X71330039Y-147645491D01*
X71334877Y-147649925D01*
X75307301Y-151622350D01*
X75329041Y-151668970D01*
X75325647Y-151698762D01*
X75315488Y-151730028D01*
X75315487Y-151730031D01*
X75287100Y-151909262D01*
X75287100Y-152090737D01*
X75315486Y-152269963D01*
X75315488Y-152269971D01*
X75371566Y-152442560D01*
X75453951Y-152604251D01*
X75473856Y-152631647D01*
X75560618Y-152751065D01*
X75560625Y-152751073D01*
X75688926Y-152879374D01*
X75688934Y-152879381D01*
X75688936Y-152879383D01*
X75835749Y-152986049D01*
X75997440Y-153068434D01*
X76170029Y-153124512D01*
X76349265Y-153152900D01*
X76349269Y-153152900D01*
X76530731Y-153152900D01*
X76530735Y-153152900D01*
X76709971Y-153124512D01*
X76882560Y-153068434D01*
X77044251Y-152986049D01*
X77191064Y-152879383D01*
X77319383Y-152751064D01*
X77426049Y-152604251D01*
X77508434Y-152442560D01*
X77564512Y-152269971D01*
X77592900Y-152090735D01*
X77592900Y-151909265D01*
X77592900Y-151909262D01*
X77827100Y-151909262D01*
X77827100Y-152090737D01*
X77855486Y-152269963D01*
X77855488Y-152269971D01*
X77911566Y-152442560D01*
X77993951Y-152604251D01*
X78013856Y-152631647D01*
X78100618Y-152751065D01*
X78100625Y-152751073D01*
X78228926Y-152879374D01*
X78228934Y-152879381D01*
X78228936Y-152879383D01*
X78375749Y-152986049D01*
X78537440Y-153068434D01*
X78710029Y-153124512D01*
X78889265Y-153152900D01*
X78889269Y-153152900D01*
X79070731Y-153152900D01*
X79070735Y-153152900D01*
X79249971Y-153124512D01*
X79422560Y-153068434D01*
X79584251Y-152986049D01*
X79731064Y-152879383D01*
X79859383Y-152751064D01*
X79966049Y-152604251D01*
X80048434Y-152442560D01*
X80104512Y-152269971D01*
X80132900Y-152090735D01*
X80132900Y-151909265D01*
X80132900Y-151909262D01*
X80367100Y-151909262D01*
X80367100Y-152090737D01*
X80395486Y-152269963D01*
X80395488Y-152269971D01*
X80451566Y-152442560D01*
X80533951Y-152604251D01*
X80553856Y-152631647D01*
X80640618Y-152751065D01*
X80640625Y-152751073D01*
X80768926Y-152879374D01*
X80768934Y-152879381D01*
X80768936Y-152879383D01*
X80915749Y-152986049D01*
X81077440Y-153068434D01*
X81250029Y-153124512D01*
X81429265Y-153152900D01*
X81429269Y-153152900D01*
X81610731Y-153152900D01*
X81610735Y-153152900D01*
X81789971Y-153124512D01*
X81962560Y-153068434D01*
X82124251Y-152986049D01*
X82271064Y-152879383D01*
X82399383Y-152751064D01*
X82506049Y-152604251D01*
X82588434Y-152442560D01*
X82644512Y-152269971D01*
X82672900Y-152090735D01*
X82672900Y-151909265D01*
X82672900Y-151909262D01*
X82907100Y-151909262D01*
X82907100Y-152090737D01*
X82935486Y-152269963D01*
X82935488Y-152269971D01*
X82991566Y-152442560D01*
X83073951Y-152604251D01*
X83093856Y-152631647D01*
X83180618Y-152751065D01*
X83180625Y-152751073D01*
X83308926Y-152879374D01*
X83308934Y-152879381D01*
X83308936Y-152879383D01*
X83455749Y-152986049D01*
X83617440Y-153068434D01*
X83790029Y-153124512D01*
X83969265Y-153152900D01*
X83969269Y-153152900D01*
X84150731Y-153152900D01*
X84150735Y-153152900D01*
X84329971Y-153124512D01*
X84502560Y-153068434D01*
X84664251Y-152986049D01*
X84811064Y-152879383D01*
X84939383Y-152751064D01*
X85046049Y-152604251D01*
X85128434Y-152442560D01*
X85184512Y-152269971D01*
X85212900Y-152090735D01*
X85212900Y-151909265D01*
X85212900Y-151909262D01*
X85447100Y-151909262D01*
X85447100Y-152090737D01*
X85475486Y-152269963D01*
X85475488Y-152269971D01*
X85531566Y-152442560D01*
X85613951Y-152604251D01*
X85633856Y-152631647D01*
X85720618Y-152751065D01*
X85720625Y-152751073D01*
X85848926Y-152879374D01*
X85848934Y-152879381D01*
X85848936Y-152879383D01*
X85995749Y-152986049D01*
X86157440Y-153068434D01*
X86330029Y-153124512D01*
X86509265Y-153152900D01*
X86509269Y-153152900D01*
X86690731Y-153152900D01*
X86690735Y-153152900D01*
X86869971Y-153124512D01*
X87042560Y-153068434D01*
X87204251Y-152986049D01*
X87351064Y-152879383D01*
X87479383Y-152751064D01*
X87586049Y-152604251D01*
X87668434Y-152442560D01*
X87724512Y-152269971D01*
X87752900Y-152090735D01*
X87752900Y-151909265D01*
X87752900Y-151909262D01*
X87987100Y-151909262D01*
X87987100Y-152090737D01*
X88015486Y-152269963D01*
X88015488Y-152269971D01*
X88071566Y-152442560D01*
X88153951Y-152604251D01*
X88173856Y-152631647D01*
X88260618Y-152751065D01*
X88260625Y-152751073D01*
X88388926Y-152879374D01*
X88388934Y-152879381D01*
X88388936Y-152879383D01*
X88535749Y-152986049D01*
X88697440Y-153068434D01*
X88870029Y-153124512D01*
X89049265Y-153152900D01*
X89049269Y-153152900D01*
X89230731Y-153152900D01*
X89230735Y-153152900D01*
X89409971Y-153124512D01*
X89582560Y-153068434D01*
X89744251Y-152986049D01*
X89891064Y-152879383D01*
X90019383Y-152751064D01*
X90126049Y-152604251D01*
X90208434Y-152442560D01*
X90264512Y-152269971D01*
X90292900Y-152090735D01*
X90292900Y-151909265D01*
X90292900Y-151909262D01*
X90527100Y-151909262D01*
X90527100Y-152090737D01*
X90555486Y-152269963D01*
X90555488Y-152269971D01*
X90611566Y-152442560D01*
X90693951Y-152604251D01*
X90713856Y-152631647D01*
X90800618Y-152751065D01*
X90800625Y-152751073D01*
X90928926Y-152879374D01*
X90928934Y-152879381D01*
X90928936Y-152879383D01*
X91075749Y-152986049D01*
X91237440Y-153068434D01*
X91410029Y-153124512D01*
X91589265Y-153152900D01*
X91589269Y-153152900D01*
X91770731Y-153152900D01*
X91770735Y-153152900D01*
X91949971Y-153124512D01*
X92122560Y-153068434D01*
X92284251Y-152986049D01*
X92431064Y-152879383D01*
X92559383Y-152751064D01*
X92666049Y-152604251D01*
X92748434Y-152442560D01*
X92804512Y-152269971D01*
X92832900Y-152090735D01*
X92832900Y-151909265D01*
X92832900Y-151909262D01*
X93067100Y-151909262D01*
X93067100Y-152090737D01*
X93095486Y-152269963D01*
X93095488Y-152269971D01*
X93151566Y-152442560D01*
X93233951Y-152604251D01*
X93253856Y-152631647D01*
X93340618Y-152751065D01*
X93340625Y-152751073D01*
X93468926Y-152879374D01*
X93468934Y-152879381D01*
X93468936Y-152879383D01*
X93615749Y-152986049D01*
X93777440Y-153068434D01*
X93950029Y-153124512D01*
X94129265Y-153152900D01*
X94129269Y-153152900D01*
X94310731Y-153152900D01*
X94310735Y-153152900D01*
X94489971Y-153124512D01*
X94662560Y-153068434D01*
X94824251Y-152986049D01*
X94971064Y-152879383D01*
X95099383Y-152751064D01*
X95206049Y-152604251D01*
X95288434Y-152442560D01*
X95344512Y-152269971D01*
X95372900Y-152090735D01*
X95372900Y-151909265D01*
X95372900Y-151909262D01*
X95607100Y-151909262D01*
X95607100Y-152090737D01*
X95635486Y-152269963D01*
X95635488Y-152269971D01*
X95691566Y-152442560D01*
X95773951Y-152604251D01*
X95793856Y-152631647D01*
X95880618Y-152751065D01*
X95880625Y-152751073D01*
X96008926Y-152879374D01*
X96008934Y-152879381D01*
X96008936Y-152879383D01*
X96155749Y-152986049D01*
X96317440Y-153068434D01*
X96490029Y-153124512D01*
X96669265Y-153152900D01*
X96669269Y-153152900D01*
X96850731Y-153152900D01*
X96850735Y-153152900D01*
X97029971Y-153124512D01*
X97202560Y-153068434D01*
X97364251Y-152986049D01*
X97511064Y-152879383D01*
X97639383Y-152751064D01*
X97746049Y-152604251D01*
X97828434Y-152442560D01*
X97884512Y-152269971D01*
X97912900Y-152090735D01*
X97912900Y-151909265D01*
X97912900Y-151909262D01*
X98147100Y-151909262D01*
X98147100Y-152090737D01*
X98175486Y-152269963D01*
X98175488Y-152269971D01*
X98231566Y-152442560D01*
X98313951Y-152604251D01*
X98333856Y-152631647D01*
X98420618Y-152751065D01*
X98420625Y-152751073D01*
X98548926Y-152879374D01*
X98548934Y-152879381D01*
X98548936Y-152879383D01*
X98695749Y-152986049D01*
X98857440Y-153068434D01*
X99030029Y-153124512D01*
X99209265Y-153152900D01*
X99209269Y-153152900D01*
X99390731Y-153152900D01*
X99390735Y-153152900D01*
X99569971Y-153124512D01*
X99742560Y-153068434D01*
X99904251Y-152986049D01*
X100051064Y-152879383D01*
X100179383Y-152751064D01*
X100286049Y-152604251D01*
X100368434Y-152442560D01*
X100424512Y-152269971D01*
X100452900Y-152090735D01*
X100452900Y-151909265D01*
X100452900Y-151909262D01*
X100687100Y-151909262D01*
X100687100Y-152090737D01*
X100715486Y-152269963D01*
X100715488Y-152269971D01*
X100771566Y-152442560D01*
X100853951Y-152604251D01*
X100873856Y-152631647D01*
X100960618Y-152751065D01*
X100960625Y-152751073D01*
X101088926Y-152879374D01*
X101088934Y-152879381D01*
X101088936Y-152879383D01*
X101235749Y-152986049D01*
X101397440Y-153068434D01*
X101570029Y-153124512D01*
X101749265Y-153152900D01*
X101749269Y-153152900D01*
X101930731Y-153152900D01*
X101930735Y-153152900D01*
X102109971Y-153124512D01*
X102282560Y-153068434D01*
X102444251Y-152986049D01*
X102591064Y-152879383D01*
X102719383Y-152751064D01*
X102826049Y-152604251D01*
X102908434Y-152442560D01*
X102964512Y-152269971D01*
X102992900Y-152090735D01*
X102992900Y-151909265D01*
X102992900Y-151909262D01*
X103227100Y-151909262D01*
X103227100Y-152090737D01*
X103255486Y-152269963D01*
X103255488Y-152269971D01*
X103311566Y-152442560D01*
X103393951Y-152604251D01*
X103413856Y-152631647D01*
X103500618Y-152751065D01*
X103500625Y-152751073D01*
X103628926Y-152879374D01*
X103628934Y-152879381D01*
X103628936Y-152879383D01*
X103775749Y-152986049D01*
X103937440Y-153068434D01*
X104110029Y-153124512D01*
X104289265Y-153152900D01*
X104289269Y-153152900D01*
X104470731Y-153152900D01*
X104470735Y-153152900D01*
X104649971Y-153124512D01*
X104822560Y-153068434D01*
X104984251Y-152986049D01*
X105131064Y-152879383D01*
X105259383Y-152751064D01*
X105366049Y-152604251D01*
X105448434Y-152442560D01*
X105504512Y-152269971D01*
X105532900Y-152090735D01*
X105532900Y-151909265D01*
X105532900Y-151909262D01*
X105767100Y-151909262D01*
X105767100Y-152090737D01*
X105795486Y-152269963D01*
X105795488Y-152269971D01*
X105851566Y-152442560D01*
X105933951Y-152604251D01*
X105953856Y-152631647D01*
X106040618Y-152751065D01*
X106040625Y-152751073D01*
X106168926Y-152879374D01*
X106168934Y-152879381D01*
X106168936Y-152879383D01*
X106315749Y-152986049D01*
X106477440Y-153068434D01*
X106650029Y-153124512D01*
X106829265Y-153152900D01*
X106829269Y-153152900D01*
X107010731Y-153152900D01*
X107010735Y-153152900D01*
X107189971Y-153124512D01*
X107362560Y-153068434D01*
X107524251Y-152986049D01*
X107671064Y-152879383D01*
X107799383Y-152751064D01*
X107906049Y-152604251D01*
X107988434Y-152442560D01*
X108044512Y-152269971D01*
X108072900Y-152090735D01*
X108072900Y-151909265D01*
X108072900Y-151909262D01*
X108307100Y-151909262D01*
X108307100Y-152090737D01*
X108335486Y-152269963D01*
X108335488Y-152269971D01*
X108391566Y-152442560D01*
X108473951Y-152604251D01*
X108493856Y-152631647D01*
X108580618Y-152751065D01*
X108580625Y-152751073D01*
X108708926Y-152879374D01*
X108708934Y-152879381D01*
X108708936Y-152879383D01*
X108855749Y-152986049D01*
X109017440Y-153068434D01*
X109190029Y-153124512D01*
X109369265Y-153152900D01*
X109369269Y-153152900D01*
X109550731Y-153152900D01*
X109550735Y-153152900D01*
X109729971Y-153124512D01*
X109902560Y-153068434D01*
X110064251Y-152986049D01*
X110211064Y-152879383D01*
X110339383Y-152751064D01*
X110446049Y-152604251D01*
X110528434Y-152442560D01*
X110584512Y-152269971D01*
X110612900Y-152090735D01*
X110612900Y-151909265D01*
X110612900Y-151909262D01*
X110847100Y-151909262D01*
X110847100Y-152090737D01*
X110875486Y-152269963D01*
X110875488Y-152269971D01*
X110931566Y-152442560D01*
X111013951Y-152604251D01*
X111033856Y-152631647D01*
X111120618Y-152751065D01*
X111120625Y-152751073D01*
X111248926Y-152879374D01*
X111248934Y-152879381D01*
X111248936Y-152879383D01*
X111395749Y-152986049D01*
X111557440Y-153068434D01*
X111730029Y-153124512D01*
X111909265Y-153152900D01*
X111909269Y-153152900D01*
X112090731Y-153152900D01*
X112090735Y-153152900D01*
X112269971Y-153124512D01*
X112442560Y-153068434D01*
X112604251Y-152986049D01*
X112751064Y-152879383D01*
X112879383Y-152751064D01*
X112986049Y-152604251D01*
X113068434Y-152442560D01*
X113124512Y-152269971D01*
X113152900Y-152090735D01*
X113152900Y-151909265D01*
X113152900Y-151909262D01*
X113387100Y-151909262D01*
X113387100Y-152090737D01*
X113415486Y-152269963D01*
X113415488Y-152269971D01*
X113471566Y-152442560D01*
X113553951Y-152604251D01*
X113573856Y-152631647D01*
X113660618Y-152751065D01*
X113660625Y-152751073D01*
X113788926Y-152879374D01*
X113788934Y-152879381D01*
X113788936Y-152879383D01*
X113935749Y-152986049D01*
X114097440Y-153068434D01*
X114270029Y-153124512D01*
X114449265Y-153152900D01*
X114449269Y-153152900D01*
X114630731Y-153152900D01*
X114630735Y-153152900D01*
X114809971Y-153124512D01*
X114982560Y-153068434D01*
X115144251Y-152986049D01*
X115291064Y-152879383D01*
X115419383Y-152751064D01*
X115526049Y-152604251D01*
X115608434Y-152442560D01*
X115664512Y-152269971D01*
X115692900Y-152090735D01*
X115692900Y-151909265D01*
X115692900Y-151909262D01*
X115927100Y-151909262D01*
X115927100Y-152090737D01*
X115955486Y-152269963D01*
X115955488Y-152269971D01*
X116011566Y-152442560D01*
X116093951Y-152604251D01*
X116113856Y-152631647D01*
X116200618Y-152751065D01*
X116200625Y-152751073D01*
X116328926Y-152879374D01*
X116328934Y-152879381D01*
X116328936Y-152879383D01*
X116475749Y-152986049D01*
X116637440Y-153068434D01*
X116810029Y-153124512D01*
X116989265Y-153152900D01*
X116989269Y-153152900D01*
X117170731Y-153152900D01*
X117170735Y-153152900D01*
X117349971Y-153124512D01*
X117522560Y-153068434D01*
X117684251Y-152986049D01*
X117831064Y-152879383D01*
X117959383Y-152751064D01*
X118066049Y-152604251D01*
X118148434Y-152442560D01*
X118204512Y-152269971D01*
X118232900Y-152090735D01*
X118232900Y-151909265D01*
X118204512Y-151730029D01*
X118148434Y-151557440D01*
X118066049Y-151395749D01*
X117959383Y-151248936D01*
X117959381Y-151248934D01*
X117959374Y-151248926D01*
X117831073Y-151120625D01*
X117831065Y-151120618D01*
X117697949Y-151023903D01*
X117684251Y-151013951D01*
X117522560Y-150931566D01*
X117522553Y-150931563D01*
X117522549Y-150931562D01*
X117349975Y-150875489D01*
X117349963Y-150875486D01*
X117170737Y-150847100D01*
X117170735Y-150847100D01*
X116989265Y-150847100D01*
X116989262Y-150847100D01*
X116810036Y-150875486D01*
X116810024Y-150875489D01*
X116637450Y-150931562D01*
X116637442Y-150931565D01*
X116637440Y-150931566D01*
X116637436Y-150931567D01*
X116637436Y-150931568D01*
X116475747Y-151013952D01*
X116328934Y-151120618D01*
X116328926Y-151120625D01*
X116200625Y-151248926D01*
X116200618Y-151248934D01*
X116093952Y-151395747D01*
X116011568Y-151557436D01*
X116011562Y-151557450D01*
X115955489Y-151730024D01*
X115955486Y-151730036D01*
X115927100Y-151909262D01*
X115692900Y-151909262D01*
X115664512Y-151730029D01*
X115608434Y-151557440D01*
X115526049Y-151395749D01*
X115419383Y-151248936D01*
X115419381Y-151248934D01*
X115419374Y-151248926D01*
X115291073Y-151120625D01*
X115291065Y-151120618D01*
X115157949Y-151023903D01*
X115144251Y-151013951D01*
X114982560Y-150931566D01*
X114982553Y-150931563D01*
X114982549Y-150931562D01*
X114809975Y-150875489D01*
X114809963Y-150875486D01*
X114630737Y-150847100D01*
X114630735Y-150847100D01*
X114449265Y-150847100D01*
X114449262Y-150847100D01*
X114270036Y-150875486D01*
X114270024Y-150875489D01*
X114097450Y-150931562D01*
X114097442Y-150931565D01*
X114097440Y-150931566D01*
X114097436Y-150931567D01*
X114097436Y-150931568D01*
X113935747Y-151013952D01*
X113788934Y-151120618D01*
X113788926Y-151120625D01*
X113660625Y-151248926D01*
X113660618Y-151248934D01*
X113553952Y-151395747D01*
X113471568Y-151557436D01*
X113471562Y-151557450D01*
X113415489Y-151730024D01*
X113415486Y-151730036D01*
X113387100Y-151909262D01*
X113152900Y-151909262D01*
X113124512Y-151730029D01*
X113068434Y-151557440D01*
X112986049Y-151395749D01*
X112879383Y-151248936D01*
X112879381Y-151248934D01*
X112879374Y-151248926D01*
X112751073Y-151120625D01*
X112751065Y-151120618D01*
X112617949Y-151023903D01*
X112604251Y-151013951D01*
X112442560Y-150931566D01*
X112442553Y-150931563D01*
X112442549Y-150931562D01*
X112269975Y-150875489D01*
X112269963Y-150875486D01*
X112090737Y-150847100D01*
X112090735Y-150847100D01*
X111909265Y-150847100D01*
X111909262Y-150847100D01*
X111730036Y-150875486D01*
X111730024Y-150875489D01*
X111557450Y-150931562D01*
X111557442Y-150931565D01*
X111557440Y-150931566D01*
X111557436Y-150931567D01*
X111557436Y-150931568D01*
X111395747Y-151013952D01*
X111248934Y-151120618D01*
X111248926Y-151120625D01*
X111120625Y-151248926D01*
X111120618Y-151248934D01*
X111013952Y-151395747D01*
X110931568Y-151557436D01*
X110931562Y-151557450D01*
X110875489Y-151730024D01*
X110875486Y-151730036D01*
X110847100Y-151909262D01*
X110612900Y-151909262D01*
X110584512Y-151730029D01*
X110528434Y-151557440D01*
X110446049Y-151395749D01*
X110339383Y-151248936D01*
X110339381Y-151248934D01*
X110339374Y-151248926D01*
X110211073Y-151120625D01*
X110211065Y-151120618D01*
X110077949Y-151023903D01*
X110064251Y-151013951D01*
X109902560Y-150931566D01*
X109902553Y-150931563D01*
X109902549Y-150931562D01*
X109729975Y-150875489D01*
X109729963Y-150875486D01*
X109550737Y-150847100D01*
X109550735Y-150847100D01*
X109369265Y-150847100D01*
X109369262Y-150847100D01*
X109190036Y-150875486D01*
X109190024Y-150875489D01*
X109017450Y-150931562D01*
X109017442Y-150931565D01*
X109017440Y-150931566D01*
X109017436Y-150931567D01*
X109017436Y-150931568D01*
X108855747Y-151013952D01*
X108708934Y-151120618D01*
X108708926Y-151120625D01*
X108580625Y-151248926D01*
X108580618Y-151248934D01*
X108473952Y-151395747D01*
X108391568Y-151557436D01*
X108391562Y-151557450D01*
X108335489Y-151730024D01*
X108335486Y-151730036D01*
X108307100Y-151909262D01*
X108072900Y-151909262D01*
X108044512Y-151730029D01*
X107988434Y-151557440D01*
X107906049Y-151395749D01*
X107799383Y-151248936D01*
X107799381Y-151248934D01*
X107799374Y-151248926D01*
X107671073Y-151120625D01*
X107671065Y-151120618D01*
X107537949Y-151023903D01*
X107524251Y-151013951D01*
X107362560Y-150931566D01*
X107362553Y-150931563D01*
X107362549Y-150931562D01*
X107189975Y-150875489D01*
X107189963Y-150875486D01*
X107010737Y-150847100D01*
X107010735Y-150847100D01*
X106829265Y-150847100D01*
X106829262Y-150847100D01*
X106650036Y-150875486D01*
X106650024Y-150875489D01*
X106477450Y-150931562D01*
X106477442Y-150931565D01*
X106477440Y-150931566D01*
X106477436Y-150931567D01*
X106477436Y-150931568D01*
X106315747Y-151013952D01*
X106168934Y-151120618D01*
X106168926Y-151120625D01*
X106040625Y-151248926D01*
X106040618Y-151248934D01*
X105933952Y-151395747D01*
X105851568Y-151557436D01*
X105851562Y-151557450D01*
X105795489Y-151730024D01*
X105795486Y-151730036D01*
X105767100Y-151909262D01*
X105532900Y-151909262D01*
X105504512Y-151730029D01*
X105448434Y-151557440D01*
X105366049Y-151395749D01*
X105259383Y-151248936D01*
X105259381Y-151248934D01*
X105259374Y-151248926D01*
X105131073Y-151120625D01*
X105131065Y-151120618D01*
X104997949Y-151023903D01*
X104984251Y-151013951D01*
X104822560Y-150931566D01*
X104822553Y-150931563D01*
X104822549Y-150931562D01*
X104649975Y-150875489D01*
X104649963Y-150875486D01*
X104470737Y-150847100D01*
X104470735Y-150847100D01*
X104289265Y-150847100D01*
X104289262Y-150847100D01*
X104110036Y-150875486D01*
X104110024Y-150875489D01*
X103937450Y-150931562D01*
X103937442Y-150931565D01*
X103937440Y-150931566D01*
X103937436Y-150931567D01*
X103937436Y-150931568D01*
X103775747Y-151013952D01*
X103628934Y-151120618D01*
X103628926Y-151120625D01*
X103500625Y-151248926D01*
X103500618Y-151248934D01*
X103393952Y-151395747D01*
X103311568Y-151557436D01*
X103311562Y-151557450D01*
X103255489Y-151730024D01*
X103255486Y-151730036D01*
X103227100Y-151909262D01*
X102992900Y-151909262D01*
X102964512Y-151730029D01*
X102908434Y-151557440D01*
X102826049Y-151395749D01*
X102719383Y-151248936D01*
X102719381Y-151248934D01*
X102719374Y-151248926D01*
X102591073Y-151120625D01*
X102591065Y-151120618D01*
X102457949Y-151023903D01*
X102444251Y-151013951D01*
X102282560Y-150931566D01*
X102282553Y-150931563D01*
X102282549Y-150931562D01*
X102109975Y-150875489D01*
X102109963Y-150875486D01*
X101930737Y-150847100D01*
X101930735Y-150847100D01*
X101749265Y-150847100D01*
X101749262Y-150847100D01*
X101570036Y-150875486D01*
X101570024Y-150875489D01*
X101397450Y-150931562D01*
X101397442Y-150931565D01*
X101397440Y-150931566D01*
X101397436Y-150931567D01*
X101397436Y-150931568D01*
X101235747Y-151013952D01*
X101088934Y-151120618D01*
X101088926Y-151120625D01*
X100960625Y-151248926D01*
X100960618Y-151248934D01*
X100853952Y-151395747D01*
X100771568Y-151557436D01*
X100771562Y-151557450D01*
X100715489Y-151730024D01*
X100715486Y-151730036D01*
X100687100Y-151909262D01*
X100452900Y-151909262D01*
X100424512Y-151730029D01*
X100368434Y-151557440D01*
X100286049Y-151395749D01*
X100179383Y-151248936D01*
X100179381Y-151248934D01*
X100179374Y-151248926D01*
X100051073Y-151120625D01*
X100051065Y-151120618D01*
X99917949Y-151023903D01*
X99904251Y-151013951D01*
X99742560Y-150931566D01*
X99742553Y-150931563D01*
X99742549Y-150931562D01*
X99569975Y-150875489D01*
X99569963Y-150875486D01*
X99390737Y-150847100D01*
X99390735Y-150847100D01*
X99209265Y-150847100D01*
X99209262Y-150847100D01*
X99030036Y-150875486D01*
X99030024Y-150875489D01*
X98857450Y-150931562D01*
X98857442Y-150931565D01*
X98857440Y-150931566D01*
X98857436Y-150931567D01*
X98857436Y-150931568D01*
X98695747Y-151013952D01*
X98548934Y-151120618D01*
X98548926Y-151120625D01*
X98420625Y-151248926D01*
X98420618Y-151248934D01*
X98313952Y-151395747D01*
X98231568Y-151557436D01*
X98231562Y-151557450D01*
X98175489Y-151730024D01*
X98175486Y-151730036D01*
X98147100Y-151909262D01*
X97912900Y-151909262D01*
X97884512Y-151730029D01*
X97828434Y-151557440D01*
X97746049Y-151395749D01*
X97639383Y-151248936D01*
X97639381Y-151248934D01*
X97639374Y-151248926D01*
X97511073Y-151120625D01*
X97511065Y-151120618D01*
X97377949Y-151023903D01*
X97364251Y-151013951D01*
X97202560Y-150931566D01*
X97202553Y-150931563D01*
X97202549Y-150931562D01*
X97029975Y-150875489D01*
X97029963Y-150875486D01*
X96850737Y-150847100D01*
X96850735Y-150847100D01*
X96669265Y-150847100D01*
X96669262Y-150847100D01*
X96490036Y-150875486D01*
X96490024Y-150875489D01*
X96317450Y-150931562D01*
X96317442Y-150931565D01*
X96317440Y-150931566D01*
X96317436Y-150931567D01*
X96317436Y-150931568D01*
X96155747Y-151013952D01*
X96008934Y-151120618D01*
X96008926Y-151120625D01*
X95880625Y-151248926D01*
X95880618Y-151248934D01*
X95773952Y-151395747D01*
X95691568Y-151557436D01*
X95691562Y-151557450D01*
X95635489Y-151730024D01*
X95635486Y-151730036D01*
X95607100Y-151909262D01*
X95372900Y-151909262D01*
X95344512Y-151730029D01*
X95288434Y-151557440D01*
X95206049Y-151395749D01*
X95099383Y-151248936D01*
X95099381Y-151248934D01*
X95099374Y-151248926D01*
X94971073Y-151120625D01*
X94971065Y-151120618D01*
X94837949Y-151023903D01*
X94824251Y-151013951D01*
X94662560Y-150931566D01*
X94662553Y-150931563D01*
X94662549Y-150931562D01*
X94489975Y-150875489D01*
X94489963Y-150875486D01*
X94310737Y-150847100D01*
X94310735Y-150847100D01*
X94129265Y-150847100D01*
X94129262Y-150847100D01*
X93950036Y-150875486D01*
X93950024Y-150875489D01*
X93777450Y-150931562D01*
X93777442Y-150931565D01*
X93777440Y-150931566D01*
X93777436Y-150931567D01*
X93777436Y-150931568D01*
X93615747Y-151013952D01*
X93468934Y-151120618D01*
X93468926Y-151120625D01*
X93340625Y-151248926D01*
X93340618Y-151248934D01*
X93233952Y-151395747D01*
X93151568Y-151557436D01*
X93151562Y-151557450D01*
X93095489Y-151730024D01*
X93095486Y-151730036D01*
X93067100Y-151909262D01*
X92832900Y-151909262D01*
X92804512Y-151730029D01*
X92748434Y-151557440D01*
X92666049Y-151395749D01*
X92559383Y-151248936D01*
X92559381Y-151248934D01*
X92559374Y-151248926D01*
X92431073Y-151120625D01*
X92431065Y-151120618D01*
X92297949Y-151023903D01*
X92284251Y-151013951D01*
X92122560Y-150931566D01*
X92122553Y-150931563D01*
X92122549Y-150931562D01*
X91949975Y-150875489D01*
X91949963Y-150875486D01*
X91770737Y-150847100D01*
X91770735Y-150847100D01*
X91589265Y-150847100D01*
X91589262Y-150847100D01*
X91410036Y-150875486D01*
X91410024Y-150875489D01*
X91237450Y-150931562D01*
X91237442Y-150931565D01*
X91237440Y-150931566D01*
X91237436Y-150931567D01*
X91237436Y-150931568D01*
X91075747Y-151013952D01*
X90928934Y-151120618D01*
X90928926Y-151120625D01*
X90800625Y-151248926D01*
X90800618Y-151248934D01*
X90693952Y-151395747D01*
X90611568Y-151557436D01*
X90611562Y-151557450D01*
X90555489Y-151730024D01*
X90555486Y-151730036D01*
X90527100Y-151909262D01*
X90292900Y-151909262D01*
X90264512Y-151730029D01*
X90208434Y-151557440D01*
X90126049Y-151395749D01*
X90019383Y-151248936D01*
X90019381Y-151248934D01*
X90019374Y-151248926D01*
X89891073Y-151120625D01*
X89891065Y-151120618D01*
X89757949Y-151023903D01*
X89744251Y-151013951D01*
X89582560Y-150931566D01*
X89582553Y-150931563D01*
X89582549Y-150931562D01*
X89409975Y-150875489D01*
X89409963Y-150875486D01*
X89230737Y-150847100D01*
X89230735Y-150847100D01*
X89049265Y-150847100D01*
X89049262Y-150847100D01*
X88870036Y-150875486D01*
X88870024Y-150875489D01*
X88697450Y-150931562D01*
X88697442Y-150931565D01*
X88697440Y-150931566D01*
X88697436Y-150931567D01*
X88697436Y-150931568D01*
X88535747Y-151013952D01*
X88388934Y-151120618D01*
X88388926Y-151120625D01*
X88260625Y-151248926D01*
X88260618Y-151248934D01*
X88153952Y-151395747D01*
X88071568Y-151557436D01*
X88071562Y-151557450D01*
X88015489Y-151730024D01*
X88015486Y-151730036D01*
X87987100Y-151909262D01*
X87752900Y-151909262D01*
X87724512Y-151730029D01*
X87668434Y-151557440D01*
X87586049Y-151395749D01*
X87479383Y-151248936D01*
X87479381Y-151248934D01*
X87479374Y-151248926D01*
X87351073Y-151120625D01*
X87351065Y-151120618D01*
X87217949Y-151023903D01*
X87204251Y-151013951D01*
X87042560Y-150931566D01*
X87042553Y-150931563D01*
X87042549Y-150931562D01*
X86869975Y-150875489D01*
X86869963Y-150875486D01*
X86690737Y-150847100D01*
X86690735Y-150847100D01*
X86509265Y-150847100D01*
X86509262Y-150847100D01*
X86330036Y-150875486D01*
X86330024Y-150875489D01*
X86157450Y-150931562D01*
X86157442Y-150931565D01*
X86157440Y-150931566D01*
X86157436Y-150931567D01*
X86157436Y-150931568D01*
X85995747Y-151013952D01*
X85848934Y-151120618D01*
X85848926Y-151120625D01*
X85720625Y-151248926D01*
X85720618Y-151248934D01*
X85613952Y-151395747D01*
X85531568Y-151557436D01*
X85531562Y-151557450D01*
X85475489Y-151730024D01*
X85475486Y-151730036D01*
X85447100Y-151909262D01*
X85212900Y-151909262D01*
X85184512Y-151730029D01*
X85128434Y-151557440D01*
X85046049Y-151395749D01*
X84939383Y-151248936D01*
X84939381Y-151248934D01*
X84939374Y-151248926D01*
X84811073Y-151120625D01*
X84811065Y-151120618D01*
X84677949Y-151023903D01*
X84664251Y-151013951D01*
X84502560Y-150931566D01*
X84502553Y-150931563D01*
X84502549Y-150931562D01*
X84329975Y-150875489D01*
X84329963Y-150875486D01*
X84150737Y-150847100D01*
X84150735Y-150847100D01*
X83969265Y-150847100D01*
X83969262Y-150847100D01*
X83790036Y-150875486D01*
X83790024Y-150875489D01*
X83617450Y-150931562D01*
X83617442Y-150931565D01*
X83617440Y-150931566D01*
X83617436Y-150931567D01*
X83617436Y-150931568D01*
X83455747Y-151013952D01*
X83308934Y-151120618D01*
X83308926Y-151120625D01*
X83180625Y-151248926D01*
X83180618Y-151248934D01*
X83073952Y-151395747D01*
X82991568Y-151557436D01*
X82991562Y-151557450D01*
X82935489Y-151730024D01*
X82935486Y-151730036D01*
X82907100Y-151909262D01*
X82672900Y-151909262D01*
X82644512Y-151730029D01*
X82588434Y-151557440D01*
X82506049Y-151395749D01*
X82399383Y-151248936D01*
X82399381Y-151248934D01*
X82399374Y-151248926D01*
X82271073Y-151120625D01*
X82271065Y-151120618D01*
X82137949Y-151023903D01*
X82124251Y-151013951D01*
X81962560Y-150931566D01*
X81962553Y-150931563D01*
X81962549Y-150931562D01*
X81789975Y-150875489D01*
X81789963Y-150875486D01*
X81610737Y-150847100D01*
X81610735Y-150847100D01*
X81429265Y-150847100D01*
X81429262Y-150847100D01*
X81250036Y-150875486D01*
X81250024Y-150875489D01*
X81077450Y-150931562D01*
X81077442Y-150931565D01*
X81077440Y-150931566D01*
X81077436Y-150931567D01*
X81077436Y-150931568D01*
X80915747Y-151013952D01*
X80768934Y-151120618D01*
X80768926Y-151120625D01*
X80640625Y-151248926D01*
X80640618Y-151248934D01*
X80533952Y-151395747D01*
X80451568Y-151557436D01*
X80451562Y-151557450D01*
X80395489Y-151730024D01*
X80395486Y-151730036D01*
X80367100Y-151909262D01*
X80132900Y-151909262D01*
X80104512Y-151730029D01*
X80048434Y-151557440D01*
X79966049Y-151395749D01*
X79859383Y-151248936D01*
X79859381Y-151248934D01*
X79859374Y-151248926D01*
X79731073Y-151120625D01*
X79731065Y-151120618D01*
X79597949Y-151023903D01*
X79584251Y-151013951D01*
X79422560Y-150931566D01*
X79422553Y-150931563D01*
X79422549Y-150931562D01*
X79249975Y-150875489D01*
X79249963Y-150875486D01*
X79070737Y-150847100D01*
X79070735Y-150847100D01*
X78889265Y-150847100D01*
X78889262Y-150847100D01*
X78710036Y-150875486D01*
X78710024Y-150875489D01*
X78537450Y-150931562D01*
X78537442Y-150931565D01*
X78537440Y-150931566D01*
X78537436Y-150931567D01*
X78537436Y-150931568D01*
X78375747Y-151013952D01*
X78228934Y-151120618D01*
X78228926Y-151120625D01*
X78100625Y-151248926D01*
X78100618Y-151248934D01*
X77993952Y-151395747D01*
X77911568Y-151557436D01*
X77911562Y-151557450D01*
X77855489Y-151730024D01*
X77855486Y-151730036D01*
X77827100Y-151909262D01*
X77592900Y-151909262D01*
X77564512Y-151730029D01*
X77508434Y-151557440D01*
X77426049Y-151395749D01*
X77319383Y-151248936D01*
X77319381Y-151248934D01*
X77319374Y-151248926D01*
X77191073Y-151120625D01*
X77191065Y-151120618D01*
X77057949Y-151023903D01*
X77044251Y-151013951D01*
X76882560Y-150931566D01*
X76882553Y-150931563D01*
X76882549Y-150931562D01*
X76709975Y-150875489D01*
X76709963Y-150875486D01*
X76530737Y-150847100D01*
X76530735Y-150847100D01*
X76349265Y-150847100D01*
X76349262Y-150847100D01*
X76170031Y-150875487D01*
X76170028Y-150875488D01*
X76138762Y-150885647D01*
X76087353Y-150883851D01*
X76062350Y-150867301D01*
X72857322Y-147662274D01*
X72835582Y-147615654D01*
X72848896Y-147565967D01*
X72891033Y-147536462D01*
X72910496Y-147533900D01*
X114690289Y-147533900D01*
X114701802Y-147530815D01*
X114753046Y-147535297D01*
X114774440Y-147550278D01*
X118590577Y-151366415D01*
X118612317Y-151413035D01*
X118604407Y-151453728D01*
X118551570Y-151557430D01*
X118551562Y-151557450D01*
X118495489Y-151730024D01*
X118495486Y-151730036D01*
X118467100Y-151909262D01*
X118467100Y-152090737D01*
X118495486Y-152269963D01*
X118495488Y-152269971D01*
X118551566Y-152442560D01*
X118633951Y-152604251D01*
X118653856Y-152631647D01*
X118740618Y-152751065D01*
X118740625Y-152751073D01*
X118868926Y-152879374D01*
X118868934Y-152879381D01*
X118868936Y-152879383D01*
X119015749Y-152986049D01*
X119177440Y-153068434D01*
X119350029Y-153124512D01*
X119529265Y-153152900D01*
X119529269Y-153152900D01*
X119710731Y-153152900D01*
X119710735Y-153152900D01*
X119889971Y-153124512D01*
X120062560Y-153068434D01*
X120224251Y-152986049D01*
X120371064Y-152879383D01*
X120499383Y-152751064D01*
X120606049Y-152604251D01*
X120688434Y-152442560D01*
X120744512Y-152269971D01*
X120772900Y-152090735D01*
X120772900Y-151909265D01*
X120744512Y-151730029D01*
X120688434Y-151557440D01*
X120606049Y-151395749D01*
X120499383Y-151248936D01*
X120499381Y-151248934D01*
X120499374Y-151248926D01*
X120371073Y-151120625D01*
X120371065Y-151120618D01*
X120237949Y-151023903D01*
X120224251Y-151013951D01*
X120062560Y-150931566D01*
X120062553Y-150931563D01*
X120062549Y-150931562D01*
X119889975Y-150875489D01*
X119889963Y-150875486D01*
X119710737Y-150847100D01*
X119710735Y-150847100D01*
X119529265Y-150847100D01*
X119529262Y-150847100D01*
X119350036Y-150875486D01*
X119350024Y-150875489D01*
X119177450Y-150931562D01*
X119177430Y-150931570D01*
X119073728Y-150984407D01*
X119022671Y-150990675D01*
X118986415Y-150970577D01*
X115424112Y-147408274D01*
X115402372Y-147361654D01*
X115415686Y-147311967D01*
X115457823Y-147282462D01*
X115477286Y-147279900D01*
X129352914Y-147279900D01*
X129401252Y-147297493D01*
X129406088Y-147301926D01*
X132698074Y-150593912D01*
X132719814Y-150640532D01*
X132720100Y-150647086D01*
X132720100Y-159352914D01*
X132702507Y-159401252D01*
X132698074Y-159406088D01*
X130775688Y-161328474D01*
X130729068Y-161350214D01*
X130722514Y-161350500D01*
X129874365Y-161350500D01*
X129826027Y-161332907D01*
X129800307Y-161288358D01*
X129809240Y-161237700D01*
X129821191Y-161222126D01*
X129903998Y-161139318D01*
X129903999Y-161139317D01*
X129904004Y-161139312D01*
X130013759Y-160975051D01*
X130089359Y-160792535D01*
X130127900Y-160598777D01*
X130127900Y-160401223D01*
X130089359Y-160207465D01*
X130013759Y-160024949D01*
X129904004Y-159860688D01*
X129904001Y-159860685D01*
X129903999Y-159860682D01*
X129764317Y-159721000D01*
X129764313Y-159720997D01*
X129764312Y-159720996D01*
X129600051Y-159611241D01*
X129600049Y-159611240D01*
X129417538Y-159535642D01*
X129417537Y-159535641D01*
X129223778Y-159497100D01*
X129223777Y-159497100D01*
X128776223Y-159497100D01*
X128776222Y-159497100D01*
X128582462Y-159535641D01*
X128582461Y-159535642D01*
X128399950Y-159611240D01*
X128235682Y-159721000D01*
X128096000Y-159860682D01*
X127986240Y-160024950D01*
X127924636Y-160173678D01*
X127889884Y-160211603D01*
X127855160Y-160220100D01*
X113608600Y-160220100D01*
X113571170Y-160230129D01*
X113552455Y-160235144D01*
X113552454Y-160235143D01*
X113537411Y-160239174D01*
X113473588Y-160276023D01*
X113473582Y-160276027D01*
X107564432Y-166185177D01*
X107517812Y-166206917D01*
X107477119Y-166199007D01*
X107373418Y-166146170D01*
X107373417Y-166146169D01*
X107373410Y-166146166D01*
X107373403Y-166146163D01*
X107373399Y-166146162D01*
X107200825Y-166090089D01*
X107200813Y-166090086D01*
X107021587Y-166061700D01*
X107021585Y-166061700D01*
X106840115Y-166061700D01*
X106840112Y-166061700D01*
X106660886Y-166090086D01*
X106660874Y-166090089D01*
X106488300Y-166146162D01*
X106488292Y-166146165D01*
X106488290Y-166146166D01*
X106488286Y-166146167D01*
X106488286Y-166146168D01*
X106326597Y-166228552D01*
X106179784Y-166335218D01*
X106179776Y-166335225D01*
X106051475Y-166463526D01*
X106051468Y-166463534D01*
X105944802Y-166610347D01*
X105862418Y-166772036D01*
X105862412Y-166772050D01*
X105806339Y-166944624D01*
X105806336Y-166944636D01*
X105777950Y-167123862D01*
X105777950Y-167305337D01*
X105806336Y-167484563D01*
X105806338Y-167484571D01*
X105862416Y-167657160D01*
X105944801Y-167818851D01*
X106033703Y-167941213D01*
X106051468Y-167965665D01*
X106051475Y-167965673D01*
X106179776Y-168093974D01*
X106179784Y-168093981D01*
X106179786Y-168093983D01*
X106326599Y-168200649D01*
X106488290Y-168283034D01*
X106660879Y-168339112D01*
X106840115Y-168367500D01*
X106840119Y-168367500D01*
X107021581Y-168367500D01*
X107021585Y-168367500D01*
X107200821Y-168339112D01*
X107373410Y-168283034D01*
X107535101Y-168200649D01*
X107681914Y-168093983D01*
X107810233Y-167965664D01*
X107916899Y-167818851D01*
X107999284Y-167657160D01*
X108055362Y-167484571D01*
X108083750Y-167305335D01*
X108083750Y-167123865D01*
X108083750Y-167123862D01*
X108317950Y-167123862D01*
X108317950Y-167305337D01*
X108346336Y-167484563D01*
X108346338Y-167484571D01*
X108402416Y-167657160D01*
X108484801Y-167818851D01*
X108573703Y-167941213D01*
X108591468Y-167965665D01*
X108591475Y-167965673D01*
X108719776Y-168093974D01*
X108719784Y-168093981D01*
X108719786Y-168093983D01*
X108866599Y-168200649D01*
X109028290Y-168283034D01*
X109200879Y-168339112D01*
X109380115Y-168367500D01*
X109380119Y-168367500D01*
X109561581Y-168367500D01*
X109561585Y-168367500D01*
X109740821Y-168339112D01*
X109913410Y-168283034D01*
X110075101Y-168200649D01*
X110221914Y-168093983D01*
X110350233Y-167965664D01*
X110456899Y-167818851D01*
X110539284Y-167657160D01*
X110595362Y-167484571D01*
X110623750Y-167305335D01*
X110623750Y-167123865D01*
X110623750Y-167123862D01*
X110857950Y-167123862D01*
X110857950Y-167305337D01*
X110886336Y-167484563D01*
X110886338Y-167484571D01*
X110942416Y-167657160D01*
X111024801Y-167818851D01*
X111113703Y-167941213D01*
X111131468Y-167965665D01*
X111131475Y-167965673D01*
X111259776Y-168093974D01*
X111259784Y-168093981D01*
X111259786Y-168093983D01*
X111406599Y-168200649D01*
X111568290Y-168283034D01*
X111740879Y-168339112D01*
X111920115Y-168367500D01*
X111920119Y-168367500D01*
X112101581Y-168367500D01*
X112101585Y-168367500D01*
X112280821Y-168339112D01*
X112453410Y-168283034D01*
X112615101Y-168200649D01*
X112761914Y-168093983D01*
X112890233Y-167965664D01*
X112996899Y-167818851D01*
X113079284Y-167657160D01*
X113135362Y-167484571D01*
X113163750Y-167305335D01*
X113163750Y-167123865D01*
X113163750Y-167123862D01*
X113397950Y-167123862D01*
X113397950Y-167305337D01*
X113426336Y-167484563D01*
X113426338Y-167484571D01*
X113482416Y-167657160D01*
X113564801Y-167818851D01*
X113653703Y-167941213D01*
X113671468Y-167965665D01*
X113671475Y-167965673D01*
X113799776Y-168093974D01*
X113799784Y-168093981D01*
X113799786Y-168093983D01*
X113946599Y-168200649D01*
X114108290Y-168283034D01*
X114280879Y-168339112D01*
X114460115Y-168367500D01*
X114460119Y-168367500D01*
X114641581Y-168367500D01*
X114641585Y-168367500D01*
X114820821Y-168339112D01*
X114993410Y-168283034D01*
X115155101Y-168200649D01*
X115301914Y-168093983D01*
X115430233Y-167965664D01*
X115536899Y-167818851D01*
X115619284Y-167657160D01*
X115675362Y-167484571D01*
X115703750Y-167305335D01*
X115703750Y-167123865D01*
X115675362Y-166944629D01*
X115619284Y-166772040D01*
X115536899Y-166610349D01*
X115430233Y-166463536D01*
X115430231Y-166463534D01*
X115430224Y-166463526D01*
X115301923Y-166335225D01*
X115301915Y-166335218D01*
X115155102Y-166228552D01*
X115155103Y-166228552D01*
X115155101Y-166228551D01*
X114993410Y-166146166D01*
X114993403Y-166146163D01*
X114993399Y-166146162D01*
X114820825Y-166090089D01*
X114820813Y-166090086D01*
X114641587Y-166061700D01*
X114641585Y-166061700D01*
X114460115Y-166061700D01*
X114460112Y-166061700D01*
X114280886Y-166090086D01*
X114280874Y-166090089D01*
X114108300Y-166146162D01*
X114108292Y-166146165D01*
X114108290Y-166146166D01*
X114108286Y-166146167D01*
X114108286Y-166146168D01*
X113946597Y-166228552D01*
X113799784Y-166335218D01*
X113799776Y-166335225D01*
X113671475Y-166463526D01*
X113671468Y-166463534D01*
X113564802Y-166610347D01*
X113482418Y-166772036D01*
X113482412Y-166772050D01*
X113426339Y-166944624D01*
X113426336Y-166944636D01*
X113397950Y-167123862D01*
X113163750Y-167123862D01*
X113135362Y-166944629D01*
X113079284Y-166772040D01*
X112996899Y-166610349D01*
X112890233Y-166463536D01*
X112890231Y-166463534D01*
X112890224Y-166463526D01*
X112761923Y-166335225D01*
X112761915Y-166335218D01*
X112615102Y-166228552D01*
X112615103Y-166228552D01*
X112615101Y-166228551D01*
X112453410Y-166146166D01*
X112453403Y-166146163D01*
X112453399Y-166146162D01*
X112280825Y-166090089D01*
X112280813Y-166090086D01*
X112101587Y-166061700D01*
X112101585Y-166061700D01*
X111920115Y-166061700D01*
X111920112Y-166061700D01*
X111740886Y-166090086D01*
X111740874Y-166090089D01*
X111568300Y-166146162D01*
X111568292Y-166146165D01*
X111568290Y-166146166D01*
X111568286Y-166146167D01*
X111568286Y-166146168D01*
X111406597Y-166228552D01*
X111259784Y-166335218D01*
X111259776Y-166335225D01*
X111131475Y-166463526D01*
X111131468Y-166463534D01*
X111024802Y-166610347D01*
X110942418Y-166772036D01*
X110942412Y-166772050D01*
X110886339Y-166944624D01*
X110886336Y-166944636D01*
X110857950Y-167123862D01*
X110623750Y-167123862D01*
X110595362Y-166944629D01*
X110539284Y-166772040D01*
X110456899Y-166610349D01*
X110350233Y-166463536D01*
X110350231Y-166463534D01*
X110350224Y-166463526D01*
X110221923Y-166335225D01*
X110221915Y-166335218D01*
X110075102Y-166228552D01*
X110075103Y-166228552D01*
X110075101Y-166228551D01*
X109913410Y-166146166D01*
X109913403Y-166146163D01*
X109913399Y-166146162D01*
X109740825Y-166090089D01*
X109740813Y-166090086D01*
X109561587Y-166061700D01*
X109561585Y-166061700D01*
X109380115Y-166061700D01*
X109380112Y-166061700D01*
X109200886Y-166090086D01*
X109200874Y-166090089D01*
X109028300Y-166146162D01*
X109028292Y-166146165D01*
X109028290Y-166146166D01*
X109028286Y-166146167D01*
X109028286Y-166146168D01*
X108866597Y-166228552D01*
X108719784Y-166335218D01*
X108719776Y-166335225D01*
X108591475Y-166463526D01*
X108591468Y-166463534D01*
X108484802Y-166610347D01*
X108402418Y-166772036D01*
X108402412Y-166772050D01*
X108346339Y-166944624D01*
X108346336Y-166944636D01*
X108317950Y-167123862D01*
X108083750Y-167123862D01*
X108055362Y-166944629D01*
X107999284Y-166772040D01*
X107946440Y-166668328D01*
X107940172Y-166617273D01*
X107960269Y-166581018D01*
X113739363Y-160801926D01*
X113785983Y-160780186D01*
X113792537Y-160779900D01*
X127855160Y-160779900D01*
X127903498Y-160797493D01*
X127924635Y-160826321D01*
X127986241Y-160975051D01*
X128095996Y-161139312D01*
X128095997Y-161139313D01*
X128096000Y-161139317D01*
X128178809Y-161222126D01*
X128200549Y-161268746D01*
X128187235Y-161318433D01*
X128145098Y-161347938D01*
X128125635Y-161350500D01*
X125178200Y-161350500D01*
X125140770Y-161360529D01*
X125122055Y-161365544D01*
X125122054Y-161365543D01*
X125107011Y-161369574D01*
X125043188Y-161406423D01*
X125043182Y-161406427D01*
X120264432Y-166185177D01*
X120217812Y-166206917D01*
X120177119Y-166199007D01*
X120073418Y-166146170D01*
X120073417Y-166146169D01*
X120073410Y-166146166D01*
X120073403Y-166146163D01*
X120073399Y-166146162D01*
X119900825Y-166090089D01*
X119900813Y-166090086D01*
X119721587Y-166061700D01*
X119721585Y-166061700D01*
X119540115Y-166061700D01*
X119540112Y-166061700D01*
X119360886Y-166090086D01*
X119360874Y-166090089D01*
X119188300Y-166146162D01*
X119188292Y-166146165D01*
X119188290Y-166146166D01*
X119188286Y-166146167D01*
X119188286Y-166146168D01*
X119026597Y-166228552D01*
X118879784Y-166335218D01*
X118879776Y-166335225D01*
X118751475Y-166463526D01*
X118751468Y-166463534D01*
X118644802Y-166610347D01*
X118562418Y-166772036D01*
X118562412Y-166772050D01*
X118506339Y-166944624D01*
X118506336Y-166944636D01*
X118477950Y-167123862D01*
X118477950Y-167305337D01*
X118506336Y-167484563D01*
X118506338Y-167484571D01*
X118562416Y-167657160D01*
X118644801Y-167818851D01*
X118733703Y-167941213D01*
X118751468Y-167965665D01*
X118751475Y-167965673D01*
X118879776Y-168093974D01*
X118879784Y-168093981D01*
X118879786Y-168093983D01*
X119026599Y-168200649D01*
X119188290Y-168283034D01*
X119360879Y-168339112D01*
X119540115Y-168367500D01*
X119540119Y-168367500D01*
X119721581Y-168367500D01*
X119721585Y-168367500D01*
X119900821Y-168339112D01*
X120073410Y-168283034D01*
X120235101Y-168200649D01*
X120381914Y-168093983D01*
X120510233Y-167965664D01*
X120616899Y-167818851D01*
X120699284Y-167657160D01*
X120755362Y-167484571D01*
X120783750Y-167305335D01*
X120783750Y-167123865D01*
X120755362Y-166944629D01*
X120699284Y-166772040D01*
X120646440Y-166668328D01*
X120640172Y-166617273D01*
X120660269Y-166581018D01*
X125308963Y-161932326D01*
X125355583Y-161910586D01*
X125362137Y-161910300D01*
X128035396Y-161910300D01*
X128083734Y-161927893D01*
X128109454Y-161972442D01*
X128100521Y-162023100D01*
X128069536Y-162052504D01*
X128035228Y-162069984D01*
X127944984Y-162160228D01*
X127887043Y-162273943D01*
X127872100Y-162368289D01*
X127872100Y-163631710D01*
X127887043Y-163726056D01*
X127944984Y-163839771D01*
X128035229Y-163930016D01*
X128148943Y-163987956D01*
X128148945Y-163987957D01*
X128243292Y-164002900D01*
X128243296Y-164002900D01*
X129756704Y-164002900D01*
X129756708Y-164002900D01*
X129851055Y-163987957D01*
X129964771Y-163930016D01*
X130055016Y-163839771D01*
X130112957Y-163726055D01*
X130127900Y-163631708D01*
X130127900Y-163482100D01*
X130145493Y-163433762D01*
X130190042Y-163408042D01*
X130203100Y-163406900D01*
X133053568Y-163406900D01*
X133053570Y-163406900D01*
X133157058Y-163379170D01*
X133249843Y-163325601D01*
X135360001Y-161215443D01*
X135413570Y-161122658D01*
X135441300Y-161019170D01*
X135441300Y-160912030D01*
X135441300Y-150980831D01*
X135413570Y-150877343D01*
X135412498Y-150875487D01*
X135395839Y-150846632D01*
X135360001Y-150784558D01*
X135284242Y-150708799D01*
X131148218Y-146572774D01*
X129749847Y-145174402D01*
X129749841Y-145174398D01*
X129657059Y-145120830D01*
X129622562Y-145111586D01*
X129553570Y-145093100D01*
X129553569Y-145093100D01*
X129553568Y-145093100D01*
X99049692Y-145093100D01*
X99001354Y-145075507D01*
X98996518Y-145071074D01*
X97677255Y-143751811D01*
X97655515Y-143705191D01*
X97668829Y-143655504D01*
X97710966Y-143625999D01*
X97741270Y-143624223D01*
X97766506Y-143627900D01*
X97766508Y-143627900D01*
X98233492Y-143627900D01*
X98233494Y-143627900D01*
X98233498Y-143627899D01*
X98233502Y-143627899D01*
X98243245Y-143626479D01*
X98302088Y-143617906D01*
X98407898Y-143566179D01*
X98407900Y-143566177D01*
X98418152Y-143555926D01*
X98464772Y-143534186D01*
X98471326Y-143533900D01*
X100070286Y-143533900D01*
X100070289Y-143533900D01*
X100206078Y-143497516D01*
X100265905Y-143462973D01*
X100303504Y-143452899D01*
X101315056Y-143452899D01*
X101359658Y-143444028D01*
X101410234Y-143410234D01*
X101444028Y-143359658D01*
X101452900Y-143315057D01*
X101452899Y-141684944D01*
X101444028Y-141640342D01*
X101410234Y-141589766D01*
X101359658Y-141555972D01*
X101359656Y-141555971D01*
X101315057Y-141547100D01*
X100609100Y-141547100D01*
X100560762Y-141529507D01*
X100535042Y-141484958D01*
X100533900Y-141471900D01*
X100533900Y-139988290D01*
X120737100Y-139988290D01*
X120737100Y-142351700D01*
X120737101Y-142351712D01*
X120752041Y-142446049D01*
X120752042Y-142446051D01*
X120752042Y-142446052D01*
X120752043Y-142446054D01*
X120809984Y-142559770D01*
X120900230Y-142650016D01*
X121013944Y-142707956D01*
X121013946Y-142707957D01*
X121108293Y-142722900D01*
X123471706Y-142722899D01*
X123500815Y-142718289D01*
X123566049Y-142707958D01*
X123566049Y-142707957D01*
X123566054Y-142707957D01*
X123679770Y-142650016D01*
X123770016Y-142559770D01*
X123827957Y-142446054D01*
X123842900Y-142351707D01*
X123842899Y-140672099D01*
X123860492Y-140623762D01*
X123905041Y-140598042D01*
X123918099Y-140596900D01*
X132285777Y-140596900D01*
X132334115Y-140614493D01*
X132348303Y-140630321D01*
X132438668Y-140765561D01*
X132438676Y-140765570D01*
X132564429Y-140891323D01*
X132564438Y-140891331D01*
X132699679Y-140981696D01*
X132712316Y-140990140D01*
X132876634Y-141058202D01*
X133007757Y-141084284D01*
X133051071Y-141092900D01*
X133051072Y-141092900D01*
X133228929Y-141092900D01*
X133257870Y-141087143D01*
X133403366Y-141058202D01*
X133567684Y-140990140D01*
X133715565Y-140891328D01*
X133841328Y-140765565D01*
X133859683Y-140738096D01*
X133931696Y-140630321D01*
X133940140Y-140617684D01*
X134008202Y-140453366D01*
X134042900Y-140278928D01*
X134042900Y-140101072D01*
X134008202Y-139926634D01*
X133940140Y-139762316D01*
X133931696Y-139749679D01*
X133841331Y-139614438D01*
X133841323Y-139614429D01*
X133715570Y-139488676D01*
X133715561Y-139488668D01*
X133567686Y-139389861D01*
X133546899Y-139381251D01*
X133403366Y-139321798D01*
X133403367Y-139321798D01*
X133228929Y-139287100D01*
X133228928Y-139287100D01*
X133051072Y-139287100D01*
X133051071Y-139287100D01*
X132876633Y-139321798D01*
X132712313Y-139389861D01*
X132564438Y-139488668D01*
X132564429Y-139488676D01*
X132438676Y-139614429D01*
X132438668Y-139614438D01*
X132348303Y-139749679D01*
X132306820Y-139780096D01*
X132285777Y-139783100D01*
X123804035Y-139783100D01*
X123755697Y-139765507D01*
X123750861Y-139761075D01*
X123739465Y-139749679D01*
X123679770Y-139689984D01*
X123566054Y-139632043D01*
X123566056Y-139632043D01*
X123518880Y-139624571D01*
X123471707Y-139617100D01*
X123471705Y-139617100D01*
X121108299Y-139617100D01*
X121108287Y-139617101D01*
X121013950Y-139632041D01*
X121013948Y-139632042D01*
X120900229Y-139689984D01*
X120809984Y-139780229D01*
X120752043Y-139893944D01*
X120737100Y-139988290D01*
X100533900Y-139988290D01*
X100533900Y-138178099D01*
X100551493Y-138129761D01*
X100596042Y-138104041D01*
X100609100Y-138102899D01*
X101115056Y-138102899D01*
X101159658Y-138094028D01*
X101210234Y-138060234D01*
X101244028Y-138009658D01*
X101252900Y-137965057D01*
X101252899Y-136434944D01*
X101244028Y-136390342D01*
X101210234Y-136339766D01*
X101159658Y-136305972D01*
X101159656Y-136305971D01*
X101115057Y-136297100D01*
X98884944Y-136297100D01*
X98884942Y-136297101D01*
X98840340Y-136305972D01*
X98789767Y-136339764D01*
X98755972Y-136390342D01*
X98755971Y-136390343D01*
X98747100Y-136434942D01*
X98747100Y-136590900D01*
X98729507Y-136639238D01*
X98684958Y-136664958D01*
X98671900Y-136666100D01*
X96452297Y-136666100D01*
X96403959Y-136648507D01*
X96399123Y-136644074D01*
X95552824Y-135797775D01*
X95431078Y-135727484D01*
X95295289Y-135691100D01*
X95295286Y-135691100D01*
X94995967Y-135691100D01*
X94962939Y-135683459D01*
X94859319Y-135632802D01*
X94859318Y-135632801D01*
X94785873Y-135622100D01*
X94785863Y-135622100D01*
X94683296Y-135622100D01*
X94634958Y-135604507D01*
X94630132Y-135600084D01*
X94602822Y-135572774D01*
X94481078Y-135502484D01*
X94345289Y-135466100D01*
X94345286Y-135466100D01*
X93121326Y-135466100D01*
X93072988Y-135448507D01*
X93068152Y-135444074D01*
X93057900Y-135433822D01*
X93057898Y-135433821D01*
X92952088Y-135382094D01*
X92883502Y-135372100D01*
X92883494Y-135372100D01*
X92416506Y-135372100D01*
X92416497Y-135372100D01*
X92347911Y-135382094D01*
X92242099Y-135433822D01*
X92158822Y-135517099D01*
X92107094Y-135622911D01*
X92097100Y-135691497D01*
X92097100Y-136308502D01*
X92107094Y-136377088D01*
X92158822Y-136482900D01*
X92242099Y-136566177D01*
X92242100Y-136566177D01*
X92242102Y-136566179D01*
X92347912Y-136617906D01*
X92398180Y-136625230D01*
X92416497Y-136627899D01*
X92416502Y-136627899D01*
X92416506Y-136627900D01*
X92416508Y-136627900D01*
X92883492Y-136627900D01*
X92883494Y-136627900D01*
X92883498Y-136627899D01*
X92883502Y-136627899D01*
X92893245Y-136626479D01*
X92952088Y-136617906D01*
X93057898Y-136566179D01*
X93057900Y-136566177D01*
X93068152Y-136555926D01*
X93114772Y-136534186D01*
X93121326Y-136533900D01*
X93823433Y-136533900D01*
X93871771Y-136551493D01*
X93890992Y-136576072D01*
X93938194Y-136672625D01*
X93938195Y-136672627D01*
X94027372Y-136761804D01*
X94027373Y-136761804D01*
X94027375Y-136761806D01*
X94140681Y-136817198D01*
X94214137Y-136827900D01*
X94785862Y-136827899D01*
X94859319Y-136817198D01*
X94947316Y-136774178D01*
X94998467Y-136768755D01*
X95033516Y-136788564D01*
X95872176Y-137627226D01*
X95933029Y-137662359D01*
X95993922Y-137697516D01*
X96129711Y-137733900D01*
X98671901Y-137733900D01*
X98720239Y-137751493D01*
X98745959Y-137796042D01*
X98747101Y-137809100D01*
X98747101Y-137965057D01*
X98755972Y-138009659D01*
X98789764Y-138060232D01*
X98789765Y-138060232D01*
X98789766Y-138060234D01*
X98840342Y-138094028D01*
X98884943Y-138102900D01*
X99390900Y-138102899D01*
X99439238Y-138120492D01*
X99464958Y-138165041D01*
X99466100Y-138178099D01*
X99466100Y-141929711D01*
X99466100Y-142070289D01*
X99502484Y-142206078D01*
X99537025Y-142265905D01*
X99539102Y-142273657D01*
X99542565Y-142277783D01*
X99547100Y-142303503D01*
X99547100Y-142390900D01*
X99529507Y-142439238D01*
X99484958Y-142464958D01*
X99471900Y-142466100D01*
X98471326Y-142466100D01*
X98422988Y-142448507D01*
X98418152Y-142444074D01*
X98407900Y-142433822D01*
X98407898Y-142433821D01*
X98302088Y-142382094D01*
X98233502Y-142372100D01*
X98233494Y-142372100D01*
X97766506Y-142372100D01*
X97766497Y-142372100D01*
X97697911Y-142382094D01*
X97592099Y-142433822D01*
X97508822Y-142517099D01*
X97457094Y-142622911D01*
X97447100Y-142691497D01*
X97447100Y-143308504D01*
X97450776Y-143333728D01*
X97440336Y-143384097D01*
X97399961Y-143415971D01*
X97348545Y-143414436D01*
X97323188Y-143397744D01*
X96924926Y-142999482D01*
X96903186Y-142952862D01*
X96902900Y-142946308D01*
X96902900Y-142691507D01*
X96902899Y-142691497D01*
X96896855Y-142650016D01*
X96892906Y-142622912D01*
X96841179Y-142517102D01*
X96841177Y-142517100D01*
X96841177Y-142517099D01*
X96757900Y-142433822D01*
X96757898Y-142433821D01*
X96652088Y-142382094D01*
X96583502Y-142372100D01*
X96583494Y-142372100D01*
X96116506Y-142372100D01*
X96116497Y-142372100D01*
X96047911Y-142382094D01*
X95942099Y-142433822D01*
X95931848Y-142444074D01*
X95885228Y-142465814D01*
X95878674Y-142466100D01*
X91251740Y-142466100D01*
X91222963Y-142460376D01*
X91125447Y-142419984D01*
X91042538Y-142385642D01*
X91042537Y-142385641D01*
X90848778Y-142347100D01*
X90848777Y-142347100D01*
X90651223Y-142347100D01*
X90651222Y-142347100D01*
X90457462Y-142385641D01*
X90457461Y-142385642D01*
X90274950Y-142461240D01*
X90110682Y-142571000D01*
X89971000Y-142710682D01*
X89861240Y-142874950D01*
X89859580Y-142878958D01*
X89853339Y-142894028D01*
X89853070Y-142894677D01*
X89818318Y-142932603D01*
X89783594Y-142941100D01*
X89216406Y-142941100D01*
X89168068Y-142923507D01*
X89146930Y-142894677D01*
X89138759Y-142874949D01*
X89029004Y-142710688D01*
X89029001Y-142710685D01*
X89028999Y-142710682D01*
X88889317Y-142571000D01*
X88889313Y-142570997D01*
X88889312Y-142570996D01*
X88725051Y-142461241D01*
X88722963Y-142460376D01*
X88542538Y-142385642D01*
X88542537Y-142385641D01*
X88348778Y-142347100D01*
X88348777Y-142347100D01*
X88151223Y-142347100D01*
X88151222Y-142347100D01*
X87957462Y-142385641D01*
X87957461Y-142385642D01*
X87774950Y-142461240D01*
X87610682Y-142571000D01*
X87471000Y-142710682D01*
X87361240Y-142874950D01*
X87359580Y-142878958D01*
X87353339Y-142894028D01*
X87353070Y-142894677D01*
X87318318Y-142932603D01*
X87283594Y-142941100D01*
X86716406Y-142941100D01*
X86668068Y-142923507D01*
X86646930Y-142894677D01*
X86638759Y-142874949D01*
X86529004Y-142710688D01*
X86529001Y-142710685D01*
X86528999Y-142710682D01*
X86389317Y-142571000D01*
X86389313Y-142570997D01*
X86389312Y-142570996D01*
X86225051Y-142461241D01*
X86222963Y-142460376D01*
X86042538Y-142385642D01*
X86042537Y-142385641D01*
X85848778Y-142347100D01*
X85848777Y-142347100D01*
X85651223Y-142347100D01*
X85651222Y-142347100D01*
X85457462Y-142385641D01*
X85457461Y-142385642D01*
X85274950Y-142461240D01*
X85110682Y-142571000D01*
X84971000Y-142710682D01*
X84861240Y-142874950D01*
X84859580Y-142878958D01*
X84853339Y-142894028D01*
X84853070Y-142894677D01*
X84818318Y-142932603D01*
X84783594Y-142941100D01*
X84328100Y-142941100D01*
X84279762Y-142923507D01*
X84254042Y-142878958D01*
X84252900Y-142865900D01*
X84252900Y-142718296D01*
X84252900Y-142718292D01*
X84237957Y-142623945D01*
X84180016Y-142510229D01*
X84089771Y-142419984D01*
X83976055Y-142362043D01*
X83976057Y-142362043D01*
X83881710Y-142347100D01*
X83881708Y-142347100D01*
X82908297Y-142347100D01*
X82859959Y-142329507D01*
X82855123Y-142325074D01*
X80629925Y-140099876D01*
X80608185Y-140053256D01*
X80607899Y-140046702D01*
X80607899Y-139579141D01*
X80607899Y-139579138D01*
X80597198Y-139505681D01*
X80541806Y-139392375D01*
X80541804Y-139392373D01*
X80541804Y-139392372D01*
X80452627Y-139303195D01*
X80408159Y-139281456D01*
X80339319Y-139247802D01*
X80339318Y-139247801D01*
X80265873Y-139237100D01*
X80265863Y-139237100D01*
X79761185Y-139237100D01*
X79723585Y-139227025D01*
X79681080Y-139202484D01*
X79626762Y-139187930D01*
X79545289Y-139166100D01*
X79545286Y-139166100D01*
X78947249Y-139166100D01*
X78898911Y-139148507D01*
X78873191Y-139103958D01*
X78872049Y-139090900D01*
X78872049Y-138934944D01*
X78872049Y-138934943D01*
X78863178Y-138890342D01*
X78829384Y-138839766D01*
X78778808Y-138805972D01*
X78778806Y-138805971D01*
X78734207Y-138797100D01*
X76704094Y-138797100D01*
X76704092Y-138797101D01*
X76659490Y-138805972D01*
X76608917Y-138839764D01*
X76575122Y-138890342D01*
X76575121Y-138890343D01*
X76566250Y-138934942D01*
X76566250Y-140465055D01*
X76566251Y-140465057D01*
X76575122Y-140509659D01*
X76608914Y-140560232D01*
X76608915Y-140560232D01*
X76608916Y-140560234D01*
X76659492Y-140594028D01*
X76704093Y-140602900D01*
X78734206Y-140602899D01*
X78778808Y-140594028D01*
X78829384Y-140560234D01*
X78863178Y-140509658D01*
X78872050Y-140465057D01*
X78872050Y-140309100D01*
X78889643Y-140260762D01*
X78934192Y-140235042D01*
X78947250Y-140233900D01*
X79222704Y-140233900D01*
X79271042Y-140251493D01*
X79275878Y-140255926D01*
X82225074Y-143205122D01*
X82246814Y-143251742D01*
X82247100Y-143258296D01*
X82247100Y-144231710D01*
X82262043Y-144326056D01*
X82319984Y-144439771D01*
X82410229Y-144530016D01*
X82523943Y-144587956D01*
X82523945Y-144587957D01*
X82618292Y-144602900D01*
X82618296Y-144602900D01*
X83881704Y-144602900D01*
X83881708Y-144602900D01*
X83976055Y-144587957D01*
X84089771Y-144530016D01*
X84180016Y-144439771D01*
X84237957Y-144326055D01*
X84252900Y-144231708D01*
X84252900Y-144084100D01*
X84270493Y-144035762D01*
X84315042Y-144010042D01*
X84328100Y-144008900D01*
X84783594Y-144008900D01*
X84831932Y-144026493D01*
X84853069Y-144055321D01*
X84861241Y-144075051D01*
X84970996Y-144239312D01*
X84970997Y-144239313D01*
X84971000Y-144239317D01*
X85110682Y-144378999D01*
X85110685Y-144379001D01*
X85110688Y-144379004D01*
X85274949Y-144488759D01*
X85457461Y-144564357D01*
X85457462Y-144564358D01*
X85457463Y-144564358D01*
X85457465Y-144564359D01*
X85576095Y-144587956D01*
X85651222Y-144602900D01*
X85651223Y-144602900D01*
X85848778Y-144602900D01*
X85923905Y-144587956D01*
X86042535Y-144564359D01*
X86225051Y-144488759D01*
X86389312Y-144379004D01*
X86529004Y-144239312D01*
X86638759Y-144075051D01*
X86646930Y-144055322D01*
X86681682Y-144017397D01*
X86716406Y-144008900D01*
X87283594Y-144008900D01*
X87331932Y-144026493D01*
X87353069Y-144055321D01*
X87361241Y-144075051D01*
X87470996Y-144239312D01*
X87470997Y-144239313D01*
X87471000Y-144239317D01*
X87610682Y-144378999D01*
X87610685Y-144379001D01*
X87610688Y-144379004D01*
X87774949Y-144488759D01*
X87957461Y-144564357D01*
X87957462Y-144564358D01*
X87957463Y-144564358D01*
X87957465Y-144564359D01*
X88076095Y-144587956D01*
X88151222Y-144602900D01*
X88151223Y-144602900D01*
X88348778Y-144602900D01*
X88423905Y-144587956D01*
X88542535Y-144564359D01*
X88725051Y-144488759D01*
X88889312Y-144379004D01*
X89029004Y-144239312D01*
X89138759Y-144075051D01*
X89146930Y-144055322D01*
X89181682Y-144017397D01*
X89216406Y-144008900D01*
X89783594Y-144008900D01*
X89831932Y-144026493D01*
X89853069Y-144055321D01*
X89861241Y-144075051D01*
X89970996Y-144239312D01*
X89970997Y-144239313D01*
X89971000Y-144239317D01*
X90110682Y-144378999D01*
X90110685Y-144379001D01*
X90110688Y-144379004D01*
X90274949Y-144488759D01*
X90457461Y-144564357D01*
X90457462Y-144564358D01*
X90457463Y-144564358D01*
X90457465Y-144564359D01*
X90576095Y-144587956D01*
X90651222Y-144602900D01*
X90651223Y-144602900D01*
X90848778Y-144602900D01*
X90923905Y-144587956D01*
X91042535Y-144564359D01*
X91225051Y-144488759D01*
X91389312Y-144379004D01*
X91529004Y-144239312D01*
X91638759Y-144075051D01*
X91714359Y-143892535D01*
X91752900Y-143698777D01*
X91752900Y-143609100D01*
X91770493Y-143560762D01*
X91815042Y-143535042D01*
X91828100Y-143533900D01*
X95878674Y-143533900D01*
X95927012Y-143551493D01*
X95931848Y-143555926D01*
X95942099Y-143566177D01*
X95942100Y-143566177D01*
X95942102Y-143566179D01*
X96047912Y-143617906D01*
X96098180Y-143625230D01*
X96116497Y-143627899D01*
X96116502Y-143627899D01*
X96116506Y-143627900D01*
X96371308Y-143627900D01*
X96419646Y-143645493D01*
X96424482Y-143649926D01*
X98600152Y-145825597D01*
X98600155Y-145825599D01*
X98600157Y-145825601D01*
X98692942Y-145879170D01*
X98796430Y-145906900D01*
X98796431Y-145906900D01*
X129300308Y-145906900D01*
X129348646Y-145924493D01*
X129353482Y-145928926D01*
X134605474Y-151180917D01*
X134627214Y-151227537D01*
X134627500Y-151234091D01*
X134627500Y-160765908D01*
X134609907Y-160814246D01*
X134605474Y-160819082D01*
X132853482Y-162571074D01*
X132806862Y-162592814D01*
X132800308Y-162593100D01*
X130203100Y-162593100D01*
X130154762Y-162575507D01*
X130129042Y-162530958D01*
X130127900Y-162517900D01*
X130127900Y-162368296D01*
X130127900Y-162368292D01*
X130112957Y-162273945D01*
X130055016Y-162160229D01*
X129964771Y-162069984D01*
X129930463Y-162052503D01*
X129895382Y-162014883D01*
X129892690Y-161963514D01*
X129923647Y-161922432D01*
X129964604Y-161910300D01*
X130906448Y-161910300D01*
X130906450Y-161910300D01*
X130977637Y-161891225D01*
X131041462Y-161854376D01*
X133223976Y-159671862D01*
X133260825Y-159608037D01*
X133279900Y-159536850D01*
X133279900Y-159463150D01*
X133279900Y-150463150D01*
X133260825Y-150391963D01*
X133226750Y-150332942D01*
X133223976Y-150328137D01*
X133223975Y-150328135D01*
X133223973Y-150328133D01*
X129671866Y-146776027D01*
X129671860Y-146776023D01*
X129608038Y-146739175D01*
X129584308Y-146732816D01*
X129536850Y-146720100D01*
X129536848Y-146720100D01*
X115118311Y-146720100D01*
X115069973Y-146702507D01*
X115053186Y-146682500D01*
X115047226Y-146672177D01*
X114947824Y-146572775D01*
X114826078Y-146502484D01*
X114690289Y-146466100D01*
X114690286Y-146466100D01*
X72109100Y-146466100D01*
X72060762Y-146448507D01*
X72035042Y-146403958D01*
X72033900Y-146390900D01*
X72033900Y-145072313D01*
X72033900Y-145072311D01*
X71997516Y-144936522D01*
X71963124Y-144876954D01*
X71953050Y-144839355D01*
X71953050Y-144128099D01*
X71970643Y-144079761D01*
X72015192Y-144054041D01*
X72028250Y-144052899D01*
X72434206Y-144052899D01*
X72478808Y-144044028D01*
X72529384Y-144010234D01*
X72563178Y-143959658D01*
X72572050Y-143915057D01*
X72572050Y-142609100D01*
X72589643Y-142560762D01*
X72634192Y-142535042D01*
X72647250Y-142533900D01*
X76491051Y-142533900D01*
X76539389Y-142551493D01*
X76565109Y-142596042D01*
X76566251Y-142609100D01*
X76566251Y-142765057D01*
X76575122Y-142809659D01*
X76608914Y-142860232D01*
X76608915Y-142860232D01*
X76608916Y-142860234D01*
X76659492Y-142894028D01*
X76704093Y-142902900D01*
X78734206Y-142902899D01*
X78778808Y-142894028D01*
X78829384Y-142860234D01*
X78863178Y-142809658D01*
X78872050Y-142765057D01*
X78872049Y-141234944D01*
X78863178Y-141190342D01*
X78829384Y-141139766D01*
X78778808Y-141105972D01*
X78778806Y-141105971D01*
X78734207Y-141097100D01*
X76704094Y-141097100D01*
X76704092Y-141097101D01*
X76659490Y-141105972D01*
X76608917Y-141139764D01*
X76575122Y-141190342D01*
X76575121Y-141190343D01*
X76566250Y-141234942D01*
X76566250Y-141390900D01*
X76548657Y-141439238D01*
X76504108Y-141464958D01*
X76491050Y-141466100D01*
X72647249Y-141466100D01*
X72598911Y-141448507D01*
X72573191Y-141403958D01*
X72572049Y-141390900D01*
X72572049Y-140084944D01*
X72572049Y-140084943D01*
X72563178Y-140040342D01*
X72529384Y-139989766D01*
X72478808Y-139955972D01*
X72478806Y-139955971D01*
X72434207Y-139947100D01*
X70404094Y-139947100D01*
X70404092Y-139947101D01*
X70359490Y-139955972D01*
X70308917Y-139989764D01*
X70275122Y-140040342D01*
X70275121Y-140040343D01*
X70266250Y-140084942D01*
X60500500Y-140084942D01*
X60500500Y-132001145D01*
X60500534Y-131998874D01*
X60502211Y-131943366D01*
X60516916Y-131456734D01*
X60517019Y-131454509D01*
X60524992Y-131327781D01*
X60525151Y-131325735D01*
X60568514Y-130848545D01*
X60568785Y-130846046D01*
X60579466Y-130761497D01*
X82812100Y-130761497D01*
X82812100Y-131228502D01*
X82822094Y-131297088D01*
X82873822Y-131402900D01*
X82957099Y-131486177D01*
X82957100Y-131486177D01*
X82957102Y-131486179D01*
X83062912Y-131537906D01*
X83113180Y-131545230D01*
X83131497Y-131547899D01*
X83131502Y-131547899D01*
X83131506Y-131547900D01*
X83307775Y-131547900D01*
X83327237Y-131550462D01*
X83344323Y-131555040D01*
X83414711Y-131573900D01*
X83414712Y-131573900D01*
X85670286Y-131573900D01*
X85670289Y-131573900D01*
X85806078Y-131537516D01*
X85852884Y-131510492D01*
X85865906Y-131502974D01*
X85903506Y-131492899D01*
X86390056Y-131492899D01*
X86434658Y-131484028D01*
X86485234Y-131450234D01*
X86519028Y-131399658D01*
X86527900Y-131355057D01*
X86527899Y-130724944D01*
X86527899Y-130724942D01*
X90072100Y-130724942D01*
X90072100Y-131355055D01*
X90072101Y-131355057D01*
X90080972Y-131399659D01*
X90114764Y-131450232D01*
X90114765Y-131450232D01*
X90114766Y-131450234D01*
X90165342Y-131484028D01*
X90209943Y-131492900D01*
X90390900Y-131492899D01*
X90439237Y-131510492D01*
X90464957Y-131555040D01*
X90466100Y-131568099D01*
X90466100Y-133587092D01*
X90458461Y-133620116D01*
X90457094Y-133622912D01*
X90447100Y-133691497D01*
X90447100Y-134308502D01*
X90457094Y-134377088D01*
X90457094Y-134377089D01*
X90458457Y-134379876D01*
X90466100Y-134412907D01*
X90466100Y-135587092D01*
X90458461Y-135620116D01*
X90457094Y-135622912D01*
X90447100Y-135691497D01*
X90447100Y-136308502D01*
X90457094Y-136377088D01*
X90508822Y-136482900D01*
X90592099Y-136566177D01*
X90592100Y-136566177D01*
X90592102Y-136566179D01*
X90697912Y-136617906D01*
X90748180Y-136625230D01*
X90766497Y-136627899D01*
X90766502Y-136627899D01*
X90766506Y-136627900D01*
X90766508Y-136627900D01*
X91233492Y-136627900D01*
X91233494Y-136627900D01*
X91233498Y-136627899D01*
X91233502Y-136627899D01*
X91243245Y-136626479D01*
X91302088Y-136617906D01*
X91407898Y-136566179D01*
X91491179Y-136482898D01*
X91542906Y-136377088D01*
X91552900Y-136308494D01*
X91552900Y-135691506D01*
X91552417Y-135688194D01*
X91550526Y-135675215D01*
X91542906Y-135622912D01*
X91541538Y-135620115D01*
X91533900Y-135587092D01*
X91533900Y-134412907D01*
X91541543Y-134379876D01*
X91542906Y-134377088D01*
X91552900Y-134308494D01*
X91552900Y-133691506D01*
X91542906Y-133622912D01*
X91541538Y-133620115D01*
X91533900Y-133587092D01*
X91533900Y-131568099D01*
X91551493Y-131519761D01*
X91596042Y-131494041D01*
X91609100Y-131492899D01*
X91790056Y-131492899D01*
X91834658Y-131484028D01*
X91885234Y-131450234D01*
X91919028Y-131399658D01*
X91927900Y-131355057D01*
X91927899Y-130724944D01*
X91919028Y-130680342D01*
X91885234Y-130629766D01*
X91834658Y-130595972D01*
X91834656Y-130595971D01*
X91790057Y-130587100D01*
X90209944Y-130587100D01*
X90209942Y-130587101D01*
X90165340Y-130595972D01*
X90114767Y-130629764D01*
X90080972Y-130680342D01*
X90080971Y-130680343D01*
X90072100Y-130724942D01*
X86527899Y-130724942D01*
X86519028Y-130680342D01*
X86485234Y-130629766D01*
X86434658Y-130595972D01*
X86434656Y-130595971D01*
X86390057Y-130587100D01*
X85903504Y-130587100D01*
X85865904Y-130577025D01*
X85806078Y-130542484D01*
X85670289Y-130506100D01*
X85670286Y-130506100D01*
X83944957Y-130506100D01*
X83911930Y-130498459D01*
X83817088Y-130452094D01*
X83748502Y-130442100D01*
X83748494Y-130442100D01*
X83131506Y-130442100D01*
X83131497Y-130442100D01*
X83062911Y-130452094D01*
X82957099Y-130503822D01*
X82873822Y-130587099D01*
X82822094Y-130692911D01*
X82812100Y-130761497D01*
X60579466Y-130761497D01*
X60584270Y-130723469D01*
X60584507Y-130721763D01*
X60657246Y-130243840D01*
X60657701Y-130241185D01*
X60679728Y-130125716D01*
X60680027Y-130124240D01*
X60782868Y-129645154D01*
X60783528Y-129642353D01*
X60810498Y-129537313D01*
X60810862Y-129535954D01*
X60945006Y-129054758D01*
X60945884Y-129051848D01*
X60975374Y-128961089D01*
X60975691Y-128960139D01*
X61143095Y-128475020D01*
X61144210Y-128472010D01*
X61172462Y-128400653D01*
X61172785Y-128399855D01*
X61376452Y-127908159D01*
X61377818Y-127905070D01*
X61398985Y-127860088D01*
X61399268Y-127859495D01*
X61419253Y-127818450D01*
X64585500Y-127818450D01*
X64585500Y-128061550D01*
X64617231Y-128302571D01*
X64672874Y-128510235D01*
X64680151Y-128537390D01*
X64680151Y-128537391D01*
X64773181Y-128761985D01*
X64894732Y-128972518D01*
X64955605Y-129051848D01*
X65042722Y-129165380D01*
X65042727Y-129165385D01*
X65042734Y-129165393D01*
X65214606Y-129337265D01*
X65214614Y-129337272D01*
X65214620Y-129337278D01*
X65337867Y-129431849D01*
X65397008Y-129477231D01*
X65407484Y-129485269D01*
X65618016Y-129606819D01*
X65842612Y-129699850D01*
X66077429Y-129762769D01*
X66318450Y-129794500D01*
X66318453Y-129794500D01*
X66561547Y-129794500D01*
X66561550Y-129794500D01*
X66802571Y-129762769D01*
X67037388Y-129699850D01*
X67261984Y-129606819D01*
X67472516Y-129485269D01*
X67665380Y-129337278D01*
X67837278Y-129165380D01*
X67985269Y-128972516D01*
X68106819Y-128761984D01*
X68199850Y-128537388D01*
X68262769Y-128302571D01*
X68294500Y-128061550D01*
X68294500Y-127818450D01*
X68276990Y-127685446D01*
X72517100Y-127685446D01*
X72517100Y-127954554D01*
X72552226Y-128221360D01*
X72616077Y-128459658D01*
X72621877Y-128481301D01*
X72621877Y-128481302D01*
X72724859Y-128729924D01*
X72859414Y-128962979D01*
X73023231Y-129176469D01*
X73023243Y-129176483D01*
X73213516Y-129366756D01*
X73213530Y-129366768D01*
X73401079Y-129510680D01*
X73427023Y-129530587D01*
X73559310Y-129606963D01*
X73643092Y-129655335D01*
X73660077Y-129665141D01*
X73908701Y-129768124D01*
X74168640Y-129837774D01*
X74435446Y-129872900D01*
X74435449Y-129872900D01*
X74704551Y-129872900D01*
X74704554Y-129872900D01*
X74971360Y-129837774D01*
X75231299Y-129768124D01*
X75479923Y-129665141D01*
X75712977Y-129530587D01*
X75811559Y-129454942D01*
X84672100Y-129454942D01*
X84672100Y-130085055D01*
X84672101Y-130085057D01*
X84680972Y-130129659D01*
X84714764Y-130180232D01*
X84714765Y-130180232D01*
X84714766Y-130180234D01*
X84765342Y-130214028D01*
X84809943Y-130222900D01*
X86390056Y-130222899D01*
X86434658Y-130214028D01*
X86485234Y-130180234D01*
X86519028Y-130129658D01*
X86527900Y-130085057D01*
X86527899Y-129454944D01*
X86527899Y-129454942D01*
X90072100Y-129454942D01*
X90072100Y-130085055D01*
X90072101Y-130085057D01*
X90080972Y-130129659D01*
X90114764Y-130180232D01*
X90114765Y-130180232D01*
X90114766Y-130180234D01*
X90165342Y-130214028D01*
X90209943Y-130222900D01*
X91790056Y-130222899D01*
X91834658Y-130214028D01*
X91871256Y-130189573D01*
X91913035Y-130176900D01*
X92326133Y-130176900D01*
X92374471Y-130194493D01*
X92394388Y-130224486D01*
X92395237Y-130224072D01*
X92453193Y-130342625D01*
X92542372Y-130431804D01*
X92542373Y-130431804D01*
X92542375Y-130431806D01*
X92655681Y-130487198D01*
X92729137Y-130497900D01*
X93250862Y-130497899D01*
X93324319Y-130487198D01*
X93437625Y-130431806D01*
X93526806Y-130342625D01*
X93582198Y-130229319D01*
X93589349Y-130180235D01*
X93592899Y-130155873D01*
X93592899Y-130155869D01*
X93592900Y-130155863D01*
X93592899Y-129584138D01*
X93582198Y-129510681D01*
X93526806Y-129397375D01*
X93526804Y-129397373D01*
X93526804Y-129397372D01*
X93437627Y-129308195D01*
X93437625Y-129308194D01*
X93324319Y-129252802D01*
X93324318Y-129252801D01*
X93250867Y-129242100D01*
X92729141Y-129242100D01*
X92729136Y-129242101D01*
X92655682Y-129252801D01*
X92655680Y-129252802D01*
X92542374Y-129308194D01*
X92533469Y-129317100D01*
X92509494Y-129341074D01*
X92462876Y-129362814D01*
X92456321Y-129363100D01*
X91913035Y-129363100D01*
X91871256Y-129350426D01*
X91834661Y-129325973D01*
X91834656Y-129325971D01*
X91790057Y-129317100D01*
X90209944Y-129317100D01*
X90209942Y-129317101D01*
X90165340Y-129325972D01*
X90114767Y-129359764D01*
X90080972Y-129410342D01*
X90080971Y-129410343D01*
X90072100Y-129454942D01*
X86527899Y-129454942D01*
X86519028Y-129410342D01*
X86516516Y-129406583D01*
X86485235Y-129359767D01*
X86485231Y-129359764D01*
X86434658Y-129325972D01*
X86434656Y-129325971D01*
X86390057Y-129317100D01*
X84809944Y-129317100D01*
X84809942Y-129317101D01*
X84765340Y-129325972D01*
X84714767Y-129359764D01*
X84680972Y-129410342D01*
X84680971Y-129410343D01*
X84672100Y-129454942D01*
X75811559Y-129454942D01*
X75874582Y-129406583D01*
X75894123Y-129391589D01*
X75907078Y-129381647D01*
X75926475Y-129366764D01*
X76116764Y-129176475D01*
X76203590Y-129063320D01*
X76246974Y-129035683D01*
X76263250Y-129033900D01*
X85670286Y-129033900D01*
X85670289Y-129033900D01*
X85806078Y-128997516D01*
X85849375Y-128972518D01*
X85865906Y-128962974D01*
X85903506Y-128952899D01*
X86390056Y-128952899D01*
X86434658Y-128944028D01*
X86485234Y-128910234D01*
X86519028Y-128859658D01*
X86527900Y-128815057D01*
X86527899Y-128184944D01*
X86519028Y-128140342D01*
X86485234Y-128089766D01*
X86434658Y-128055972D01*
X86434656Y-128055971D01*
X86390057Y-128047100D01*
X85903504Y-128047100D01*
X85865904Y-128037025D01*
X85806078Y-128002484D01*
X85670289Y-127966100D01*
X85670286Y-127966100D01*
X82956679Y-127966100D01*
X82908341Y-127948507D01*
X82903515Y-127944084D01*
X82842625Y-127883194D01*
X82729319Y-127827802D01*
X82729318Y-127827801D01*
X82655867Y-127817100D01*
X82084141Y-127817100D01*
X82084136Y-127817101D01*
X82010682Y-127827801D01*
X82010680Y-127827802D01*
X81897374Y-127883194D01*
X81876611Y-127903958D01*
X81836494Y-127944074D01*
X81789876Y-127965814D01*
X81783321Y-127966100D01*
X80446679Y-127966100D01*
X80398341Y-127948507D01*
X80393515Y-127944084D01*
X80332625Y-127883194D01*
X80219319Y-127827802D01*
X80219318Y-127827801D01*
X80145867Y-127817100D01*
X79574141Y-127817100D01*
X79574136Y-127817101D01*
X79500682Y-127827801D01*
X79500680Y-127827802D01*
X79387374Y-127883194D01*
X79366611Y-127903958D01*
X79326494Y-127944074D01*
X79279876Y-127965814D01*
X79273321Y-127966100D01*
X76698100Y-127966100D01*
X76649762Y-127948507D01*
X76624042Y-127903958D01*
X76622900Y-127890900D01*
X76622900Y-127685448D01*
X76622797Y-127684663D01*
X76587774Y-127418640D01*
X76518124Y-127158701D01*
X76435441Y-126959085D01*
X76427547Y-126940027D01*
X76427546Y-126940024D01*
X76417157Y-126914942D01*
X84672100Y-126914942D01*
X84672100Y-127545055D01*
X84672101Y-127545057D01*
X84680972Y-127589659D01*
X84714764Y-127640232D01*
X84714765Y-127640232D01*
X84714766Y-127640234D01*
X84765342Y-127674028D01*
X84809943Y-127682900D01*
X85406122Y-127682899D01*
X85443721Y-127692974D01*
X85491959Y-127720823D01*
X85491963Y-127720825D01*
X85563150Y-127739900D01*
X85563152Y-127739900D01*
X85636848Y-127739900D01*
X85636850Y-127739900D01*
X85708037Y-127720825D01*
X85756277Y-127692974D01*
X85793877Y-127682899D01*
X86390056Y-127682899D01*
X86434658Y-127674028D01*
X86485234Y-127640234D01*
X86519028Y-127589658D01*
X86527900Y-127545057D01*
X86527899Y-126959084D01*
X86545492Y-126910747D01*
X86549902Y-126905934D01*
X87673976Y-125781862D01*
X87710825Y-125718037D01*
X87729900Y-125646850D01*
X87729900Y-125573150D01*
X87729900Y-124689484D01*
X87747493Y-124641146D01*
X87779225Y-124620077D01*
X87779072Y-124619763D01*
X87781447Y-124618601D01*
X87782905Y-124617634D01*
X87784312Y-124617198D01*
X87784319Y-124617198D01*
X87897625Y-124561806D01*
X87986806Y-124472625D01*
X88042198Y-124359319D01*
X88052900Y-124285863D01*
X88052899Y-123714138D01*
X88052897Y-123714126D01*
X88397100Y-123714126D01*
X88397100Y-124285858D01*
X88397101Y-124285863D01*
X88407801Y-124359317D01*
X88407802Y-124359319D01*
X88463195Y-124472627D01*
X88552372Y-124561804D01*
X88552373Y-124561804D01*
X88552375Y-124561806D01*
X88665681Y-124617198D01*
X88665685Y-124617198D01*
X88667092Y-124617633D01*
X88668038Y-124618350D01*
X88670928Y-124619763D01*
X88670650Y-124620330D01*
X88708085Y-124648707D01*
X88720100Y-124689484D01*
X88720100Y-125423150D01*
X88720100Y-125496850D01*
X88723959Y-125511251D01*
X88739175Y-125568038D01*
X88776023Y-125631860D01*
X88776027Y-125631866D01*
X90050074Y-126905912D01*
X90071814Y-126952532D01*
X90072100Y-126959086D01*
X90072100Y-127545055D01*
X90072101Y-127545057D01*
X90080972Y-127589659D01*
X90114764Y-127640232D01*
X90114765Y-127640232D01*
X90114766Y-127640234D01*
X90165342Y-127674028D01*
X90209943Y-127682900D01*
X90681853Y-127682899D01*
X90689606Y-127684976D01*
X90694912Y-127684041D01*
X90719453Y-127692974D01*
X90767689Y-127720823D01*
X90771286Y-127722900D01*
X90813922Y-127747516D01*
X90949711Y-127783900D01*
X98521901Y-127783900D01*
X98570239Y-127801493D01*
X98595959Y-127846042D01*
X98597101Y-127859100D01*
X98597101Y-128415057D01*
X98605972Y-128459659D01*
X98639764Y-128510232D01*
X98639765Y-128510232D01*
X98639766Y-128510234D01*
X98690342Y-128544028D01*
X98734943Y-128552900D01*
X99390900Y-128552899D01*
X99439238Y-128570492D01*
X99464958Y-128615041D01*
X99466100Y-128628099D01*
X99466100Y-129821900D01*
X99448507Y-129870238D01*
X99403958Y-129895958D01*
X99390900Y-129897100D01*
X98884944Y-129897100D01*
X98884942Y-129897101D01*
X98840340Y-129905972D01*
X98789767Y-129939764D01*
X98755972Y-129990342D01*
X98755971Y-129990343D01*
X98747100Y-130034942D01*
X98747100Y-131565055D01*
X98747101Y-131565057D01*
X98755972Y-131609659D01*
X98789764Y-131660232D01*
X98789765Y-131660232D01*
X98789766Y-131660234D01*
X98840342Y-131694028D01*
X98884943Y-131702900D01*
X101115056Y-131702899D01*
X101159658Y-131694028D01*
X101210234Y-131660234D01*
X101244028Y-131609658D01*
X101252900Y-131565057D01*
X101252899Y-130034944D01*
X101244028Y-129990342D01*
X101240807Y-129985522D01*
X101210235Y-129939767D01*
X101210231Y-129939764D01*
X101159658Y-129905972D01*
X101159656Y-129905971D01*
X101115057Y-129897100D01*
X100609100Y-129897100D01*
X100560762Y-129879507D01*
X100535042Y-129834958D01*
X100533900Y-129821900D01*
X100533900Y-128628099D01*
X100551493Y-128579761D01*
X100596042Y-128554041D01*
X100609100Y-128552899D01*
X101265056Y-128552899D01*
X101309658Y-128544028D01*
X101360234Y-128510234D01*
X101394028Y-128459658D01*
X101402900Y-128415057D01*
X101402899Y-126584944D01*
X101394028Y-126540342D01*
X101389551Y-126533642D01*
X101360235Y-126489767D01*
X101360231Y-126489764D01*
X101309658Y-126455972D01*
X101309656Y-126455971D01*
X101265057Y-126447100D01*
X98734944Y-126447100D01*
X98734942Y-126447101D01*
X98690340Y-126455972D01*
X98639767Y-126489764D01*
X98605972Y-126540342D01*
X98605971Y-126540343D01*
X98597100Y-126584942D01*
X98597100Y-126640900D01*
X98579507Y-126689238D01*
X98534958Y-126714958D01*
X98521900Y-126716100D01*
X91154832Y-126716100D01*
X91135370Y-126713538D01*
X91109967Y-126706731D01*
X91070289Y-126696100D01*
X90929711Y-126696100D01*
X90827869Y-126723388D01*
X90793921Y-126732484D01*
X90764265Y-126749606D01*
X90713607Y-126758537D01*
X90673492Y-126737654D01*
X89983619Y-126047781D01*
X120737100Y-126047781D01*
X120737100Y-126292218D01*
X120775335Y-126533630D01*
X120775338Y-126533642D01*
X120850870Y-126766106D01*
X120961843Y-126983901D01*
X121105510Y-127181642D01*
X121105522Y-127181656D01*
X121278343Y-127354477D01*
X121278357Y-127354489D01*
X121476098Y-127498156D01*
X121476100Y-127498157D01*
X121476103Y-127498159D01*
X121693893Y-127609129D01*
X121926362Y-127684663D01*
X122167784Y-127722900D01*
X122167788Y-127722900D01*
X122412212Y-127722900D01*
X122412216Y-127722900D01*
X122653638Y-127684663D01*
X122886107Y-127609129D01*
X123103897Y-127498159D01*
X123301647Y-127354486D01*
X123474486Y-127181647D01*
X123618159Y-126983897D01*
X123729129Y-126766107D01*
X123758075Y-126677020D01*
X123773723Y-126628862D01*
X123805392Y-126588327D01*
X123845242Y-126576900D01*
X129522884Y-126576900D01*
X129571222Y-126594493D01*
X129576058Y-126598926D01*
X132337095Y-129359963D01*
X132358835Y-129406583D01*
X132345521Y-129456270D01*
X132303384Y-129485775D01*
X132264458Y-129485775D01*
X132232575Y-129477232D01*
X132232574Y-129477231D01*
X132232571Y-129477231D01*
X131991550Y-129445500D01*
X131748450Y-129445500D01*
X131507429Y-129477231D01*
X131507425Y-129477232D01*
X131507424Y-129477232D01*
X131382592Y-129510681D01*
X131272612Y-129540150D01*
X131272610Y-129540150D01*
X131272609Y-129540151D01*
X131272608Y-129540151D01*
X131048014Y-129633181D01*
X130837481Y-129754732D01*
X130644622Y-129902720D01*
X130644606Y-129902734D01*
X130472734Y-130074606D01*
X130472720Y-130074622D01*
X130324732Y-130267481D01*
X130203181Y-130478014D01*
X130110151Y-130702608D01*
X130110151Y-130702609D01*
X130110150Y-130702612D01*
X130104166Y-130724944D01*
X130071032Y-130848604D01*
X130047231Y-130937429D01*
X130015500Y-131178450D01*
X130015500Y-131421550D01*
X130047231Y-131662571D01*
X130109425Y-131894684D01*
X130110151Y-131897390D01*
X130110151Y-131897391D01*
X130203181Y-132121985D01*
X130324732Y-132332518D01*
X130419302Y-132455763D01*
X130472722Y-132525380D01*
X130472727Y-132525385D01*
X130472734Y-132525393D01*
X130644606Y-132697265D01*
X130644614Y-132697272D01*
X130644620Y-132697278D01*
X130837481Y-132845267D01*
X130837484Y-132845269D01*
X130866073Y-132861775D01*
X130899139Y-132901179D01*
X130899139Y-132952619D01*
X130866075Y-132992025D01*
X130828474Y-133002100D01*
X124728692Y-133002100D01*
X124680354Y-132984507D01*
X124675518Y-132980074D01*
X123677443Y-131981999D01*
X123655703Y-131935379D01*
X123663613Y-131894687D01*
X123729129Y-131766107D01*
X123804663Y-131533638D01*
X123842900Y-131292216D01*
X123842900Y-131047784D01*
X123804663Y-130806362D01*
X123729129Y-130573893D01*
X123618159Y-130356103D01*
X123618157Y-130356100D01*
X123618156Y-130356098D01*
X123474489Y-130158357D01*
X123474477Y-130158343D01*
X123301656Y-129985522D01*
X123301642Y-129985510D01*
X123103901Y-129841843D01*
X122886106Y-129730870D01*
X122653642Y-129655338D01*
X122653630Y-129655335D01*
X122412218Y-129617100D01*
X122412216Y-129617100D01*
X122167784Y-129617100D01*
X122167781Y-129617100D01*
X121926369Y-129655335D01*
X121926357Y-129655338D01*
X121693893Y-129730870D01*
X121476098Y-129841843D01*
X121278357Y-129985510D01*
X121278343Y-129985522D01*
X121105522Y-130158343D01*
X121105510Y-130158357D01*
X120961843Y-130356098D01*
X120850870Y-130573893D01*
X120775338Y-130806357D01*
X120775335Y-130806369D01*
X120737100Y-131047781D01*
X120737100Y-131292218D01*
X120775335Y-131533630D01*
X120775338Y-131533642D01*
X120850870Y-131766106D01*
X120961843Y-131983901D01*
X121105510Y-132181642D01*
X121105522Y-132181656D01*
X121278343Y-132354477D01*
X121278357Y-132354489D01*
X121476098Y-132498156D01*
X121476100Y-132498157D01*
X121476103Y-132498159D01*
X121693893Y-132609129D01*
X121926362Y-132684663D01*
X122167784Y-132722900D01*
X122167788Y-132722900D01*
X122412212Y-132722900D01*
X122412216Y-132722900D01*
X122653638Y-132684663D01*
X122886107Y-132609129D01*
X123014686Y-132543613D01*
X123065740Y-132537344D01*
X123101999Y-132557443D01*
X124279152Y-133734597D01*
X124279155Y-133734599D01*
X124279157Y-133734601D01*
X124371942Y-133788170D01*
X124475430Y-133815900D01*
X124475431Y-133815900D01*
X131606119Y-133815900D01*
X131654457Y-133833493D01*
X131659293Y-133837926D01*
X134440093Y-136618726D01*
X134461833Y-136665346D01*
X134448519Y-136715033D01*
X134406382Y-136744538D01*
X134386919Y-136747100D01*
X134321071Y-136747100D01*
X134146633Y-136781798D01*
X133982313Y-136849861D01*
X133834438Y-136948668D01*
X133834429Y-136948676D01*
X133708676Y-137074429D01*
X133708668Y-137074438D01*
X133618303Y-137209679D01*
X133576820Y-137240096D01*
X133555777Y-137243100D01*
X123969692Y-137243100D01*
X123921354Y-137225507D01*
X123916518Y-137221074D01*
X123677443Y-136981999D01*
X123655703Y-136935379D01*
X123663613Y-136894687D01*
X123729129Y-136766107D01*
X123804663Y-136533638D01*
X123842900Y-136292216D01*
X123842900Y-136047784D01*
X123804663Y-135806362D01*
X123729129Y-135573893D01*
X123618159Y-135356103D01*
X123618157Y-135356100D01*
X123618156Y-135356098D01*
X123474489Y-135158357D01*
X123474477Y-135158343D01*
X123301656Y-134985522D01*
X123301642Y-134985510D01*
X123103901Y-134841843D01*
X122886106Y-134730870D01*
X122653642Y-134655338D01*
X122653630Y-134655335D01*
X122412218Y-134617100D01*
X122412216Y-134617100D01*
X122167784Y-134617100D01*
X122167781Y-134617100D01*
X121926369Y-134655335D01*
X121926357Y-134655338D01*
X121693893Y-134730870D01*
X121476098Y-134841843D01*
X121278357Y-134985510D01*
X121278343Y-134985522D01*
X121105522Y-135158343D01*
X121105510Y-135158357D01*
X120961843Y-135356098D01*
X120850870Y-135573893D01*
X120775338Y-135806357D01*
X120775335Y-135806369D01*
X120737100Y-136047781D01*
X120737100Y-136292218D01*
X120775335Y-136533630D01*
X120775338Y-136533642D01*
X120850870Y-136766106D01*
X120961843Y-136983901D01*
X121105510Y-137181642D01*
X121105522Y-137181656D01*
X121278343Y-137354477D01*
X121278357Y-137354489D01*
X121476098Y-137498156D01*
X121476100Y-137498157D01*
X121476103Y-137498159D01*
X121693893Y-137609129D01*
X121926362Y-137684663D01*
X122167784Y-137722900D01*
X122167788Y-137722900D01*
X122412212Y-137722900D01*
X122412216Y-137722900D01*
X122653638Y-137684663D01*
X122886107Y-137609129D01*
X123014684Y-137543614D01*
X123065741Y-137537345D01*
X123101999Y-137557444D01*
X123520152Y-137975597D01*
X123520155Y-137975599D01*
X123520157Y-137975601D01*
X123612942Y-138029170D01*
X123716430Y-138056900D01*
X123716431Y-138056900D01*
X133555777Y-138056900D01*
X133604115Y-138074493D01*
X133618303Y-138090321D01*
X133708668Y-138225561D01*
X133708676Y-138225570D01*
X133834429Y-138351323D01*
X133834438Y-138351331D01*
X133929811Y-138415057D01*
X133982316Y-138450140D01*
X134146634Y-138518202D01*
X134276465Y-138544027D01*
X134321071Y-138552900D01*
X134321072Y-138552900D01*
X134498929Y-138552900D01*
X134543535Y-138544027D01*
X134673366Y-138518202D01*
X134837684Y-138450140D01*
X134985565Y-138351328D01*
X135111328Y-138225565D01*
X135135373Y-138189578D01*
X135176856Y-138159161D01*
X135228186Y-138162525D01*
X135265345Y-138198096D01*
X135273100Y-138231357D01*
X135273100Y-139335777D01*
X135255507Y-139384115D01*
X135239679Y-139398303D01*
X135104438Y-139488668D01*
X135104429Y-139488676D01*
X134978676Y-139614429D01*
X134978668Y-139614438D01*
X134879861Y-139762313D01*
X134811798Y-139926633D01*
X134799241Y-139989764D01*
X134777100Y-140101072D01*
X134777100Y-140278928D01*
X134811798Y-140453366D01*
X134870061Y-140594028D01*
X134879861Y-140617686D01*
X134978668Y-140765561D01*
X134978676Y-140765570D01*
X135104429Y-140891323D01*
X135104438Y-140891331D01*
X135239679Y-140981696D01*
X135252316Y-140990140D01*
X135416634Y-141058202D01*
X135547757Y-141084284D01*
X135591071Y-141092900D01*
X135591072Y-141092900D01*
X135768929Y-141092900D01*
X135797870Y-141087143D01*
X135943366Y-141058202D01*
X136107684Y-140990140D01*
X136255565Y-140891328D01*
X136381328Y-140765565D01*
X136399683Y-140738096D01*
X136471696Y-140630321D01*
X136480140Y-140617684D01*
X136548202Y-140453366D01*
X136582900Y-140278928D01*
X136582900Y-140101072D01*
X137317100Y-140101072D01*
X137317100Y-140278928D01*
X137351798Y-140453366D01*
X137410061Y-140594028D01*
X137419861Y-140617686D01*
X137518668Y-140765561D01*
X137518676Y-140765570D01*
X137641074Y-140887968D01*
X137662814Y-140934588D01*
X137663100Y-140941142D01*
X137663100Y-150436430D01*
X137663100Y-150543570D01*
X137676589Y-150593912D01*
X137690830Y-150647059D01*
X137690846Y-150647086D01*
X137744399Y-150739843D01*
X137812555Y-150807999D01*
X137834295Y-150854618D01*
X137826385Y-150895313D01*
X137760873Y-151023889D01*
X137760867Y-151023903D01*
X137685338Y-151256357D01*
X137685335Y-151256369D01*
X137647100Y-151497781D01*
X137647100Y-151742218D01*
X137685335Y-151983630D01*
X137685338Y-151983642D01*
X137760870Y-152216106D01*
X137871843Y-152433901D01*
X138015510Y-152631642D01*
X138015522Y-152631656D01*
X138188343Y-152804477D01*
X138188357Y-152804489D01*
X138386098Y-152948156D01*
X138386100Y-152948157D01*
X138386103Y-152948159D01*
X138603893Y-153059129D01*
X138836362Y-153134663D01*
X139077784Y-153172900D01*
X139077788Y-153172900D01*
X139322212Y-153172900D01*
X139322216Y-153172900D01*
X139563638Y-153134663D01*
X139796107Y-153059129D01*
X140013897Y-152948159D01*
X140211647Y-152804486D01*
X140384486Y-152631647D01*
X140528159Y-152433897D01*
X140639129Y-152216107D01*
X140714663Y-151983638D01*
X140752900Y-151742216D01*
X140752900Y-151497784D01*
X140714663Y-151256362D01*
X140639129Y-151023893D01*
X140528159Y-150806103D01*
X140528157Y-150806100D01*
X140528156Y-150806098D01*
X140384489Y-150608357D01*
X140384477Y-150608343D01*
X140211656Y-150435522D01*
X140211642Y-150435510D01*
X140013901Y-150291843D01*
X139796106Y-150180870D01*
X139563642Y-150105338D01*
X139563630Y-150105335D01*
X139322218Y-150067100D01*
X139322216Y-150067100D01*
X139077784Y-150067100D01*
X139077781Y-150067100D01*
X138836369Y-150105335D01*
X138836357Y-150105338D01*
X138603903Y-150180867D01*
X138603895Y-150180870D01*
X138603893Y-150180871D01*
X138603890Y-150180872D01*
X138603884Y-150180875D01*
X138586239Y-150189866D01*
X138535183Y-150196134D01*
X138492042Y-150168118D01*
X138476900Y-150122862D01*
X138476900Y-141111127D01*
X138494493Y-141062789D01*
X138523321Y-141041652D01*
X138647684Y-140990140D01*
X138795565Y-140891328D01*
X138921328Y-140765565D01*
X138945373Y-140729578D01*
X138986856Y-140699161D01*
X139038186Y-140702525D01*
X139075345Y-140738096D01*
X139083100Y-140771357D01*
X139083100Y-146856430D01*
X139083100Y-146963570D01*
X139101586Y-147032562D01*
X139110830Y-147067059D01*
X139164398Y-147159841D01*
X139164402Y-147159847D01*
X142812555Y-150807999D01*
X142834295Y-150854619D01*
X142826385Y-150895313D01*
X142760873Y-151023889D01*
X142760867Y-151023903D01*
X142685338Y-151256357D01*
X142685335Y-151256369D01*
X142647100Y-151497781D01*
X142647100Y-151742218D01*
X142685335Y-151983630D01*
X142685338Y-151983642D01*
X142760870Y-152216106D01*
X142871843Y-152433901D01*
X143015510Y-152631642D01*
X143015522Y-152631656D01*
X143188343Y-152804477D01*
X143188357Y-152804489D01*
X143386098Y-152948156D01*
X143386100Y-152948157D01*
X143386103Y-152948159D01*
X143603893Y-153059129D01*
X143836362Y-153134663D01*
X144077784Y-153172900D01*
X144077788Y-153172900D01*
X144322212Y-153172900D01*
X144322216Y-153172900D01*
X144563638Y-153134663D01*
X144796107Y-153059129D01*
X145013897Y-152948159D01*
X145211647Y-152804486D01*
X145384486Y-152631647D01*
X145528159Y-152433897D01*
X145639129Y-152216107D01*
X145714663Y-151983638D01*
X145752900Y-151742216D01*
X145752900Y-151497784D01*
X145714663Y-151256362D01*
X145639129Y-151023893D01*
X145528159Y-150806103D01*
X145528157Y-150806100D01*
X145528156Y-150806098D01*
X145384489Y-150608357D01*
X145384477Y-150608343D01*
X145211656Y-150435522D01*
X145211642Y-150435510D01*
X145013901Y-150291843D01*
X144796106Y-150180870D01*
X144563642Y-150105338D01*
X144563630Y-150105335D01*
X144322218Y-150067100D01*
X144322216Y-150067100D01*
X144077784Y-150067100D01*
X144077781Y-150067100D01*
X143836369Y-150105335D01*
X143836357Y-150105338D01*
X143603903Y-150180867D01*
X143603895Y-150180870D01*
X143603893Y-150180871D01*
X143603889Y-150180872D01*
X143603889Y-150180873D01*
X143475313Y-150246385D01*
X143424256Y-150252653D01*
X143387999Y-150232555D01*
X139918926Y-146763482D01*
X139897186Y-146716862D01*
X139896900Y-146710308D01*
X139896900Y-140771357D01*
X139914493Y-140723019D01*
X139959042Y-140697299D01*
X140009700Y-140706232D01*
X140034627Y-140729579D01*
X140058670Y-140765563D01*
X140058676Y-140765570D01*
X140184429Y-140891323D01*
X140184438Y-140891331D01*
X140319679Y-140981696D01*
X140350096Y-141023179D01*
X140353100Y-141044222D01*
X140353100Y-143126430D01*
X140353100Y-143233570D01*
X140371586Y-143302562D01*
X140380830Y-143337059D01*
X140434398Y-143429841D01*
X140434402Y-143429847D01*
X147812555Y-150807998D01*
X147834295Y-150854618D01*
X147826385Y-150895311D01*
X147760875Y-151023884D01*
X147760867Y-151023903D01*
X147685338Y-151256357D01*
X147685335Y-151256369D01*
X147647100Y-151497781D01*
X147647100Y-151742218D01*
X147685335Y-151983630D01*
X147685338Y-151983642D01*
X147760870Y-152216106D01*
X147871843Y-152433901D01*
X148015510Y-152631642D01*
X148015522Y-152631656D01*
X148188343Y-152804477D01*
X148188357Y-152804489D01*
X148386098Y-152948156D01*
X148386100Y-152948157D01*
X148386103Y-152948159D01*
X148603893Y-153059129D01*
X148836362Y-153134663D01*
X149077784Y-153172900D01*
X149077788Y-153172900D01*
X149322212Y-153172900D01*
X149322216Y-153172900D01*
X149563638Y-153134663D01*
X149796107Y-153059129D01*
X150013897Y-152948159D01*
X150211647Y-152804486D01*
X150384486Y-152631647D01*
X150528159Y-152433897D01*
X150639129Y-152216107D01*
X150714663Y-151983638D01*
X150752900Y-151742216D01*
X150752900Y-151497784D01*
X150714663Y-151256362D01*
X150639129Y-151023893D01*
X150528159Y-150806103D01*
X150528157Y-150806100D01*
X150528156Y-150806098D01*
X150384489Y-150608357D01*
X150384477Y-150608343D01*
X150211656Y-150435522D01*
X150211642Y-150435510D01*
X150013901Y-150291843D01*
X149796106Y-150180870D01*
X149563642Y-150105338D01*
X149563630Y-150105335D01*
X149322218Y-150067100D01*
X149322216Y-150067100D01*
X149077784Y-150067100D01*
X149077781Y-150067100D01*
X148836369Y-150105335D01*
X148836357Y-150105338D01*
X148603903Y-150180867D01*
X148603895Y-150180870D01*
X148603893Y-150180871D01*
X148603890Y-150180872D01*
X148603884Y-150180875D01*
X148475311Y-150246385D01*
X148424255Y-150252653D01*
X148387998Y-150232555D01*
X144796124Y-146640681D01*
X141188926Y-143033482D01*
X141167186Y-142986862D01*
X141166900Y-142980308D01*
X141166900Y-141044222D01*
X141184493Y-140995884D01*
X141200321Y-140981696D01*
X141335561Y-140891331D01*
X141335562Y-140891329D01*
X141335565Y-140891328D01*
X141461328Y-140765565D01*
X141479683Y-140738096D01*
X141551696Y-140630321D01*
X141560140Y-140617684D01*
X141628202Y-140453366D01*
X141662900Y-140278928D01*
X141662900Y-140101072D01*
X141628202Y-139926634D01*
X141560140Y-139762316D01*
X141551696Y-139749679D01*
X141461331Y-139614438D01*
X141461323Y-139614429D01*
X141335570Y-139488676D01*
X141335561Y-139488668D01*
X141187686Y-139389861D01*
X141166899Y-139381251D01*
X141023366Y-139321798D01*
X141023367Y-139321798D01*
X140848929Y-139287100D01*
X140848928Y-139287100D01*
X140671072Y-139287100D01*
X140671071Y-139287100D01*
X140496633Y-139321798D01*
X140332313Y-139389861D01*
X140184438Y-139488668D01*
X140184429Y-139488676D01*
X140058676Y-139614429D01*
X140058668Y-139614438D01*
X140034626Y-139650421D01*
X139993143Y-139680838D01*
X139941813Y-139677473D01*
X139904655Y-139641902D01*
X139896900Y-139608642D01*
X139896900Y-138504222D01*
X139914493Y-138455884D01*
X139930321Y-138441696D01*
X140065561Y-138351331D01*
X140065562Y-138351329D01*
X140065565Y-138351328D01*
X140191328Y-138225565D01*
X140209683Y-138198096D01*
X140261536Y-138120492D01*
X140290140Y-138077684D01*
X140358202Y-137913366D01*
X140392900Y-137738928D01*
X140392900Y-137561072D01*
X140392178Y-137557444D01*
X140385997Y-137526373D01*
X140358202Y-137386634D01*
X140290140Y-137222316D01*
X140262962Y-137181642D01*
X140191331Y-137074438D01*
X140191323Y-137074429D01*
X140065568Y-136948674D01*
X140065497Y-136948626D01*
X140045671Y-136935379D01*
X139970188Y-136884942D01*
X141127100Y-136884942D01*
X141127100Y-138415055D01*
X141127101Y-138415057D01*
X141135972Y-138459659D01*
X141169764Y-138510232D01*
X141169765Y-138510232D01*
X141169766Y-138510234D01*
X141220342Y-138544028D01*
X141264943Y-138552900D01*
X141547900Y-138552899D01*
X141596237Y-138570492D01*
X141621957Y-138615040D01*
X141623100Y-138628099D01*
X141623100Y-139396430D01*
X141623100Y-139503570D01*
X141623666Y-139505681D01*
X141650830Y-139607059D01*
X141704398Y-139699841D01*
X141704402Y-139699847D01*
X152625074Y-150620518D01*
X152646814Y-150667138D01*
X152647100Y-150673692D01*
X152647100Y-152801700D01*
X152647101Y-152801712D01*
X152662041Y-152896049D01*
X152662042Y-152896051D01*
X152662042Y-152896052D01*
X152662043Y-152896054D01*
X152719984Y-153009770D01*
X152810230Y-153100016D01*
X152923944Y-153157956D01*
X152923946Y-153157957D01*
X153018293Y-153172900D01*
X155381706Y-153172899D01*
X155399917Y-153170014D01*
X155476049Y-153157958D01*
X155476049Y-153157957D01*
X155476054Y-153157957D01*
X155589770Y-153100016D01*
X155680016Y-153009770D01*
X155737957Y-152896054D01*
X155752900Y-152801707D01*
X155752899Y-150438294D01*
X155737957Y-150343946D01*
X155680016Y-150230230D01*
X155589770Y-150139984D01*
X155476054Y-150082043D01*
X155476056Y-150082043D01*
X155381709Y-150067100D01*
X155381707Y-150067100D01*
X153253692Y-150067100D01*
X153205354Y-150049507D01*
X153200518Y-150045074D01*
X142458926Y-139303482D01*
X142437186Y-139256862D01*
X142436900Y-139250308D01*
X142436900Y-138628099D01*
X142454493Y-138579761D01*
X142499042Y-138554041D01*
X142512100Y-138552899D01*
X142795056Y-138552899D01*
X142839658Y-138544028D01*
X142890234Y-138510234D01*
X142924028Y-138459658D01*
X142932900Y-138415057D01*
X142932899Y-136884944D01*
X142924028Y-136840342D01*
X142915714Y-136827900D01*
X142890235Y-136789767D01*
X142888435Y-136788564D01*
X142839658Y-136755972D01*
X142839656Y-136755971D01*
X142795057Y-136747100D01*
X141264944Y-136747100D01*
X141264942Y-136747101D01*
X141220340Y-136755972D01*
X141169767Y-136789764D01*
X141135972Y-136840342D01*
X141135971Y-136840343D01*
X141127100Y-136884942D01*
X139970188Y-136884942D01*
X139917686Y-136849861D01*
X139896899Y-136841251D01*
X139753366Y-136781798D01*
X139753367Y-136781798D01*
X139578929Y-136747100D01*
X139578928Y-136747100D01*
X139401072Y-136747100D01*
X139401071Y-136747100D01*
X139226633Y-136781798D01*
X139062313Y-136849861D01*
X138914438Y-136948668D01*
X138914429Y-136948676D01*
X138788676Y-137074429D01*
X138788668Y-137074438D01*
X138689861Y-137222313D01*
X138621798Y-137386633D01*
X138587822Y-137557444D01*
X138587100Y-137561072D01*
X138587100Y-137738928D01*
X138621798Y-137913366D01*
X138682632Y-138060235D01*
X138689861Y-138077686D01*
X138788668Y-138225561D01*
X138788676Y-138225570D01*
X138914429Y-138351323D01*
X138914438Y-138351331D01*
X139049679Y-138441696D01*
X139080096Y-138483179D01*
X139083100Y-138504222D01*
X139083100Y-139608642D01*
X139065507Y-139656980D01*
X139020958Y-139682700D01*
X138970300Y-139673767D01*
X138945374Y-139650421D01*
X138921331Y-139614438D01*
X138921323Y-139614429D01*
X138795570Y-139488676D01*
X138795561Y-139488668D01*
X138647686Y-139389861D01*
X138626899Y-139381251D01*
X138483366Y-139321798D01*
X138483367Y-139321798D01*
X138308929Y-139287100D01*
X138308928Y-139287100D01*
X138131072Y-139287100D01*
X138131071Y-139287100D01*
X137956633Y-139321798D01*
X137792313Y-139389861D01*
X137644438Y-139488668D01*
X137644429Y-139488676D01*
X137518676Y-139614429D01*
X137518668Y-139614438D01*
X137419861Y-139762313D01*
X137351798Y-139926633D01*
X137339241Y-139989764D01*
X137317100Y-140101072D01*
X136582900Y-140101072D01*
X136548202Y-139926634D01*
X136480140Y-139762316D01*
X136471696Y-139749679D01*
X136381331Y-139614438D01*
X136381323Y-139614429D01*
X136255570Y-139488676D01*
X136255561Y-139488668D01*
X136120321Y-139398303D01*
X136089904Y-139356820D01*
X136086900Y-139335777D01*
X136086900Y-138231357D01*
X136104493Y-138183019D01*
X136149042Y-138157299D01*
X136199700Y-138166232D01*
X136224627Y-138189579D01*
X136248670Y-138225563D01*
X136248676Y-138225570D01*
X136374429Y-138351323D01*
X136374438Y-138351331D01*
X136469811Y-138415057D01*
X136522316Y-138450140D01*
X136686634Y-138518202D01*
X136816465Y-138544027D01*
X136861071Y-138552900D01*
X136861072Y-138552900D01*
X137038929Y-138552900D01*
X137083535Y-138544027D01*
X137213366Y-138518202D01*
X137377684Y-138450140D01*
X137525565Y-138351328D01*
X137651328Y-138225565D01*
X137669683Y-138198096D01*
X137721536Y-138120492D01*
X137750140Y-138077684D01*
X137818202Y-137913366D01*
X137852900Y-137738928D01*
X137852900Y-137561072D01*
X137852178Y-137557444D01*
X137845997Y-137526373D01*
X137818202Y-137386634D01*
X137750140Y-137222316D01*
X137722962Y-137181642D01*
X137651331Y-137074438D01*
X137651323Y-137074429D01*
X137525570Y-136948676D01*
X137525561Y-136948668D01*
X137390321Y-136858303D01*
X137359904Y-136816820D01*
X137356900Y-136795777D01*
X137356900Y-133343856D01*
X137329170Y-133240366D01*
X137304315Y-133197316D01*
X137275601Y-133147581D01*
X137275599Y-133147579D01*
X137275597Y-133147576D01*
X135306471Y-131178450D01*
X141445500Y-131178450D01*
X141445500Y-131421550D01*
X141477231Y-131662571D01*
X141539425Y-131894684D01*
X141540151Y-131897390D01*
X141540151Y-131897391D01*
X141633181Y-132121985D01*
X141754732Y-132332518D01*
X141849302Y-132455763D01*
X141902722Y-132525380D01*
X141902727Y-132525385D01*
X141902734Y-132525393D01*
X142074606Y-132697265D01*
X142074614Y-132697272D01*
X142074620Y-132697278D01*
X142267484Y-132845269D01*
X142478016Y-132966819D01*
X142702612Y-133059850D01*
X142937429Y-133122769D01*
X143178450Y-133154500D01*
X143178453Y-133154500D01*
X143421547Y-133154500D01*
X143421550Y-133154500D01*
X143662571Y-133122769D01*
X143897388Y-133059850D01*
X144121984Y-132966819D01*
X144332516Y-132845269D01*
X144525380Y-132697278D01*
X144697278Y-132525380D01*
X144845269Y-132332516D01*
X144966819Y-132121984D01*
X145059850Y-131897388D01*
X145122769Y-131662571D01*
X145154500Y-131421550D01*
X145154500Y-131178450D01*
X145122769Y-130937429D01*
X145059850Y-130702612D01*
X144966819Y-130478016D01*
X144845269Y-130267484D01*
X144811057Y-130222899D01*
X144739510Y-130129658D01*
X144697278Y-130074620D01*
X144697272Y-130074614D01*
X144697265Y-130074606D01*
X144525393Y-129902734D01*
X144525385Y-129902727D01*
X144525380Y-129902722D01*
X144384344Y-129794500D01*
X144332518Y-129754732D01*
X144121985Y-129633181D01*
X143897391Y-129540151D01*
X143897389Y-129540150D01*
X143897388Y-129540150D01*
X143662571Y-129477231D01*
X143421550Y-129445500D01*
X143178450Y-129445500D01*
X142937429Y-129477231D01*
X142937425Y-129477232D01*
X142937424Y-129477232D01*
X142812592Y-129510681D01*
X142702612Y-129540150D01*
X142702610Y-129540150D01*
X142702609Y-129540151D01*
X142702608Y-129540151D01*
X142478014Y-129633181D01*
X142267481Y-129754732D01*
X142074622Y-129902720D01*
X142074606Y-129902734D01*
X141902734Y-130074606D01*
X141902720Y-130074622D01*
X141754732Y-130267481D01*
X141633181Y-130478014D01*
X141540151Y-130702608D01*
X141540151Y-130702609D01*
X141540150Y-130702612D01*
X141534166Y-130724944D01*
X141501032Y-130848604D01*
X141477231Y-130937429D01*
X141445500Y-131178450D01*
X135306471Y-131178450D01*
X131946471Y-127818450D01*
X151855500Y-127818450D01*
X151855500Y-128061550D01*
X151887231Y-128302571D01*
X151942874Y-128510235D01*
X151950151Y-128537390D01*
X151950151Y-128537391D01*
X152043181Y-128761985D01*
X152164732Y-128972518D01*
X152225605Y-129051848D01*
X152312722Y-129165380D01*
X152312727Y-129165385D01*
X152312734Y-129165393D01*
X152484606Y-129337265D01*
X152484614Y-129337272D01*
X152484620Y-129337278D01*
X152607867Y-129431849D01*
X152667008Y-129477231D01*
X152677484Y-129485269D01*
X152888016Y-129606819D01*
X153112612Y-129699850D01*
X153347429Y-129762769D01*
X153588450Y-129794500D01*
X153588453Y-129794500D01*
X153831547Y-129794500D01*
X153831550Y-129794500D01*
X154072571Y-129762769D01*
X154307388Y-129699850D01*
X154531984Y-129606819D01*
X154742516Y-129485269D01*
X154935380Y-129337278D01*
X155107278Y-129165380D01*
X155255269Y-128972516D01*
X155376819Y-128761984D01*
X155469850Y-128537388D01*
X155532769Y-128302571D01*
X155564500Y-128061550D01*
X155564500Y-127818450D01*
X155532769Y-127577429D01*
X155469850Y-127342612D01*
X155376819Y-127118016D01*
X155255269Y-126907484D01*
X155254061Y-126905910D01*
X155187960Y-126819766D01*
X155107278Y-126714620D01*
X155107272Y-126714614D01*
X155107265Y-126714606D01*
X154935393Y-126542734D01*
X154935385Y-126542727D01*
X154935380Y-126542722D01*
X154832176Y-126463530D01*
X154742518Y-126394732D01*
X154531985Y-126273181D01*
X154307391Y-126180151D01*
X154307389Y-126180150D01*
X154307388Y-126180150D01*
X154072571Y-126117231D01*
X153831550Y-126085500D01*
X153588450Y-126085500D01*
X153347429Y-126117231D01*
X153347425Y-126117232D01*
X153347424Y-126117232D01*
X153198557Y-126157121D01*
X153112612Y-126180150D01*
X153112610Y-126180150D01*
X153112609Y-126180151D01*
X153112608Y-126180151D01*
X152888014Y-126273181D01*
X152677481Y-126394732D01*
X152484622Y-126542720D01*
X152484606Y-126542734D01*
X152312734Y-126714606D01*
X152312720Y-126714622D01*
X152164732Y-126907481D01*
X152043181Y-127118014D01*
X151950151Y-127342608D01*
X151950151Y-127342609D01*
X151950150Y-127342612D01*
X151946968Y-127354489D01*
X151895906Y-127545055D01*
X151887231Y-127577429D01*
X151855500Y-127818450D01*
X131946471Y-127818450D01*
X129972423Y-125844402D01*
X129972417Y-125844398D01*
X129879635Y-125790830D01*
X129845138Y-125781586D01*
X129776146Y-125763100D01*
X129776145Y-125763100D01*
X129776144Y-125763100D01*
X123845242Y-125763100D01*
X123796904Y-125745507D01*
X123773723Y-125711138D01*
X123729129Y-125573893D01*
X123688453Y-125494062D01*
X123618159Y-125356103D01*
X123618157Y-125356100D01*
X123618156Y-125356098D01*
X123474489Y-125158357D01*
X123474477Y-125158343D01*
X123301656Y-124985522D01*
X123301642Y-124985510D01*
X123103901Y-124841843D01*
X122886106Y-124730870D01*
X122653642Y-124655338D01*
X122653630Y-124655335D01*
X122412218Y-124617100D01*
X122412216Y-124617100D01*
X122167784Y-124617100D01*
X122167781Y-124617100D01*
X121926369Y-124655335D01*
X121926357Y-124655338D01*
X121693893Y-124730870D01*
X121476098Y-124841843D01*
X121278357Y-124985510D01*
X121278343Y-124985522D01*
X121105522Y-125158343D01*
X121105510Y-125158357D01*
X120961843Y-125356098D01*
X120850870Y-125573893D01*
X120775338Y-125806357D01*
X120775335Y-125806369D01*
X120737100Y-126047781D01*
X89983619Y-126047781D01*
X89301926Y-125366088D01*
X89280186Y-125319468D01*
X89279900Y-125312914D01*
X89279900Y-124689484D01*
X89297493Y-124641146D01*
X89329225Y-124620077D01*
X89329072Y-124619763D01*
X89331447Y-124618601D01*
X89332905Y-124617634D01*
X89334312Y-124617198D01*
X89334319Y-124617198D01*
X89447625Y-124561806D01*
X89536806Y-124472625D01*
X89592198Y-124359319D01*
X89602900Y-124285863D01*
X89602899Y-123714138D01*
X89592198Y-123640681D01*
X89536806Y-123527375D01*
X89536804Y-123527373D01*
X89536804Y-123527372D01*
X89447627Y-123438195D01*
X89447625Y-123438194D01*
X89334319Y-123382802D01*
X89334318Y-123382801D01*
X89260867Y-123372100D01*
X88739141Y-123372100D01*
X88739136Y-123372101D01*
X88665682Y-123382801D01*
X88665680Y-123382802D01*
X88552372Y-123438195D01*
X88463195Y-123527372D01*
X88407802Y-123640681D01*
X88407801Y-123640681D01*
X88397100Y-123714126D01*
X88052897Y-123714126D01*
X88042198Y-123640681D01*
X87986806Y-123527375D01*
X87986804Y-123527373D01*
X87986804Y-123527372D01*
X87897627Y-123438195D01*
X87897625Y-123438194D01*
X87784319Y-123382802D01*
X87784318Y-123382801D01*
X87710867Y-123372100D01*
X87189141Y-123372100D01*
X87189136Y-123372101D01*
X87115682Y-123382801D01*
X87115680Y-123382802D01*
X87002372Y-123438195D01*
X86913195Y-123527372D01*
X86857802Y-123640681D01*
X86857801Y-123640681D01*
X86847100Y-123714126D01*
X86847100Y-124285858D01*
X86847101Y-124285863D01*
X86857801Y-124359317D01*
X86857802Y-124359319D01*
X86913195Y-124472627D01*
X87002372Y-124561804D01*
X87002373Y-124561804D01*
X87002375Y-124561806D01*
X87115681Y-124617198D01*
X87115685Y-124617198D01*
X87117092Y-124617633D01*
X87118038Y-124618350D01*
X87120928Y-124619763D01*
X87120650Y-124620330D01*
X87158085Y-124648707D01*
X87170100Y-124689484D01*
X87170100Y-125462913D01*
X87152507Y-125511251D01*
X87148074Y-125516087D01*
X85909086Y-126755074D01*
X85862466Y-126776814D01*
X85855912Y-126777100D01*
X84809944Y-126777100D01*
X84809942Y-126777101D01*
X84765340Y-126785972D01*
X84714767Y-126819764D01*
X84680972Y-126870342D01*
X84680971Y-126870343D01*
X84672100Y-126914942D01*
X76417157Y-126914942D01*
X76415144Y-126910082D01*
X76338367Y-126777101D01*
X76280587Y-126677023D01*
X76217259Y-126594493D01*
X76116768Y-126463530D01*
X76116756Y-126463516D01*
X75926483Y-126273243D01*
X75926469Y-126273231D01*
X75712979Y-126109414D01*
X75479924Y-125974859D01*
X75231302Y-125871877D01*
X75231300Y-125871876D01*
X75231299Y-125871876D01*
X74971360Y-125802226D01*
X74704554Y-125767100D01*
X74435446Y-125767100D01*
X74168640Y-125802226D01*
X74168636Y-125802227D01*
X74168635Y-125802227D01*
X74011251Y-125844398D01*
X73908701Y-125871876D01*
X73908699Y-125871876D01*
X73908698Y-125871877D01*
X73908697Y-125871877D01*
X73660075Y-125974859D01*
X73427020Y-126109414D01*
X73213530Y-126273231D01*
X73213516Y-126273243D01*
X73023243Y-126463516D01*
X73023231Y-126463530D01*
X72859414Y-126677020D01*
X72724859Y-126910075D01*
X72621877Y-127158697D01*
X72621877Y-127158698D01*
X72572598Y-127342612D01*
X72552226Y-127418640D01*
X72517100Y-127685446D01*
X68276990Y-127685446D01*
X68262769Y-127577429D01*
X68199850Y-127342612D01*
X68106819Y-127118016D01*
X67985269Y-126907484D01*
X67984061Y-126905910D01*
X67917960Y-126819766D01*
X67837278Y-126714620D01*
X67837272Y-126714614D01*
X67837265Y-126714606D01*
X67665393Y-126542734D01*
X67665385Y-126542727D01*
X67665380Y-126542722D01*
X67562176Y-126463530D01*
X67472518Y-126394732D01*
X67261985Y-126273181D01*
X67037391Y-126180151D01*
X67037389Y-126180150D01*
X67037388Y-126180150D01*
X66802571Y-126117231D01*
X66561550Y-126085500D01*
X66318450Y-126085500D01*
X66077429Y-126117231D01*
X66077425Y-126117232D01*
X66077424Y-126117232D01*
X65928557Y-126157121D01*
X65842612Y-126180150D01*
X65842610Y-126180150D01*
X65842609Y-126180151D01*
X65842608Y-126180151D01*
X65618014Y-126273181D01*
X65407481Y-126394732D01*
X65214622Y-126542720D01*
X65214606Y-126542734D01*
X65042734Y-126714606D01*
X65042720Y-126714622D01*
X64894732Y-126907481D01*
X64773181Y-127118014D01*
X64680151Y-127342608D01*
X64680151Y-127342609D01*
X64680150Y-127342612D01*
X64676968Y-127354489D01*
X64625906Y-127545055D01*
X64617231Y-127577429D01*
X64585500Y-127818450D01*
X61419253Y-127818450D01*
X61644218Y-127356416D01*
X61645872Y-127353221D01*
X61650267Y-127345227D01*
X61650336Y-127345102D01*
X61941510Y-126828839D01*
X61943830Y-126825001D01*
X62269349Y-126321529D01*
X62271905Y-126317825D01*
X62627221Y-125834937D01*
X62629993Y-125831398D01*
X63013841Y-125370815D01*
X63016807Y-125367468D01*
X63427745Y-124930922D01*
X63430922Y-124927745D01*
X63867468Y-124516807D01*
X63870815Y-124513841D01*
X64331398Y-124129993D01*
X64334937Y-124127221D01*
X64817825Y-123771905D01*
X64821529Y-123769349D01*
X65325001Y-123443830D01*
X65328839Y-123441510D01*
X65845102Y-123150336D01*
X65845227Y-123150267D01*
X65853221Y-123145872D01*
X65856416Y-123144218D01*
X66359505Y-122899263D01*
X66360007Y-122899023D01*
X66405074Y-122877816D01*
X66408158Y-122876452D01*
X66899855Y-122672785D01*
X66900653Y-122672462D01*
X66972010Y-122644210D01*
X66975020Y-122643095D01*
X67460139Y-122475691D01*
X67461089Y-122475374D01*
X67551848Y-122445884D01*
X67554758Y-122445006D01*
X68035954Y-122310862D01*
X68037313Y-122310498D01*
X68142353Y-122283528D01*
X68145154Y-122282868D01*
X68624240Y-122180027D01*
X68625716Y-122179728D01*
X68741185Y-122157701D01*
X68743840Y-122157246D01*
X69221765Y-122084507D01*
X69223479Y-122084268D01*
X69346046Y-122068785D01*
X69348545Y-122068514D01*
X69825762Y-122025148D01*
X69827781Y-122024992D01*
X69954509Y-122017019D01*
X69956734Y-122016916D01*
X70498875Y-122000534D01*
X70501146Y-122000500D01*
X149998854Y-122000500D01*
X150001125Y-122000534D01*
G37*
%TD.AperFunction*%
%TD*%
M02*
