%TF.GenerationSoftware,KiCad,Pcbnew,9.0.7*%
%TF.CreationDate,2026-06-15T10:45:27+08:00*%
%TF.ProjectId,pcb,7063622e-6b69-4636-9164-5f7063625858,rev?*%
%TF.SameCoordinates,Original*%
%TF.FileFunction,Paste,Top*%
%TF.FilePolarity,Positive*%
%FSLAX46Y46*%
G04 Gerber Fmt 4.6, Leading zero omitted, Abs format (unit mm)*
G04 Created by KiCad (PCBNEW 9.0.7) date 2026-06-15 10:45:27*
%MOMM*%
%LPD*%
G01*
G04 APERTURE LIST*
G04 Aperture macros list*
%AMRoundRect*
0 Rectangle with rounded corners*
0 $1 Rounding radius*
0 $2 $3 $4 $5 $6 $7 $8 $9 X,Y pos of 4 corners*
0 Add a 4 corners polygon primitive as box body*
4,1,4,$2,$3,$4,$5,$6,$7,$8,$9,$2,$3,0*
0 Add four circle primitives for the rounded corners*
1,1,$1+$1,$2,$3*
1,1,$1+$1,$4,$5*
1,1,$1+$1,$6,$7*
1,1,$1+$1,$8,$9*
0 Add four rect primitives between the rounded corners*
20,1,$1+$1,$2,$3,$4,$5,0*
20,1,$1+$1,$4,$5,$6,$7,0*
20,1,$1+$1,$6,$7,$8,$9,0*
20,1,$1+$1,$8,$9,$2,$3,0*%
G04 Aperture macros list end*
%ADD10R,2.200000X1.500000*%
%ADD11R,2.000000X1.500000*%
%ADD12R,2.000000X3.800000*%
%ADD13RoundRect,0.200000X-0.200000X-0.275000X0.200000X-0.275000X0.200000X0.275000X-0.200000X0.275000X0*%
%ADD14R,2.500000X1.800000*%
%ADD15RoundRect,0.225000X-0.250000X0.225000X-0.250000X-0.225000X0.250000X-0.225000X0.250000X0.225000X0*%
%ADD16RoundRect,0.225000X0.225000X0.250000X-0.225000X0.250000X-0.225000X-0.250000X0.225000X-0.250000X0*%
%ADD17R,1.550000X0.600000*%
%ADD18R,2.600000X3.100000*%
%ADD19RoundRect,0.225000X0.250000X-0.225000X0.250000X0.225000X-0.250000X0.225000X-0.250000X-0.225000X0*%
%ADD20RoundRect,0.200000X0.275000X-0.200000X0.275000X0.200000X-0.275000X0.200000X-0.275000X-0.200000X0*%
G04 APERTURE END LIST*
D10*
%TO.C,L1*%
X100000000Y-130800000D03*
X100000000Y-137200000D03*
%TD*%
D11*
%TO.C,U6*%
X77719150Y-144300000D03*
X77719150Y-142000000D03*
X77719150Y-139700000D03*
D12*
X71419150Y-142000000D03*
%TD*%
D13*
%TO.C,R23*%
X96350000Y-143000000D03*
X98000000Y-143000000D03*
%TD*%
D14*
%TO.C,D2*%
X100000000Y-127500000D03*
X104000000Y-127500000D03*
%TD*%
D15*
%TO.C,C5*%
X82370000Y-126870000D03*
X82370000Y-128420000D03*
%TD*%
D16*
%TO.C,C7*%
X94540000Y-129870000D03*
X92990000Y-129870000D03*
%TD*%
D17*
%TO.C,U5*%
X85600000Y-127230000D03*
X85600000Y-128500000D03*
X85600000Y-129770000D03*
X85600000Y-131040000D03*
X91000000Y-131040000D03*
X91000000Y-129770000D03*
X91000000Y-128500000D03*
X91000000Y-127230000D03*
D18*
X88300000Y-129135000D03*
%TD*%
D19*
%TO.C,C11*%
X79980000Y-139840000D03*
X79980000Y-138290000D03*
%TD*%
D15*
%TO.C,C9*%
X94500000Y-136225000D03*
X94500000Y-137775000D03*
%TD*%
%TO.C,C6*%
X79860000Y-126870000D03*
X79860000Y-128420000D03*
%TD*%
D13*
%TO.C,R18*%
X89350000Y-134000000D03*
X91000000Y-134000000D03*
%TD*%
%TO.C,R17*%
X91000000Y-136000000D03*
X92650000Y-136000000D03*
%TD*%
D16*
%TO.C,C8*%
X89000000Y-124000000D03*
X87450000Y-124000000D03*
%TD*%
D20*
%TO.C,R4*%
X83440000Y-132645000D03*
X83440000Y-130995000D03*
%TD*%
D16*
%TO.C,C12*%
X71500000Y-147000000D03*
X69950000Y-147000000D03*
%TD*%
M02*
