%TF.GenerationSoftware,KiCad,Pcbnew,9.0.7*%
%TF.CreationDate,2026-06-15T10:45:30+08:00*%
%TF.ProjectId,pcb,7063622e-6b69-4636-9164-5f7063625858,rev?*%
%TF.SameCoordinates,Original*%
%TF.FileFunction,Soldermask,Bot*%
%TF.FilePolarity,Negative*%
%FSLAX46Y46*%
G04 Gerber Fmt 4.6, Leading zero omitted, Abs format (unit mm)*
G04 Created by KiCad (PCBNEW 9.0.7) date 2026-06-15 10:45:30*
%MOMM*%
%LPD*%
G01*
G04 APERTURE LIST*
G04 Aperture macros list*
%AMRoundRect*
0 Rectangle with rounded corners*
0 $1 Rounding radius*
0 $2 $3 $4 $5 $6 $7 $8 $9 X,Y pos of 4 corners*
0 Add a 4 corners polygon primitive as box body*
4,1,4,$2,$3,$4,$5,$6,$7,$8,$9,$2,$3,0*
0 Add four circle primitives for the rounded corners*
1,1,$1+$1,$2,$3*
1,1,$1+$1,$4,$5*
1,1,$1+$1,$6,$7*
1,1,$1+$1,$8,$9*
0 Add four rect primitives between the rounded corners*
20,1,$1+$1,$2,$3,$4,$5,0*
20,1,$1+$1,$4,$5,$6,$7,0*
20,1,$1+$1,$6,$7,$8,$9,0*
20,1,$1+$1,$8,$9,$2,$3,0*%
G04 Aperture macros list end*
%ADD10C,3.200000*%
%ADD11RoundRect,0.250000X0.725000X-0.600000X0.725000X0.600000X-0.725000X0.600000X-0.725000X-0.600000X0*%
%ADD12O,1.950000X1.700000*%
%ADD13RoundRect,0.760000X1.140000X-1.140000X1.140000X1.140000X-1.140000X1.140000X-1.140000X-1.140000X0*%
%ADD14C,3.800000*%
%ADD15RoundRect,0.250001X1.149999X1.149999X-1.149999X1.149999X-1.149999X-1.149999X1.149999X-1.149999X0*%
%ADD16C,2.800000*%
%ADD17RoundRect,0.250000X-0.600000X-0.725000X0.600000X-0.725000X0.600000X0.725000X-0.600000X0.725000X0*%
%ADD18O,1.700000X1.950000*%
%ADD19R,1.500000X1.500000*%
%ADD20C,1.500000*%
%ADD21RoundRect,0.250000X0.600000X0.725000X-0.600000X0.725000X-0.600000X-0.725000X0.600000X-0.725000X0*%
%ADD22RoundRect,0.250000X-0.750000X0.600000X-0.750000X-0.600000X0.750000X-0.600000X0.750000X0.600000X0*%
%ADD23O,2.000000X1.700000*%
%ADD24R,1.600000X1.600000*%
%ADD25C,1.600000*%
%ADD26RoundRect,0.250001X1.149999X-1.149999X1.149999X1.149999X-1.149999X1.149999X-1.149999X-1.149999X0*%
%ADD27C,2.000000*%
G04 APERTURE END LIST*
D10*
%TO.C,H1*%
X66440000Y-182380000D03*
%TD*%
D11*
%TO.C,J16*%
X129000000Y-163000000D03*
D12*
X129000000Y-160500000D03*
X129000000Y-158000000D03*
X129000000Y-155500000D03*
%TD*%
D13*
%TO.C,J1*%
X74570000Y-132820000D03*
D14*
X74570000Y-127820000D03*
%TD*%
D15*
%TO.C,J14*%
X154200000Y-151620000D03*
D16*
X149200000Y-151620000D03*
X144200000Y-151620000D03*
X139200000Y-151620000D03*
%TD*%
D17*
%TO.C,J11*%
X83250000Y-143475000D03*
D18*
X85750000Y-143475000D03*
X88250000Y-143475000D03*
X90750000Y-143475000D03*
%TD*%
D10*
%TO.C,J12*%
X143300000Y-131300000D03*
X131870000Y-131300000D03*
D19*
X142030000Y-137650000D03*
D20*
X140760000Y-140190000D03*
X139490000Y-137650000D03*
X138220000Y-140190000D03*
X136950000Y-137650000D03*
X135680000Y-140190000D03*
X134410000Y-137650000D03*
X133140000Y-140190000D03*
%TD*%
D10*
%TO.C,H3*%
X66440000Y-127940000D03*
%TD*%
%TO.C,H4*%
X153710000Y-182380000D03*
%TD*%
D21*
%TO.C,J10*%
X150060000Y-165850000D03*
D18*
X147560000Y-165850000D03*
X145060000Y-165850000D03*
X142560000Y-165850000D03*
%TD*%
D22*
%TO.C,J9*%
X138200714Y-171930000D03*
D23*
X138200714Y-174430000D03*
%TD*%
D22*
%TO.C,J8*%
X146461429Y-171930000D03*
D23*
X146461429Y-174430000D03*
%TD*%
D22*
%TO.C,J3*%
X122212143Y-174500000D03*
D23*
X122212143Y-177000000D03*
%TD*%
D22*
%TO.C,J5*%
X105690714Y-174500000D03*
D23*
X105690714Y-177000000D03*
%TD*%
D22*
%TO.C,J2*%
X129940000Y-171930000D03*
D23*
X129940000Y-174430000D03*
%TD*%
D24*
%TO.C,C10*%
X100500000Y-142500000D03*
D25*
X105500000Y-142500000D03*
%TD*%
D15*
%TO.C,J15*%
X90370000Y-177220000D03*
D16*
X85370000Y-177220000D03*
X80370000Y-177220000D03*
X75370000Y-177220000D03*
%TD*%
D22*
%TO.C,J4*%
X113951429Y-174500000D03*
D23*
X113951429Y-177000000D03*
%TD*%
D10*
%TO.C,H2*%
X153710000Y-127940000D03*
%TD*%
D26*
%TO.C,J13*%
X122290000Y-141170000D03*
D16*
X122290000Y-136170000D03*
X122290000Y-131170000D03*
X122290000Y-126170000D03*
%TD*%
D22*
%TO.C,J6*%
X97430000Y-174500000D03*
D23*
X97430000Y-177000000D03*
%TD*%
D22*
%TO.C,J7*%
X154722143Y-171930000D03*
D23*
X154722143Y-174430000D03*
%TD*%
D27*
%TO.C,U2*%
X71345450Y-167214600D03*
X73910850Y-167214600D03*
X76450850Y-167214600D03*
X78990850Y-167214600D03*
X81530850Y-167214600D03*
X84070850Y-167214600D03*
X86610850Y-167214600D03*
X89150850Y-167214600D03*
X91690850Y-167214600D03*
X94230850Y-167214600D03*
X96770850Y-167214600D03*
X99310850Y-167214600D03*
X101850850Y-167214600D03*
X104390850Y-167214600D03*
X106930850Y-167214600D03*
X109470850Y-167214600D03*
X112010850Y-167214600D03*
X114550850Y-167214600D03*
X117090850Y-167214600D03*
X119630850Y-167214600D03*
X119620000Y-152000000D03*
X117080000Y-152000000D03*
X114540000Y-152000000D03*
X112000000Y-152000000D03*
X109460000Y-152000000D03*
X106920000Y-152000000D03*
X104380000Y-152000000D03*
X101840000Y-152000000D03*
X99300000Y-152000000D03*
X96760000Y-152000000D03*
X94220000Y-152000000D03*
X91680000Y-152000000D03*
X89140000Y-152000000D03*
X86600000Y-152000000D03*
X84060000Y-152000000D03*
X81520000Y-152000000D03*
X78980000Y-152000000D03*
X76440000Y-152000000D03*
X73900000Y-152000000D03*
X71360000Y-152000000D03*
%TD*%
M02*
