%TF.GenerationSoftware,KiCad,Pcbnew,9.0.7*%
%TF.CreationDate,2026-06-15T10:45:29+08:00*%
%TF.ProjectId,pcb,7063622e-6b69-4636-9164-5f7063625858,rev?*%
%TF.SameCoordinates,Original*%
%TF.FileFunction,Soldermask,Top*%
%TF.FilePolarity,Negative*%
%FSLAX46Y46*%
G04 Gerber Fmt 4.6, Leading zero omitted, Abs format (unit mm)*
G04 Created by KiCad (PCBNEW 9.0.7) date 2026-06-15 10:45:29*
%MOMM*%
%LPD*%
G01*
G04 APERTURE LIST*
G04 Aperture macros list*
%AMRoundRect*
0 Rectangle with rounded corners*
0 $1 Rounding radius*
0 $2 $3 $4 $5 $6 $7 $8 $9 X,Y pos of 4 corners*
0 Add a 4 corners polygon primitive as box body*
4,1,4,$2,$3,$4,$5,$6,$7,$8,$9,$2,$3,0*
0 Add four circle primitives for the rounded corners*
1,1,$1+$1,$2,$3*
1,1,$1+$1,$4,$5*
1,1,$1+$1,$6,$7*
1,1,$1+$1,$8,$9*
0 Add four rect primitives between the rounded corners*
20,1,$1+$1,$2,$3,$4,$5,0*
20,1,$1+$1,$4,$5,$6,$7,0*
20,1,$1+$1,$6,$7,$8,$9,0*
20,1,$1+$1,$8,$9,$2,$3,0*%
G04 Aperture macros list end*
%ADD10C,3.200000*%
%ADD11RoundRect,0.250000X0.725000X-0.600000X0.725000X0.600000X-0.725000X0.600000X-0.725000X-0.600000X0*%
%ADD12O,1.950000X1.700000*%
%ADD13RoundRect,0.760000X1.140000X-1.140000X1.140000X1.140000X-1.140000X1.140000X-1.140000X-1.140000X0*%
%ADD14C,3.800000*%
%ADD15R,2.200000X1.500000*%
%ADD16RoundRect,0.250001X1.149999X1.149999X-1.149999X1.149999X-1.149999X-1.149999X1.149999X-1.149999X0*%
%ADD17C,2.800000*%
%ADD18RoundRect,0.250000X-0.600000X-0.725000X0.600000X-0.725000X0.600000X0.725000X-0.600000X0.725000X0*%
%ADD19O,1.700000X1.950000*%
%ADD20R,2.000000X1.500000*%
%ADD21R,2.000000X3.800000*%
%ADD22RoundRect,0.200000X-0.200000X-0.275000X0.200000X-0.275000X0.200000X0.275000X-0.200000X0.275000X0*%
%ADD23R,2.500000X1.800000*%
%ADD24R,1.500000X1.500000*%
%ADD25C,1.500000*%
%ADD26RoundRect,0.225000X-0.250000X0.225000X-0.250000X-0.225000X0.250000X-0.225000X0.250000X0.225000X0*%
%ADD27RoundRect,0.250000X0.600000X0.725000X-0.600000X0.725000X-0.600000X-0.725000X0.600000X-0.725000X0*%
%ADD28RoundRect,0.250000X-0.750000X0.600000X-0.750000X-0.600000X0.750000X-0.600000X0.750000X0.600000X0*%
%ADD29O,2.000000X1.700000*%
%ADD30RoundRect,0.225000X0.225000X0.250000X-0.225000X0.250000X-0.225000X-0.250000X0.225000X-0.250000X0*%
%ADD31R,1.550000X0.600000*%
%ADD32R,2.600000X3.100000*%
%ADD33RoundRect,0.225000X0.250000X-0.225000X0.250000X0.225000X-0.250000X0.225000X-0.250000X-0.225000X0*%
%ADD34R,1.600000X1.600000*%
%ADD35C,1.600000*%
%ADD36RoundRect,0.250001X1.149999X-1.149999X1.149999X1.149999X-1.149999X1.149999X-1.149999X-1.149999X0*%
%ADD37RoundRect,0.200000X0.275000X-0.200000X0.275000X0.200000X-0.275000X0.200000X-0.275000X-0.200000X0*%
%ADD38C,2.000000*%
G04 APERTURE END LIST*
D10*
%TO.C,H1*%
X66440000Y-182380000D03*
%TD*%
D11*
%TO.C,J16*%
X129000000Y-163000000D03*
D12*
X129000000Y-160500000D03*
X129000000Y-158000000D03*
X129000000Y-155500000D03*
%TD*%
D13*
%TO.C,J1*%
X74570000Y-132820000D03*
D14*
X74570000Y-127820000D03*
%TD*%
D15*
%TO.C,L1*%
X100000000Y-130800000D03*
X100000000Y-137200000D03*
%TD*%
D16*
%TO.C,J14*%
X154200000Y-151620000D03*
D17*
X149200000Y-151620000D03*
X144200000Y-151620000D03*
X139200000Y-151620000D03*
%TD*%
D18*
%TO.C,J11*%
X83250000Y-143475000D03*
D19*
X85750000Y-143475000D03*
X88250000Y-143475000D03*
X90750000Y-143475000D03*
%TD*%
D20*
%TO.C,U6*%
X77719150Y-144300000D03*
X77719150Y-142000000D03*
X77719150Y-139700000D03*
D21*
X71419150Y-142000000D03*
%TD*%
D22*
%TO.C,R23*%
X96350000Y-143000000D03*
X98000000Y-143000000D03*
%TD*%
D23*
%TO.C,D2*%
X100000000Y-127500000D03*
X104000000Y-127500000D03*
%TD*%
D10*
%TO.C,J12*%
X143300000Y-131300000D03*
X131870000Y-131300000D03*
D24*
X142030000Y-137650000D03*
D25*
X140760000Y-140190000D03*
X139490000Y-137650000D03*
X138220000Y-140190000D03*
X136950000Y-137650000D03*
X135680000Y-140190000D03*
X134410000Y-137650000D03*
X133140000Y-140190000D03*
%TD*%
D26*
%TO.C,C5*%
X82370000Y-126870000D03*
X82370000Y-128420000D03*
%TD*%
D10*
%TO.C,H3*%
X66440000Y-127940000D03*
%TD*%
%TO.C,H4*%
X153710000Y-182380000D03*
%TD*%
D27*
%TO.C,J10*%
X150060000Y-165850000D03*
D19*
X147560000Y-165850000D03*
X145060000Y-165850000D03*
X142560000Y-165850000D03*
%TD*%
D28*
%TO.C,J9*%
X138200714Y-171930000D03*
D29*
X138200714Y-174430000D03*
%TD*%
D28*
%TO.C,J8*%
X146461429Y-171930000D03*
D29*
X146461429Y-174430000D03*
%TD*%
D28*
%TO.C,J3*%
X122212143Y-174500000D03*
D29*
X122212143Y-177000000D03*
%TD*%
D28*
%TO.C,J5*%
X105690714Y-174500000D03*
D29*
X105690714Y-177000000D03*
%TD*%
D28*
%TO.C,J2*%
X129940000Y-171930000D03*
D29*
X129940000Y-174430000D03*
%TD*%
D30*
%TO.C,C7*%
X94540000Y-129870000D03*
X92990000Y-129870000D03*
%TD*%
D31*
%TO.C,U5*%
X85600000Y-127230000D03*
X85600000Y-128500000D03*
X85600000Y-129770000D03*
X85600000Y-131040000D03*
X91000000Y-131040000D03*
X91000000Y-129770000D03*
X91000000Y-128500000D03*
X91000000Y-127230000D03*
D32*
X88300000Y-129135000D03*
%TD*%
D33*
%TO.C,C11*%
X79980000Y-139840000D03*
X79980000Y-138290000D03*
%TD*%
D34*
%TO.C,C10*%
X100500000Y-142500000D03*
D35*
X105500000Y-142500000D03*
%TD*%
D16*
%TO.C,J15*%
X90370000Y-177220000D03*
D17*
X85370000Y-177220000D03*
X80370000Y-177220000D03*
X75370000Y-177220000D03*
%TD*%
D28*
%TO.C,J4*%
X113951429Y-174500000D03*
D29*
X113951429Y-177000000D03*
%TD*%
D10*
%TO.C,H2*%
X153710000Y-127940000D03*
%TD*%
D26*
%TO.C,C9*%
X94500000Y-136225000D03*
X94500000Y-137775000D03*
%TD*%
D36*
%TO.C,J13*%
X122290000Y-141170000D03*
D17*
X122290000Y-136170000D03*
X122290000Y-131170000D03*
X122290000Y-126170000D03*
%TD*%
D26*
%TO.C,C6*%
X79860000Y-126870000D03*
X79860000Y-128420000D03*
%TD*%
D22*
%TO.C,R18*%
X89350000Y-134000000D03*
X91000000Y-134000000D03*
%TD*%
%TO.C,R17*%
X91000000Y-136000000D03*
X92650000Y-136000000D03*
%TD*%
D30*
%TO.C,C8*%
X89000000Y-124000000D03*
X87450000Y-124000000D03*
%TD*%
D37*
%TO.C,R4*%
X83440000Y-132645000D03*
X83440000Y-130995000D03*
%TD*%
D28*
%TO.C,J6*%
X97430000Y-174500000D03*
D29*
X97430000Y-177000000D03*
%TD*%
D28*
%TO.C,J7*%
X154722143Y-171930000D03*
D29*
X154722143Y-174430000D03*
%TD*%
D30*
%TO.C,C12*%
X71500000Y-147000000D03*
X69950000Y-147000000D03*
%TD*%
D38*
%TO.C,U2*%
X71345450Y-167214600D03*
X73910850Y-167214600D03*
X76450850Y-167214600D03*
X78990850Y-167214600D03*
X81530850Y-167214600D03*
X84070850Y-167214600D03*
X86610850Y-167214600D03*
X89150850Y-167214600D03*
X91690850Y-167214600D03*
X94230850Y-167214600D03*
X96770850Y-167214600D03*
X99310850Y-167214600D03*
X101850850Y-167214600D03*
X104390850Y-167214600D03*
X106930850Y-167214600D03*
X109470850Y-167214600D03*
X112010850Y-167214600D03*
X114550850Y-167214600D03*
X117090850Y-167214600D03*
X119630850Y-167214600D03*
X119620000Y-152000000D03*
X117080000Y-152000000D03*
X114540000Y-152000000D03*
X112000000Y-152000000D03*
X109460000Y-152000000D03*
X106920000Y-152000000D03*
X104380000Y-152000000D03*
X101840000Y-152000000D03*
X99300000Y-152000000D03*
X96760000Y-152000000D03*
X94220000Y-152000000D03*
X91680000Y-152000000D03*
X89140000Y-152000000D03*
X86600000Y-152000000D03*
X84060000Y-152000000D03*
X81520000Y-152000000D03*
X78980000Y-152000000D03*
X76440000Y-152000000D03*
X73900000Y-152000000D03*
X71360000Y-152000000D03*
%TD*%
M02*
