M48
; DRILL file {KiCad 9.0.7} date 2026-06-15T10:45:37+0800
; FORMAT={-:-/ absolute / metric / decimal}
; #@! TF.CreationDate,2026-06-15T10:45:37+08:00
; #@! TF.GenerationSoftware,Kicad,Pcbnew,9.0.7
; #@! TF.FileFunction,Plated,1,2,PTH
FMAT,2
METRIC
; #@! TA.AperFunction,Plated,PTH,ComponentDrill
T1C0.760
; #@! TA.AperFunction,Plated,PTH,ComponentDrill
T2C0.800
; #@! TA.AperFunction,Plated,PTH,ComponentDrill
T3C0.950
; #@! TA.AperFunction,Plated,PTH,ComponentDrill
T4C1.000
; #@! TA.AperFunction,Plated,PTH,ComponentDrill
T5C1.400
; #@! TA.AperFunction,Plated,PTH,ComponentDrill
T6C2.000
; #@! TA.AperFunction,Plated,PTH,ComponentDrill
T7C2.700
%
G90
G05
T1
X133.14Y-140.19
X134.41Y-137.65
X135.68Y-140.19
X136.95Y-137.65
X138.22Y-140.19
X139.49Y-137.65
X140.76Y-140.19
X142.03Y-137.65
T2
X100.5Y-142.5
X105.5Y-142.5
T3
X83.25Y-143.475
X85.75Y-143.475
X88.25Y-143.475
X90.75Y-143.475
X129.0Y-155.5
X129.0Y-158.0
X129.0Y-160.5
X129.0Y-163.0
X142.56Y-165.85
X145.06Y-165.85
X147.56Y-165.85
X150.06Y-165.85
T4
X71.345Y-167.215
X71.36Y-152.0
X73.9Y-152.0
X73.911Y-167.215
X76.44Y-152.0
X76.451Y-167.215
X78.98Y-152.0
X78.991Y-167.215
X81.52Y-152.0
X81.531Y-167.215
X84.06Y-152.0
X84.071Y-167.215
X86.6Y-152.0
X86.611Y-167.215
X89.14Y-152.0
X89.151Y-167.215
X91.68Y-152.0
X91.691Y-167.215
X94.22Y-152.0
X94.231Y-167.215
X96.76Y-152.0
X96.771Y-167.215
X97.43Y-174.5
X97.43Y-177.0
X99.3Y-152.0
X99.311Y-167.215
X101.84Y-152.0
X101.851Y-167.215
X104.38Y-152.0
X104.391Y-167.215
X105.691Y-174.5
X105.691Y-177.0
X106.92Y-152.0
X106.931Y-167.215
X109.46Y-152.0
X109.471Y-167.215
X112.0Y-152.0
X112.011Y-167.215
X113.951Y-174.5
X113.951Y-177.0
X114.54Y-152.0
X114.551Y-167.215
X117.08Y-152.0
X117.091Y-167.215
X119.62Y-152.0
X119.631Y-167.215
X122.212Y-174.5
X122.212Y-177.0
X129.94Y-171.93
X129.94Y-174.43
X138.201Y-171.93
X138.201Y-174.43
X146.461Y-171.93
X146.461Y-174.43
X154.722Y-171.93
X154.722Y-174.43
T5
X75.37Y-177.22
X80.37Y-177.22
X85.37Y-177.22
X90.37Y-177.22
X122.29Y-126.17
X122.29Y-131.17
X122.29Y-136.17
X122.29Y-141.17
X139.2Y-151.62
X144.2Y-151.62
X149.2Y-151.62
X154.2Y-151.62
T6
X88.3Y-129.135
T7
X74.57Y-127.82
X74.57Y-132.82
M30
